<?xml version="1.0" encoding="UTF-8" standalone="no"?>
<!DOCTYPE svg PUBLIC "-//W3C//DTD SVG 1.1//EN" "http://www.w3.org/Graphics/SVG/1.1/DTD/svg11.dtd">
<svg xmlns="http://www.w3.org/2000/svg" version="1.1" viewBox="0.00 0.00 728.00 42.00">
<g stroke-width="2.00" fill="none" stroke-linecap="butt">
<path stroke="#8546c6" vector-effect="non-scaling-stroke" d="
  M 15.61 0.00
  L 15.54 31.21
  Q 15.54 31.69 15.90 32.02
  Q 16.41 32.49 16.31 33.19
  Q 16.26 33.58 15.93 33.78
  Q 14.99 34.37 15.62 34.82"
/>
<path stroke="#b685f0" vector-effect="non-scaling-stroke" d="
  M 15.62 34.82
  Q 14.36 37.67 14.68 39.83"
/>
<path stroke="#944be6" vector-effect="non-scaling-stroke" d="
  M 14.68 39.83
  Q 12.32 40.34 9.77 40.49
  C 6.67 40.69 3.41 41.93 0.00 41.57"
/>
<path stroke="#7a37c0" vector-effect="non-scaling-stroke" d="
  M 28.04 0.00
  L 40.16 1.36"
/>
<path stroke="#9c70ca" vector-effect="non-scaling-stroke" d="
  M 40.16 1.36
  Q 40.65 2.92 40.64 4.31
  Q 40.51 17.58 40.21 31.27
  Q 40.16 33.54 37.90 33.37
  L 31.03 32.84
  Q 30.57 32.81 30.16 33.03
  Q 29.26 33.50 28.74 33.43
  Q 21.70 32.47 15.62 34.82"
/>
<path stroke="#7432b9" vector-effect="non-scaling-stroke" d="
  M 68.83 0.00
  L 61.60 0.27
  A 0.54 0.54 0.0 0 0 61.08 0.84
  Q 61.81 15.92 61.32 30.92
  Q 61.28 32.26 61.98 32.68
  Q 62.70 33.12 64.05 33.25"
/>
<path stroke="#ab76ea" vector-effect="non-scaling-stroke" d="
  M 64.05 33.25
  L 46.41 33.46
  A 1.23 1.23 0.0 0 1 45.17 32.22
  L 45.53 1.00
  Q 45.54 0.53 45.08 0.45
  Q 42.16 -0.10 40.16 1.36"
/>
<path stroke="#7432b9" vector-effect="non-scaling-stroke" d="
  M 81.79 0.00
  Q 82.94 0.59 84.69 0.49"
/>
<path stroke="#976cc4" vector-effect="non-scaling-stroke" d="
  M 84.69 0.49
  L 84.95 32.49
  A 0.56 0.55 -1.0 0 1 84.40 33.05
  L 64.05 33.25"
/>
<path stroke="#7432b9" vector-effect="non-scaling-stroke" d="
  M 108.59 0.00
  L 107.18 0.28
  Q 106.67 0.38 106.68 0.89
  C 106.72 9.69 107.40 18.82 106.61 27.53
  Q 106.32 30.80 108.61 33.15"
/>
<path stroke="#ab76ea" vector-effect="non-scaling-stroke" d="
  M 108.61 33.15
  L 91.62 32.87
  Q 91.08 32.86 91.07 32.33
  Q 90.82 23.48 91.14 14.64
  C 91.27 10.83 90.72 5.64 91.42 1.06
  Q 91.50 0.52 90.96 0.52
  L 84.69 0.49"
/>
<path stroke="#7432b9" vector-effect="non-scaling-stroke" d="
  M 111.27 0.00
  Q 113.93 0.59 116.61 0.00"
/>
<path stroke="#7432b9" vector-effect="non-scaling-stroke" d="
  M 118.04 0.00
  L 120.26 0.65
  Q 120.75 0.79 121.24 0.64
  Q 126.27 -0.92 130.36 3.38"
/>
<path stroke="#976cc4" vector-effect="non-scaling-stroke" d="
  M 130.36 3.38
  L 130.17 31.57
  A 1.47 1.47 0.0 0 1 128.71 33.03
  L 108.61 33.15"
/>
<path stroke="#7432b9" vector-effect="non-scaling-stroke" d="
  M 158.33 0.00
  L 151.42 0.45
  Q 150.87 0.48 150.88 1.04
  L 151.49 33.37"
/>
<path stroke="#ab76ea" vector-effect="non-scaling-stroke" d="
  M 151.49 33.37
  L 136.26 33.21
  A 1.34 1.33 0.9 0 1 134.94 31.86
  L 135.38 1.23
  Q 135.39 0.64 134.81 0.58
  L 130.82 0.17
  Q 130.28 0.12 130.29 0.66
  L 130.36 3.38"
/>
<path stroke="#7432b9" vector-effect="non-scaling-stroke" d="
  M 169.30 0.00
  L 174.98 1.16"
/>
<path stroke="#976cc4" vector-effect="non-scaling-stroke" d="
  M 174.98 1.16
  L 174.91 32.13
  Q 174.91 32.72 174.33 32.82
  Q 169.15 33.71 163.77 33.07"
/>
<path stroke="#662d9a" vector-effect="non-scaling-stroke" d="
  M 163.77 33.07
  Q 159.92 32.29 155.94 33.06"
/>
<path stroke="#976cc4" vector-effect="non-scaling-stroke" d="
  M 155.94 33.06
  L 151.49 33.37"
/>
<path stroke="#7432b9" vector-effect="non-scaling-stroke" d="
  M 195.37 0.00
  L 196.64 30.73"
/>
<path stroke="#6629a9" vector-effect="non-scaling-stroke" d="
  M 196.64 30.73
  L 197.54 31.72
  Q 197.92 32.13 197.56 32.56
  L 196.96 33.28"
/>
<path stroke="#ab76ea" vector-effect="non-scaling-stroke" d="
  M 196.96 33.28
  L 181.88 33.21
  Q 179.88 33.21 179.91 31.21
  L 180.28 0.89
  Q 180.29 0.38 179.78 0.32
  Q 176.90 -0.08 174.98 1.16"
/>
<path stroke="#7432b9" vector-effect="non-scaling-stroke" d="
  M 220.81 0.00
  Q 220.79 0.15 220.76 0.29"
/>
<path stroke="#976cc4" vector-effect="non-scaling-stroke" d="
  M 220.76 0.29
  Q 219.20 -0.02 219.20 1.00
  Q 219.18 14.74 219.56 28.44"
/>
<path stroke="#662d9a" vector-effect="non-scaling-stroke" d="
  M 219.56 28.44
  Q 219.14 28.61 219.19 29.79"
/>
<path stroke="#521f83" vector-effect="non-scaling-stroke" d="
  M 219.19 29.79
  L 218.99 27.76
  Q 218.95 27.28 218.47 27.25
  Q 216.81 27.15 214.25 27.49
  Q 208.26 28.29 200.57 27.91
  Q 197.08 27.73 196.64 30.73"
/>
<path stroke="#7432b9" vector-effect="non-scaling-stroke" d="
  M 241.18 0.00
  Q 240.43 14.80 241.09 31.49
  Q 241.13 32.39 242.03 32.46
  Q 251.35 33.10 261.18 32.85
  Q 263.13 32.80 264.51 32.35
  A 0.76 0.75 -10.7 0 0 265.03 31.60
  C 264.92 28.96 264.09 26.36 264.04 23.90
  Q 263.77 9.64 263.99 4.24
  Q 264.13 0.73 261.30 0.00"
/>
<path stroke="#ab76ea" vector-effect="non-scaling-stroke" d="
  M 311.61 0.00
  Q 309.80 4.28 311.04 9.84
  C 312.15 14.83 311.15 20.75 312.06 24.24
  C 314.61 34.08 307.80 36.47 299.58 35.04
  Q 299.08 34.95 298.64 35.17
  Q 297.34 35.81 296.35 34.64
  A 0.81 0.80 -19.0 0 0 295.72 34.34
  L 280.43 34.16
  Q 280.00 34.15 279.58 34.25
  Q 277.30 34.82 274.94 34.14
  Q 274.48 34.00 274.02 34.11
  Q 272.23 34.51 270.44 33.95
  Q 269.91 33.78 269.83 33.23
  C 269.07 28.16 269.33 22.08 269.21 17.91
  Q 268.99 10.44 270.09 2.78
  A 1.61 1.61 0.0 0 0 268.23 0.96
  L 266.27 1.29
  Q 264.83 1.53 264.86 2.99
  L 265.35 31.94
  A 2.38 2.37 4.6 0 1 262.56 34.31
  C 260.34 33.92 258.37 34.92 256.13 34.66
  Q 241.54 32.93 227.09 32.94
  A 1.34 1.33 -3.1 0 1 225.76 31.75
  C 224.68 21.88 225.78 10.94 225.85 0.89
  A 0.54 0.54 0.0 0 0 225.32 0.34
  L 220.76 0.29"
/>
<path stroke="#7432b9" vector-effect="non-scaling-stroke" d="
  M 286.43 31.17
  C 287.92 33.15 291.80 33.17 294.00 32.92
  Q 300.35 32.22 305.54 32.28
  A 3.49 3.49 0.0 0 0 309.07 28.54
  C 308.61 22.15 308.56 15.57 309.16 8.89
  Q 309.51 4.98 308.34 0.96
  Q 308.17 0.38 307.56 0.38
  L 287.44 0.47
  Q 286.92 0.48 286.57 0.87
  C 284.50 3.20 285.78 11.38 285.78 14.98
  C 285.78 18.67 283.92 27.85 286.43 31.17"
/>
<path stroke="#ab76ea" vector-effect="non-scaling-stroke" d="
  M 313.65 0.00
  Q 315.57 3.05 315.04 6.81
  C 314.07 13.74 315.72 20.74 314.16 27.41
  Q 313.61 29.79 314.31 31.80
  A 3.45 3.45 0.0 0 0 317.31 34.11
  Q 327.41 34.88 338.80 35.17
  C 342.49 35.26 346.53 34.14 350.49 34.05
  C 352.60 33.99 353.03 34.91 354.98 32.89"
/>
<path stroke="#976cc4" vector-effect="non-scaling-stroke" d="
  M 354.98 32.89
  L 354.38 0.71"
/>
<path stroke="#a66eea" vector-effect="non-scaling-stroke" d="
  M 354.38 0.71
  Q 356.65 -0.21 359.61 0.55
  Q 360.12 0.68 360.13 1.21
  L 360.52 32.02
  A 0.83 0.82 0.4 0 0 361.33 32.83
  L 377.02 33.10"
/>
<path stroke="#c39bf1" vector-effect="non-scaling-stroke" d="
  M 377.02 33.10
  L 386.97 33.28
  Q 387.43 33.29 387.68 33.67
  L 387.86 33.95
  Q 388.11 34.34 388.57 34.30
  L 398.57 33.52"
/>
<path stroke="#8d65b9" vector-effect="non-scaling-stroke" d="
  M 398.57 33.52
  Q 398.95 33.53 399.20 33.16"
/>
<path stroke="#a66eea" vector-effect="non-scaling-stroke" d="
  M 399.20 33.16
  Q 399.63 33.35 399.85 33.22
  Q 400.04 33.12 400.04 32.72
  Q 400.14 21.19 399.99 9.65
  C 399.96 7.40 400.92 4.61 399.97 1.96
  A 1.09 1.09 0.0 0 1 400.99 0.50
  L 403.74 0.50
  Q 404.47 0.50 404.48 1.24
  L 404.93 32.66
  Q 404.93 33.04 405.24 33.27
  Q 405.66 33.58 406.09 33.47"
/>
<path stroke="#c39bf1" vector-effect="non-scaling-stroke" d="
  M 406.09 33.47
  L 419.60 34.45
  Q 420.08 34.49 420.47 34.23
  C 421.88 33.31 422.63 34.07 423.73 34.10
  Q 432.36 34.34 441.00 34.20"
/>
<path stroke="#b18ae0" vector-effect="non-scaling-stroke" d="
  M 441.00 34.20
  Q 442.16 34.01 443.30 33.92
  Q 445.01 33.77 444.72 32.81"
/>
<path stroke="#8963b3" vector-effect="non-scaling-stroke" d="
  M 444.72 32.81
  Q 444.81 31.70 444.66 31.53"
/>
<path stroke="#9c70ca" vector-effect="non-scaling-stroke" d="
  M 444.66 31.53
  L 444.46 26.00"
/>
<path stroke="#8d65b9" vector-effect="non-scaling-stroke" d="
  M 444.46 26.00
  L 444.23 1.20"
/>
<path stroke="#a66eea" vector-effect="non-scaling-stroke" d="
  M 444.23 1.20
  Q 445.68 -0.50 449.39 0.44
  Q 449.83 0.55 449.85 1.00
  Q 450.82 16.82 450.23 32.65
  Q 450.21 33.11 450.66 33.11
  L 469.06 33.16"
/>
<path stroke="#8d65b9" vector-effect="non-scaling-stroke" d="
  M 469.06 33.16
  L 489.00 32.86
  A 1.47 1.47 0.0 0 0 490.45 31.26
  C 490.31 29.61 489.74 27.99 489.73 26.23
  Q 489.64 13.83 489.74 1.10"
/>
<path stroke="#a66eea" vector-effect="non-scaling-stroke" d="
  M 489.74 1.10
  Q 490.84 -0.56 493.40 0.45
  Q 493.85 0.63 493.79 1.10
  C 493.23 5.03 493.63 9.57 493.47 12.89
  Q 492.97 22.84 494.03 32.79
  Q 494.08 33.30 494.58 33.44
  Q 497.56 34.26 500.60 34.14
  C 511.80 33.70 522.78 34.54 534.00 33.76
  Q 535.18 33.68 534.72 32.79"
/>
<path stroke="#8d65b9" vector-effect="non-scaling-stroke" d="
  M 534.72 32.79
  L 534.70 31.75"
/>
<path stroke="#a66eea" vector-effect="non-scaling-stroke" d="
  M 534.70 31.75
  C 535.51 28.81 534.90 25.56 534.93 23.33
  Q 535.03 13.27 534.86 3.13
  Q 534.83 1.11 535.55 0.51
  Q 536.62 -0.38 538.99 0.54
  A 0.56 0.56 0.0 0 1 539.20 1.44
  Q 538.40 2.30 538.99 3.30
  Q 539.27 3.76 539.26 4.29
  Q 539.02 17.68 539.22 31.08
  C 539.25 33.16 540.34 34.52 542.51 33.99
  C 546.46 33.01 550.48 33.92 554.50 34.06"
/>
<path stroke="#c39bf1" vector-effect="non-scaling-stroke" d="
  M 554.50 34.06
  L 568.41 34.42
  Q 569.00 34.44 569.00 35.03
  L 569.00 36.23
  A 0.58 0.58 0.0 0 1 568.29 36.80
  Q 567.11 36.53 566.21 37.05"
/>
<path stroke="#ab76ea" vector-effect="non-scaling-stroke" d="
  M 566.21 37.05
  C 557.46 36.09 549.08 36.46 540.03 36.01
  Q 534.82 35.76 528.99 36.49
  Q 521.48 37.43 512.43 36.34
  C 507.17 35.70 501.36 37.80 495.97 36.34
  C 492.98 35.53 490.18 36.80 487.67 36.81
  Q 426.79 37.15 407.06 36.98
  Q 405.60 36.97 402.16 36.11
  C 400.66 35.74 399.02 36.77 397.46 36.81
  Q 374.58 37.37 351.70 38.03
  C 346.53 38.18 338.58 37.55 331.90 38.39
  Q 330.33 38.58 328.16 38.14
  C 325.85 37.67 323.45 38.08 321.55 38.14
  Q 316.08 38.32 310.60 38.58
  Q 310.21 38.60 309.93 38.44
  Q 309.63 38.27 309.35 37.98
  A 1.16 1.11 -19.8 0 0 308.58 37.64
  Q 304.77 37.54 300.97 37.50
  Q 298.45 37.47 293.50 38.24
  C 288.85 38.96 283.17 38.40 279.58 38.50
  Q 255.46 39.18 231.33 38.50
  Q 230.84 38.48 230.39 38.70
  Q 229.73 39.01 229.18 38.89
  Q 223.70 37.64 218.16 38.06
  C 202.39 39.28 187.09 37.43 171.44 38.31
  Q 154.00 39.29 140.00 38.40
  Q 132.69 37.93 127.08 38.25
  C 116.21 38.87 105.44 38.97 94.56 38.92
  C 79.91 38.85 63.34 39.20 47.68 38.60
  C 44.42 38.47 40.42 39.03 36.77 38.90
  Q 25.77 38.51 14.68 39.83"
/>
<path stroke="#9c70ca" vector-effect="non-scaling-stroke" d="
  M 155.94 33.06
  L 163.77 33.07"
/>
<path stroke="#8963b3" vector-effect="non-scaling-stroke" d="
  M 196.96 33.28
  L 219.58 32.94"
/>
<path stroke="#9c70ca" vector-effect="non-scaling-stroke" d="
  M 219.58 32.94
  L 219.56 28.44"
/>
<path stroke="#7432b9" vector-effect="non-scaling-stroke" d="
  M 343.15 0.00
  Q 336.14 1.47 333.25 0.62
  Q 330.07 -0.31 330.14 2.49
  Q 330.49 15.23 331.09 27.97
  Q 331.11 28.46 330.90 28.89
  Q 329.93 30.90 331.53 32.50
  Q 331.83 32.80 332.26 32.81
  L 354.98 32.89"
/>
<path stroke="#702ab9" vector-effect="non-scaling-stroke" d="
  M 348.54 0.00
  L 354.38 0.71"
/>
<path stroke="#6624af" vector-effect="non-scaling-stroke" d="
  M 375.98 0.00
  Q 374.35 6.43 375.01 14.29
  C 375.08 15.16 375.57 16.00 375.63 16.82
  Q 376.19 24.36 375.71 31.91
  Q 375.69 32.29 376.01 32.50
  L 376.29 32.69"
/>
<path stroke="#9c5ae6" vector-effect="non-scaling-stroke" d="
  M 376.29 32.69
  Q 376.18 33.02 377.02 33.10"
/>
<path stroke="#6624af" vector-effect="non-scaling-stroke" d="
  M 392.49 0.00
  Q 398.13 -0.28 399.06 2.92
  Q 400.14 6.62 399.31 11.00
  Q 398.54 15.06 399.19 29.67
  Q 399.21 30.15 399.44 30.58
  Q 400.18 31.92 399.20 33.16"
/>
<path stroke="#8351b6" vector-effect="non-scaling-stroke" d="
  M 398.57 33.52
  Q 398.39 33.32 398.17 33.18
  Q 397.97 33.06 397.68 33.06
  Q 386.99 33.01 376.29 32.69"
/>
<path stroke="#6624af" vector-effect="non-scaling-stroke" d="
  M 423.06 0.00
  L 420.93 0.35
  A 0.57 0.57 0.0 0 0 420.47 1.03
  C 422.27 9.68 420.71 20.32 420.92 29.24
  Q 420.93 29.71 421.14 30.13
  Q 421.61 31.04 421.43 32.08
  Q 421.35 32.56 421.81 32.71
  L 422.80 33.03"
/>
<path stroke="#9c5ae6" vector-effect="non-scaling-stroke" d="
  M 422.80 33.03
  L 406.09 33.47"
/>
<path stroke="#6624af" vector-effect="non-scaling-stroke" d="
  M 442.54 0.00
  Q 443.81 0.44 444.23 1.20"
/>
<path stroke="#5c268f" vector-effect="non-scaling-stroke" d="
  M 444.46 26.00
  Q 444.08 26.18 444.29 26.82"
/>
<path stroke="#491978" vector-effect="non-scaling-stroke" d="
  M 444.29 26.82
  L 442.94 26.13
  A 1.56 1.54 -30.0 0 0 442.37 25.98
  Q 441.23 25.89 440.96 26.90
  A 0.97 0.96 -86.2 0 1 440.17 27.60
  C 434.99 28.38 429.75 27.26 424.32 28.37
  A 2.33 2.33 0.0 0 0 422.45 30.67
  Q 422.45 32.99 424.47 32.90"
/>
<path stroke="#8351b6" vector-effect="non-scaling-stroke" d="
  M 424.47 32.90
  L 422.80 33.03"
/>
<path stroke="#6624af" vector-effect="non-scaling-stroke" d="
  M 466.18 0.00
  Q 466.97 5.17 466.36 10.03
  C 465.42 17.46 466.19 24.60 466.68 32.03
  Q 466.74 32.94 469.06 33.16"
/>
<path stroke="#6624af" vector-effect="non-scaling-stroke" d="
  M 484.54 0.00
  C 486.26 0.61 488.36 -0.37 489.74 1.10"
/>
<path stroke="#6624af" vector-effect="non-scaling-stroke" d="
  M 512.82 0.00
  Q 512.03 0.33 510.96 0.25
  A 0.48 0.47 87.5 0 0 510.46 0.80
  C 512.03 10.69 511.09 21.60 511.08 31.24
  Q 511.08 33.03 512.87 33.01
  L 534.72 32.79"
/>
<path stroke="#6624af" vector-effect="non-scaling-stroke" d="
  M 530.80 0.00
  Q 534.73 -0.68 534.23 7.25
  Q 533.67 16.10 533.91 24.97
  C 533.98 27.33 533.50 29.28 534.70 31.75"
/>
<path stroke="#6221a9" vector-effect="non-scaling-stroke" d="
  M 555.95 0.00
  Q 556.30 14.15 555.76 28.34
  C 555.71 29.65 556.40 30.41 556.24 31.88
  Q 556.19 32.35 556.65 32.46
  L 558.55 32.94"
/>
<path stroke="#9c5ae6" vector-effect="non-scaling-stroke" d="
  M 558.55 32.94
  Q 556.00 33.19 554.50 34.06"
/>
<path stroke="#6221a9" vector-effect="non-scaling-stroke" d="
  M 568.81 0.00
  L 578.42 0.54"
/>
<path stroke="#7e4fb0" vector-effect="non-scaling-stroke" d="
  M 578.42 0.54
  L 578.98 32.70
  Q 578.99 33.14 578.55 33.14
  L 558.55 32.94"
/>
<path stroke="#9c5ae6" vector-effect="non-scaling-stroke" d="
  M 625.24 0.00
  L 624.87 32.82
  Q 624.86 33.38 624.36 33.60
  C 621.81 34.74 619.96 33.40 617.46 33.15"
/>
<path stroke="#6221a9" vector-effect="non-scaling-stroke" d="
  M 617.46 33.15
  L 622.60 33.02
  A 1.43 1.43 0.0 0 0 624.00 31.60
  Q 624.02 18.00 623.84 4.07
  Q 623.81 2.07 623.21 0.74
  A 0.92 0.90 -13.1 0 0 622.33 0.20
  L 618.24 0.42
  Q 617.66 0.45 617.21 0.82
  Q 614.67 2.88 612.14 1.02
  Q 611.68 0.67 611.09 0.66
  L 601.96 0.44
  A 1.17 1.16 -89.3 0 0 600.77 1.61
  L 600.79 27.83
  Q 600.79 28.32 600.51 28.71
  Q 599.70 29.86 600.04 31.21
  Q 600.14 31.62 600.52 31.78
  Q 601.35 32.12 601.73 33.29"
/>
<path stroke="#752fc0" vector-effect="non-scaling-stroke" d="
  M 601.73 33.29
  L 600.23 33.29"
/>
<path stroke="#9c5ae6" vector-effect="non-scaling-stroke" d="
  M 600.23 33.29
  L 585.82 33.00
  A 0.66 0.66 0.0 0 1 585.17 32.34
  L 585.28 0.97
  A 0.65 0.65 0.0 0 0 584.61 0.32
  L 578.42 0.54"
/>
<path stroke="#9555de" vector-effect="non-scaling-stroke" d="
  M 628.71 0.00
  L 629.16 26.51"
/>
<path stroke="#a676dd" vector-effect="non-scaling-stroke" d="
  M 629.16 26.51
  L 629.31 33.54
  Q 629.32 34.09 629.87 34.16
  Q 634.22 34.70 638.54 33.91
  Q 638.66 33.89 638.79 33.93
  L 639.48 34.16
  Q 639.79 34.26 640.10 34.28
  Q 643.73 34.48 647.37 34.45
  Q 647.58 34.45 647.53 34.66
  Q 647.48 34.84 647.39 35.00
  Q 647.17 35.37 647.60 35.42
  L 650.51 35.79
  A 0.81 0.80 40.4 0 1 650.64 37.36
  Q 648.40 38.00 645.81 37.44
  Q 641.81 36.59 634.49 38.52"
/>
<path stroke="#8661ad" vector-effect="non-scaling-stroke" d="
  M 634.49 38.52
  L 606.26 38.67"
/>
<path stroke="#a062e6" vector-effect="non-scaling-stroke" d="
  M 606.26 38.67
  C 599.83 37.71 592.97 39.86 585.83 37.94
  C 583.87 37.41 581.25 38.03 579.67 37.87
  Q 572.99 37.16 566.21 37.05"
/>
<path stroke="#925cc7" vector-effect="non-scaling-stroke" d="
  M 600.23 33.29
  L 609.82 33.24"
/>
<path stroke="#7e4fb0" vector-effect="non-scaling-stroke" d="
  M 609.82 33.24
  L 617.46 33.15"
/>
<path stroke="#5b1da1" vector-effect="non-scaling-stroke" d="
  M 646.55 0.00
  Q 645.22 0.56 645.24 1.82
  Q 645.40 12.63 645.02 23.46
  C 644.92 26.36 645.62 29.51 645.39 32.60"
/>
<path stroke="#8344ce" vector-effect="non-scaling-stroke" d="
  M 645.39 32.60
  Q 643.62 33.99 641.15 33.59
  C 637.39 32.97 634.54 33.16 631.06 32.88
  A 0.75 0.75 0.0 0 1 630.38 32.28
  L 629.16 26.51"
/>
<path stroke="#6c3e9f" vector-effect="non-scaling-stroke" d="
  M 667.77 0.00
  Q 669.15 1.47 668.57 3.93
  C 666.91 11.05 668.06 19.96 668.76 28.75
  C 668.98 31.55 666.96 32.95 664.25 32.99
  Q 654.67 33.14 645.39 32.60"
/>
<path stroke="#8344ce" vector-effect="non-scaling-stroke" d="
  M 675.70 0.00
  C 673.55 4.78 675.76 7.39 675.70 11.83
  Q 675.58 20.92 675.17 30.11
  A 2.34 2.34 0.0 0 0 677.43 32.55
  L 688.74 32.96"
/>
<path stroke="#6c3e9f" vector-effect="non-scaling-stroke" d="
  M 688.74 32.96
  Q 689.11 33.30 689.30 33.92
  Q 689.45 34.39 689.94 34.43
  C 695.67 34.98 709.93 36.64 714.33 32.72
  Q 714.71 32.38 714.73 31.87
  Q 714.90 25.97 714.34 20.09
  C 713.75 13.83 714.73 7.19 713.64 0.88
  Q 713.56 0.39 713.07 0.30
  L 711.54 0.00"
/>
<path stroke="#8344ce" vector-effect="non-scaling-stroke" d="
  M 720.82 0.00
  Q 721.89 14.84 721.21 30.01
  A 1.94 1.94 0.0 0 0 722.60 31.95
  Q 727.92 33.50 728.00 29.71"
/>
<path stroke="#74509d" vector-effect="non-scaling-stroke" d="
  M 681.39 42.00
  Q 684.60 41.34 686.18 39.39
  A 0.46 0.45 17.6 0 0 685.79 38.65
  C 677.07 39.25 667.09 38.47 659.85 38.50
  Q 653.43 38.52 647.02 38.49
  C 646.43 38.49 645.94 38.96 645.29 38.91
  Q 639.91 38.51 634.49 38.52"
/>
<path stroke="#5b1da1" vector-effect="non-scaling-stroke" d="
  M 690.95 0.00
  Q 689.66 6.09 689.27 13.00
  C 689.16 14.89 690.13 17.31 689.77 19.00
  Q 688.37 25.52 690.16 31.91
  Q 690.30 32.42 689.85 32.69
  Q 689.39 32.96 688.74 32.96"
/>
<path stroke="#582489" vector-effect="non-scaling-stroke" d="
  M 609.82 33.24
  Q 605.75 32.43 601.73 33.29"
/>
<path stroke="#582489" vector-effect="non-scaling-stroke" d="
  M 444.29 26.82
  Q 443.96 29.32 444.66 31.53"
/>
<path stroke="#6c3e9f" vector-effect="non-scaling-stroke" d="
  M 444.72 32.81
  L 425.98 33.07"
/>
<path stroke="#7e4fb0" vector-effect="non-scaling-stroke" d="
  M 425.98 33.07
  L 424.47 32.90"
/>
<path stroke="#582489" vector-effect="non-scaling-stroke" d="
  M 219.19 29.79
  L 219.58 32.94"
/>
<path stroke="#a676dd" vector-effect="non-scaling-stroke" d="
  M 441.00 34.20
  Q 440.94 33.09 439.50 33.25
  Q 436.53 33.57 425.98 33.07"
/>
<path stroke="#6e3ca6" vector-effect="non-scaling-stroke" d="
  M 606.26 38.67
  C 604.19 38.81 602.68 39.31 600.59 39.06
  Q 592.24 38.09 584.00 39.68
  A 0.44 0.44 0.0 0 0 584.02 40.55
  L 593.19 42.00"
/>
<path stroke="#7a37c0" vector-effect="non-scaling-stroke" d="
  M 319.94 42.00
  L 302.18 42.00"
/>
</g>
<path fill="#9f5aec" d="
  M 0.00 0.00
  L 15.61 0.00
  L 15.54 31.21
  Q 15.54 31.69 15.90 32.02
  Q 16.41 32.49 16.31 33.19
  Q 16.26 33.58 15.93 33.78
  Q 14.99 34.37 15.62 34.82
  Q 14.36 37.67 14.68 39.83
  Q 12.32 40.34 9.77 40.49
  C 6.67 40.69 3.41 41.93 0.00 41.57
  L 0.00 0.00
  Z"
/>
<path fill="#6b31a0" d="
  M 15.61 0.00
  L 28.04 0.00
  L 40.16 1.36
  Q 40.65 2.92 40.64 4.31
  Q 40.51 17.58 40.21 31.27
  Q 40.16 33.54 37.90 33.37
  L 31.03 32.84
  Q 30.57 32.81 30.16 33.03
  Q 29.26 33.50 28.74 33.43
  Q 21.70 32.47 15.62 34.82
  Q 14.99 34.37 15.93 33.78
  Q 16.26 33.58 16.31 33.19
  Q 16.41 32.49 15.90 32.02
  Q 15.54 31.69 15.54 31.21
  L 15.61 0.00
  Z"
/>
<path fill="#883cdf" d="
  M 28.04 0.00
  L 68.83 0.00
  L 61.60 0.27
  A 0.54 0.54 0.0 0 0 61.08 0.84
  Q 61.81 15.92 61.32 30.92
  Q 61.28 32.26 61.98 32.68
  Q 62.70 33.12 64.05 33.25
  L 46.41 33.46
  A 1.23 1.23 0.0 0 1 45.17 32.22
  L 45.53 1.00
  Q 45.54 0.53 45.08 0.45
  Q 42.16 -0.10 40.16 1.36
  L 28.04 0.00
  Z"
/>
<path fill="#602893" d="
  M 68.83 0.00
  L 81.79 0.00
  Q 82.94 0.59 84.69 0.49
  L 84.95 32.49
  A 0.56 0.55 -1.0 0 1 84.40 33.05
  L 64.05 33.25
  Q 62.70 33.12 61.98 32.68
  Q 61.28 32.26 61.32 30.92
  Q 61.81 15.92 61.08 0.84
  A 0.54 0.54 0.0 0 1 61.60 0.27
  L 68.83 0.00
  Z"
/>
<path fill="#883cdf" d="
  M 81.79 0.00
  L 108.59 0.00
  L 107.18 0.28
  Q 106.67 0.38 106.68 0.89
  C 106.72 9.69 107.40 18.82 106.61 27.53
  Q 106.32 30.80 108.61 33.15
  L 91.62 32.87
  Q 91.08 32.86 91.07 32.33
  Q 90.82 23.48 91.14 14.64
  C 91.27 10.83 90.72 5.64 91.42 1.06
  Q 91.50 0.52 90.96 0.52
  L 84.69 0.49
  Q 82.94 0.59 81.79 0.00
  Z"
/>
<path fill="#602893" d="
  M 108.59 0.00
  L 111.27 0.00
  Q 113.93 0.59 116.61 0.00
  L 118.04 0.00
  L 120.26 0.65
  Q 120.75 0.79 121.24 0.64
  Q 126.27 -0.92 130.36 3.38
  L 130.17 31.57
  A 1.47 1.47 0.0 0 1 128.71 33.03
  L 108.61 33.15
  Q 106.32 30.80 106.61 27.53
  C 107.40 18.82 106.72 9.69 106.68 0.89
  Q 106.67 0.38 107.18 0.28
  L 108.59 0.00
  Z"
/>
<path fill="#883cdf" d="
  M 111.27 0.00
  L 116.61 0.00
  Q 113.93 0.59 111.27 0.00
  Z"
/>
<path fill="#883cdf" d="
  M 118.04 0.00
  L 158.33 0.00
  L 151.42 0.45
  Q 150.87 0.48 150.88 1.04
  L 151.49 33.37
  L 136.26 33.21
  A 1.34 1.33 0.9 0 1 134.94 31.86
  L 135.38 1.23
  Q 135.39 0.64 134.81 0.58
  L 130.82 0.17
  Q 130.28 0.12 130.29 0.66
  L 130.36 3.38
  Q 126.27 -0.92 121.24 0.64
  Q 120.75 0.79 120.26 0.65
  L 118.04 0.00
  Z"
/>
<path fill="#602893" d="
  M 158.33 0.00
  L 169.30 0.00
  L 174.98 1.16
  L 174.91 32.13
  Q 174.91 32.72 174.33 32.82
  Q 169.15 33.71 163.77 33.07
  Q 159.92 32.29 155.94 33.06
  L 151.49 33.37
  L 150.88 1.04
  Q 150.87 0.48 151.42 0.45
  L 158.33 0.00
  Z"
/>
<path fill="#883cdf" d="
  M 169.30 0.00
  L 195.37 0.00
  L 196.64 30.73
  L 197.54 31.72
  Q 197.92 32.13 197.56 32.56
  L 196.96 33.28
  L 181.88 33.21
  Q 179.88 33.21 179.91 31.21
  L 180.28 0.89
  Q 180.29 0.38 179.78 0.32
  Q 176.90 -0.08 174.98 1.16
  L 169.30 0.00
  Z"
/>
<path fill="#602893" d="
  M 195.37 0.00
  L 220.81 0.00
  Q 220.79 0.15 220.76 0.29
  Q 219.20 -0.02 219.20 1.00
  Q 219.18 14.74 219.56 28.44
  Q 219.14 28.61 219.19 29.79
  L 218.99 27.76
  Q 218.95 27.28 218.47 27.25
  Q 216.81 27.15 214.25 27.49
  Q 208.26 28.29 200.57 27.91
  Q 197.08 27.73 196.64 30.73
  L 195.37 0.00
  Z"
/>
<path fill="#883cdf" d="
  M 220.81 0.00
  L 241.18 0.00
  Q 240.43 14.80 241.09 31.49
  Q 241.13 32.39 242.03 32.46
  Q 251.35 33.10 261.18 32.85
  Q 263.13 32.80 264.51 32.35
  A 0.76 0.75 -10.7 0 0 265.03 31.60
  C 264.92 28.96 264.09 26.36 264.04 23.90
  Q 263.77 9.64 263.99 4.24
  Q 264.13 0.73 261.30 0.00
  L 311.61 0.00
  Q 309.80 4.28 311.04 9.84
  C 312.15 14.83 311.15 20.75 312.06 24.24
  C 314.61 34.08 307.80 36.47 299.58 35.04
  Q 299.08 34.95 298.64 35.17
  Q 297.34 35.81 296.35 34.64
  A 0.81 0.80 -19.0 0 0 295.72 34.34
  L 280.43 34.16
  Q 280.00 34.15 279.58 34.25
  Q 277.30 34.82 274.94 34.14
  Q 274.48 34.00 274.02 34.11
  Q 272.23 34.51 270.44 33.95
  Q 269.91 33.78 269.83 33.23
  C 269.07 28.16 269.33 22.08 269.21 17.91
  Q 268.99 10.44 270.09 2.78
  A 1.61 1.61 0.0 0 0 268.23 0.96
  L 266.27 1.29
  Q 264.83 1.53 264.86 2.99
  L 265.35 31.94
  A 2.38 2.37 4.6 0 1 262.56 34.31
  C 260.34 33.92 258.37 34.92 256.13 34.66
  Q 241.54 32.93 227.09 32.94
  A 1.34 1.33 -3.1 0 1 225.76 31.75
  C 224.68 21.88 225.78 10.94 225.85 0.89
  A 0.54 0.54 0.0 0 0 225.32 0.34
  L 220.76 0.29
  Q 220.79 0.15 220.81 0.00
  Z
  M 286.43 31.17
  C 287.92 33.15 291.80 33.17 294.00 32.92
  Q 300.35 32.22 305.54 32.28
  A 3.49 3.49 0.0 0 0 309.07 28.54
  C 308.61 22.15 308.56 15.57 309.16 8.89
  Q 309.51 4.98 308.34 0.96
  Q 308.17 0.38 307.56 0.38
  L 287.44 0.47
  Q 286.92 0.48 286.57 0.87
  C 284.50 3.20 285.78 11.38 285.78 14.98
  C 285.78 18.67 283.92 27.85 286.43 31.17
  Z"
/>
<path fill="#602893" d="
  M 241.18 0.00
  L 261.30 0.00
  Q 264.13 0.73 263.99 4.24
  Q 263.77 9.64 264.04 23.90
  C 264.09 26.36 264.92 28.96 265.03 31.60
  A 0.76 0.75 -10.7 0 1 264.51 32.35
  Q 263.13 32.80 261.18 32.85
  Q 251.35 33.10 242.03 32.46
  Q 241.13 32.39 241.09 31.49
  Q 240.43 14.80 241.18 0.00
  Z"
/>
<path fill="#cdaff4" d="
  M 311.61 0.00
  L 313.65 0.00
  Q 315.57 3.05 315.04 6.81
  C 314.07 13.74 315.72 20.74 314.16 27.41
  Q 313.61 29.79 314.31 31.80
  A 3.45 3.45 0.0 0 0 317.31 34.11
  Q 327.41 34.88 338.80 35.17
  C 342.49 35.26 346.53 34.14 350.49 34.05
  C 352.60 33.99 353.03 34.91 354.98 32.89
  L 354.38 0.71
  Q 356.65 -0.21 359.61 0.55
  Q 360.12 0.68 360.13 1.21
  L 360.52 32.02
  A 0.83 0.82 0.4 0 0 361.33 32.83
  L 377.02 33.10
  L 386.97 33.28
  Q 387.43 33.29 387.68 33.67
  L 387.86 33.95
  Q 388.11 34.34 388.57 34.30
  L 398.57 33.52
  Q 398.95 33.53 399.20 33.16
  Q 399.63 33.35 399.85 33.22
  Q 400.04 33.12 400.04 32.72
  Q 400.14 21.19 399.99 9.65
  C 399.96 7.40 400.92 4.61 399.97 1.96
  A 1.09 1.09 0.0 0 1 400.99 0.50
  L 403.74 0.50
  Q 404.47 0.50 404.48 1.24
  L 404.93 32.66
  Q 404.93 33.04 405.24 33.27
  Q 405.66 33.58 406.09 33.47
  L 419.60 34.45
  Q 420.08 34.49 420.47 34.23
  C 421.88 33.31 422.63 34.07 423.73 34.10
  Q 432.36 34.34 441.00 34.20
  Q 442.16 34.01 443.30 33.92
  Q 445.01 33.77 444.72 32.81
  Q 444.81 31.70 444.66 31.53
  L 444.46 26.00
  L 444.23 1.20
  Q 445.68 -0.50 449.39 0.44
  Q 449.83 0.55 449.85 1.00
  Q 450.82 16.82 450.23 32.65
  Q 450.21 33.11 450.66 33.11
  L 469.06 33.16
  L 489.00 32.86
  A 1.47 1.47 0.0 0 0 490.45 31.26
  C 490.31 29.61 489.74 27.99 489.73 26.23
  Q 489.64 13.83 489.74 1.10
  Q 490.84 -0.56 493.40 0.45
  Q 493.85 0.63 493.79 1.10
  C 493.23 5.03 493.63 9.57 493.47 12.89
  Q 492.97 22.84 494.03 32.79
  Q 494.08 33.30 494.58 33.44
  Q 497.56 34.26 500.60 34.14
  C 511.80 33.70 522.78 34.54 534.00 33.76
  Q 535.18 33.68 534.72 32.79
  L 534.70 31.75
  C 535.51 28.81 534.90 25.56 534.93 23.33
  Q 535.03 13.27 534.86 3.13
  Q 534.83 1.11 535.55 0.51
  Q 536.62 -0.38 538.99 0.54
  A 0.56 0.56 0.0 0 1 539.20 1.44
  Q 538.40 2.30 538.99 3.30
  Q 539.27 3.76 539.26 4.29
  Q 539.02 17.68 539.22 31.08
  C 539.25 33.16 540.34 34.52 542.51 33.99
  C 546.46 33.01 550.48 33.92 554.50 34.06
  L 568.41 34.42
  Q 569.00 34.44 569.00 35.03
  L 569.00 36.23
  A 0.58 0.58 0.0 0 1 568.29 36.80
  Q 567.11 36.53 566.21 37.05
  C 557.46 36.09 549.08 36.46 540.03 36.01
  Q 534.82 35.76 528.99 36.49
  Q 521.48 37.43 512.43 36.34
  C 507.17 35.70 501.36 37.80 495.97 36.34
  C 492.98 35.53 490.18 36.80 487.67 36.81
  Q 426.79 37.15 407.06 36.98
  Q 405.60 36.97 402.16 36.11
  C 400.66 35.74 399.02 36.77 397.46 36.81
  Q 374.58 37.37 351.70 38.03
  C 346.53 38.18 338.58 37.55 331.90 38.39
  Q 330.33 38.58 328.16 38.14
  C 325.85 37.67 323.45 38.08 321.55 38.14
  Q 316.08 38.32 310.60 38.58
  Q 310.21 38.60 309.93 38.44
  Q 309.63 38.27 309.35 37.98
  A 1.16 1.11 -19.8 0 0 308.58 37.64
  Q 304.77 37.54 300.97 37.50
  Q 298.45 37.47 293.50 38.24
  C 288.85 38.96 283.17 38.40 279.58 38.50
  Q 255.46 39.18 231.33 38.50
  Q 230.84 38.48 230.39 38.70
  Q 229.73 39.01 229.18 38.89
  Q 223.70 37.64 218.16 38.06
  C 202.39 39.28 187.09 37.43 171.44 38.31
  Q 154.00 39.29 140.00 38.40
  Q 132.69 37.93 127.08 38.25
  C 116.21 38.87 105.44 38.97 94.56 38.92
  C 79.91 38.85 63.34 39.20 47.68 38.60
  C 44.42 38.47 40.42 39.03 36.77 38.90
  Q 25.77 38.51 14.68 39.83
  Q 14.36 37.67 15.62 34.82
  Q 21.70 32.47 28.74 33.43
  Q 29.26 33.50 30.16 33.03
  Q 30.57 32.81 31.03 32.84
  L 37.90 33.37
  Q 40.16 33.54 40.21 31.27
  Q 40.51 17.58 40.64 4.31
  Q 40.65 2.92 40.16 1.36
  Q 42.16 -0.10 45.08 0.45
  Q 45.54 0.53 45.53 1.00
  L 45.17 32.22
  A 1.23 1.23 0.0 0 0 46.41 33.46
  L 64.05 33.25
  L 84.40 33.05
  A 0.56 0.55 -1.0 0 0 84.95 32.49
  L 84.69 0.49
  L 90.96 0.52
  Q 91.50 0.52 91.42 1.06
  C 90.72 5.64 91.27 10.83 91.14 14.64
  Q 90.82 23.48 91.07 32.33
  Q 91.08 32.86 91.62 32.87
  L 108.61 33.15
  L 128.71 33.03
  A 1.47 1.47 0.0 0 0 130.17 31.57
  L 130.36 3.38
  L 130.29 0.66
  Q 130.28 0.12 130.82 0.17
  L 134.81 0.58
  Q 135.39 0.64 135.38 1.23
  L 134.94 31.86
  A 1.34 1.33 0.9 0 0 136.26 33.21
  L 151.49 33.37
  L 155.94 33.06
  L 163.77 33.07
  Q 169.15 33.71 174.33 32.82
  Q 174.91 32.72 174.91 32.13
  L 174.98 1.16
  Q 176.90 -0.08 179.78 0.32
  Q 180.29 0.38 180.28 0.89
  L 179.91 31.21
  Q 179.88 33.21 181.88 33.21
  L 196.96 33.28
  L 219.58 32.94
  L 219.56 28.44
  Q 219.18 14.74 219.20 1.00
  Q 219.20 -0.02 220.76 0.29
  L 225.32 0.34
  A 0.54 0.54 0.0 0 1 225.85 0.89
  C 225.78 10.94 224.68 21.88 225.76 31.75
  A 1.34 1.33 -3.1 0 0 227.09 32.94
  Q 241.54 32.93 256.13 34.66
  C 258.37 34.92 260.34 33.92 262.56 34.31
  A 2.38 2.37 4.6 0 0 265.35 31.94
  L 264.86 2.99
  Q 264.83 1.53 266.27 1.29
  L 268.23 0.96
  A 1.61 1.61 0.0 0 1 270.09 2.78
  Q 268.99 10.44 269.21 17.91
  C 269.33 22.08 269.07 28.16 269.83 33.23
  Q 269.91 33.78 270.44 33.95
  Q 272.23 34.51 274.02 34.11
  Q 274.48 34.00 274.94 34.14
  Q 277.30 34.82 279.58 34.25
  Q 280.00 34.15 280.43 34.16
  L 295.72 34.34
  A 0.81 0.80 -19.0 0 1 296.35 34.64
  Q 297.34 35.81 298.64 35.17
  Q 299.08 34.95 299.58 35.04
  C 307.80 36.47 314.61 34.08 312.06 24.24
  C 311.15 20.75 312.15 14.83 311.04 9.84
  Q 309.80 4.28 311.61 0.00
  Z"
/>
<path fill="#883cdf" d="
  M 313.65 0.00
  L 343.15 0.00
  Q 336.14 1.47 333.25 0.62
  Q 330.07 -0.31 330.14 2.49
  Q 330.49 15.23 331.09 27.97
  Q 331.11 28.46 330.90 28.89
  Q 329.93 30.90 331.53 32.50
  Q 331.83 32.80 332.26 32.81
  L 354.98 32.89
  C 353.03 34.91 352.60 33.99 350.49 34.05
  C 346.53 34.14 342.49 35.26 338.80 35.17
  Q 327.41 34.88 317.31 34.11
  A 3.45 3.45 0.0 0 1 314.31 31.80
  Q 313.61 29.79 314.16 27.41
  C 315.72 20.74 314.07 13.74 315.04 6.81
  Q 315.57 3.05 313.65 0.00
  Z"
/>
<path fill="#602893" d="
  M 343.15 0.00
  L 348.54 0.00
  L 354.38 0.71
  L 354.98 32.89
  L 332.26 32.81
  Q 331.83 32.80 331.53 32.50
  Q 329.93 30.90 330.90 28.89
  Q 331.11 28.46 331.09 27.97
  Q 330.49 15.23 330.14 2.49
  Q 330.07 -0.31 333.25 0.62
  Q 336.14 1.47 343.15 0.00
  Z"
/>
<path fill="#7f2cdf" d="
  M 348.54 0.00
  L 375.98 0.00
  Q 374.35 6.43 375.01 14.29
  C 375.08 15.16 375.57 16.00 375.63 16.82
  Q 376.19 24.36 375.71 31.91
  Q 375.69 32.29 376.01 32.50
  L 376.29 32.69
  Q 376.18 33.02 377.02 33.10
  L 361.33 32.83
  A 0.83 0.82 0.4 0 1 360.52 32.02
  L 360.13 1.21
  Q 360.12 0.68 359.61 0.55
  Q 356.65 -0.21 354.38 0.71
  L 348.54 0.00
  Z"
/>
<path fill="#4d1b7e" d="
  M 375.98 0.00
  L 392.49 0.00
  Q 398.13 -0.28 399.06 2.92
  Q 400.14 6.62 399.31 11.00
  Q 398.54 15.06 399.19 29.67
  Q 399.21 30.15 399.44 30.58
  Q 400.18 31.92 399.20 33.16
  Q 398.95 33.53 398.57 33.52
  Q 398.39 33.32 398.17 33.18
  Q 397.97 33.06 397.68 33.06
  Q 386.99 33.01 376.29 32.69
  L 376.01 32.50
  Q 375.69 32.29 375.71 31.91
  Q 376.19 24.36 375.63 16.82
  C 375.57 16.00 375.08 15.16 375.01 14.29
  Q 374.35 6.43 375.98 0.00
  Z"
/>
<path fill="#7f2cdf" d="
  M 392.49 0.00
  L 423.06 0.00
  L 420.93 0.35
  A 0.57 0.57 0.0 0 0 420.47 1.03
  C 422.27 9.68 420.71 20.32 420.92 29.24
  Q 420.93 29.71 421.14 30.13
  Q 421.61 31.04 421.43 32.08
  Q 421.35 32.56 421.81 32.71
  L 422.80 33.03
  L 406.09 33.47
  Q 405.66 33.58 405.24 33.27
  Q 404.93 33.04 404.93 32.66
  L 404.48 1.24
  Q 404.47 0.50 403.74 0.50
  L 400.99 0.50
  A 1.09 1.09 0.0 0 0 399.97 1.96
  C 400.92 4.61 399.96 7.40 399.99 9.65
  Q 400.14 21.19 400.04 32.72
  Q 400.04 33.12 399.85 33.22
  Q 399.63 33.35 399.20 33.16
  Q 400.18 31.92 399.44 30.58
  Q 399.21 30.15 399.19 29.67
  Q 398.54 15.06 399.31 11.00
  Q 400.14 6.62 399.06 2.92
  Q 398.13 -0.28 392.49 0.00
  Z"
/>
<path fill="#4d1b7e" d="
  M 423.06 0.00
  L 442.54 0.00
  Q 443.81 0.44 444.23 1.20
  L 444.46 26.00
  Q 444.08 26.18 444.29 26.82
  L 442.94 26.13
  A 1.56 1.54 -30.0 0 0 442.37 25.98
  Q 441.23 25.89 440.96 26.90
  A 0.97 0.96 -86.2 0 1 440.17 27.60
  C 434.99 28.38 429.75 27.26 424.32 28.37
  A 2.33 2.33 0.0 0 0 422.45 30.67
  Q 422.45 32.99 424.47 32.90
  L 422.80 33.03
  L 421.81 32.71
  Q 421.35 32.56 421.43 32.08
  Q 421.61 31.04 421.14 30.13
  Q 420.93 29.71 420.92 29.24
  C 420.71 20.32 422.27 9.68 420.47 1.03
  A 0.57 0.57 0.0 0 1 420.93 0.35
  L 423.06 0.00
  Z"
/>
<path fill="#7f2cdf" d="
  M 442.54 0.00
  L 466.18 0.00
  Q 466.97 5.17 466.36 10.03
  C 465.42 17.46 466.19 24.60 466.68 32.03
  Q 466.74 32.94 469.06 33.16
  L 450.66 33.11
  Q 450.21 33.11 450.23 32.65
  Q 450.82 16.82 449.85 1.00
  Q 449.83 0.55 449.39 0.44
  Q 445.68 -0.50 444.23 1.20
  Q 443.81 0.44 442.54 0.00
  Z"
/>
<path fill="#4d1b7e" d="
  M 466.18 0.00
  L 484.54 0.00
  C 486.26 0.61 488.36 -0.37 489.74 1.10
  Q 489.64 13.83 489.73 26.23
  C 489.74 27.99 490.31 29.61 490.45 31.26
  A 1.47 1.47 0.0 0 1 489.00 32.86
  L 469.06 33.16
  Q 466.74 32.94 466.68 32.03
  C 466.19 24.60 465.42 17.46 466.36 10.03
  Q 466.97 5.17 466.18 0.00
  Z"
/>
<path fill="#7f2cdf" d="
  M 484.54 0.00
  L 512.82 0.00
  Q 512.03 0.33 510.96 0.25
  A 0.48 0.47 87.5 0 0 510.46 0.80
  C 512.03 10.69 511.09 21.60 511.08 31.24
  Q 511.08 33.03 512.87 33.01
  L 534.72 32.79
  Q 535.18 33.68 534.00 33.76
  C 522.78 34.54 511.80 33.70 500.60 34.14
  Q 497.56 34.26 494.58 33.44
  Q 494.08 33.30 494.03 32.79
  Q 492.97 22.84 493.47 12.89
  C 493.63 9.57 493.23 5.03 493.79 1.10
  Q 493.85 0.63 493.40 0.45
  Q 490.84 -0.56 489.74 1.10
  C 488.36 -0.37 486.26 0.61 484.54 0.00
  Z"
/>
<path fill="#4d1b7e" d="
  M 512.82 0.00
  L 530.80 0.00
  Q 534.73 -0.68 534.23 7.25
  Q 533.67 16.10 533.91 24.97
  C 533.98 27.33 533.50 29.28 534.70 31.75
  L 534.72 32.79
  L 512.87 33.01
  Q 511.08 33.03 511.08 31.24
  C 511.09 21.60 512.03 10.69 510.46 0.80
  A 0.48 0.47 87.5 0 1 510.96 0.25
  Q 512.03 0.33 512.82 0.00
  Z"
/>
<path fill="#7f2cdf" d="
  M 530.80 0.00
  L 555.95 0.00
  Q 556.30 14.15 555.76 28.34
  C 555.71 29.65 556.40 30.41 556.24 31.88
  Q 556.19 32.35 556.65 32.46
  L 558.55 32.94
  Q 556.00 33.19 554.50 34.06
  C 550.48 33.92 546.46 33.01 542.51 33.99
  C 540.34 34.52 539.25 33.16 539.22 31.08
  Q 539.02 17.68 539.26 4.29
  Q 539.27 3.76 538.99 3.30
  Q 538.40 2.30 539.20 1.44
  A 0.56 0.56 0.0 0 0 538.99 0.54
  Q 536.62 -0.38 535.55 0.51
  Q 534.83 1.11 534.86 3.13
  Q 535.03 13.27 534.93 23.33
  C 534.90 25.56 535.51 28.81 534.70 31.75
  C 533.50 29.28 533.98 27.33 533.91 24.97
  Q 533.67 16.10 534.23 7.25
  Q 534.73 -0.68 530.80 0.00
  Z"
/>
<path fill="#441672" d="
  M 555.95 0.00
  L 568.81 0.00
  L 578.42 0.54
  L 578.98 32.70
  Q 578.99 33.14 578.55 33.14
  L 558.55 32.94
  L 556.65 32.46
  Q 556.19 32.35 556.24 31.88
  C 556.40 30.41 555.71 29.65 555.76 28.34
  Q 556.30 14.15 555.95 0.00
  Z"
/>
<path fill="#7f2cdf" d="
  M 568.81 0.00
  L 625.24 0.00
  L 624.87 32.82
  Q 624.86 33.38 624.36 33.60
  C 621.81 34.74 619.96 33.40 617.46 33.15
  L 622.60 33.02
  A 1.43 1.43 0.0 0 0 624.00 31.60
  Q 624.02 18.00 623.84 4.07
  Q 623.81 2.07 623.21 0.74
  A 0.92 0.90 -13.1 0 0 622.33 0.20
  L 618.24 0.42
  Q 617.66 0.45 617.21 0.82
  Q 614.67 2.88 612.14 1.02
  Q 611.68 0.67 611.09 0.66
  L 601.96 0.44
  A 1.17 1.16 -89.3 0 0 600.77 1.61
  L 600.79 27.83
  Q 600.79 28.32 600.51 28.71
  Q 599.70 29.86 600.04 31.21
  Q 600.14 31.62 600.52 31.78
  Q 601.35 32.12 601.73 33.29
  L 600.23 33.29
  L 585.82 33.00
  A 0.66 0.66 0.0 0 1 585.17 32.34
  L 585.28 0.97
  A 0.65 0.65 0.0 0 0 584.61 0.32
  L 578.42 0.54
  L 568.81 0.00
  Z"
/>
<path fill="#b887ed" d="
  M 625.24 0.00
  L 628.71 0.00
  L 629.16 26.51
  L 629.31 33.54
  Q 629.32 34.09 629.87 34.16
  Q 634.22 34.70 638.54 33.91
  Q 638.66 33.89 638.79 33.93
  L 639.48 34.16
  Q 639.79 34.26 640.10 34.28
  Q 643.73 34.48 647.37 34.45
  Q 647.58 34.45 647.53 34.66
  Q 647.48 34.84 647.39 35.00
  Q 647.17 35.37 647.60 35.42
  L 650.51 35.79
  A 0.81 0.80 40.4 0 1 650.64 37.36
  Q 648.40 38.00 645.81 37.44
  Q 641.81 36.59 634.49 38.52
  L 606.26 38.67
  C 599.83 37.71 592.97 39.86 585.83 37.94
  C 583.87 37.41 581.25 38.03 579.67 37.87
  Q 572.99 37.16 566.21 37.05
  Q 567.11 36.53 568.29 36.80
  A 0.58 0.58 0.0 0 0 569.00 36.23
  L 569.00 35.03
  Q 569.00 34.44 568.41 34.42
  L 554.50 34.06
  Q 556.00 33.19 558.55 32.94
  L 578.55 33.14
  Q 578.99 33.14 578.98 32.70
  L 578.42 0.54
  L 584.61 0.32
  A 0.65 0.65 0.0 0 1 585.28 0.97
  L 585.17 32.34
  A 0.66 0.66 0.0 0 0 585.82 33.00
  L 600.23 33.29
  L 609.82 33.24
  L 617.46 33.15
  C 619.96 33.40 621.81 34.74 624.36 33.60
  Q 624.86 33.38 624.87 32.82
  L 625.24 0.00
  Z"
/>
<path fill="#7223cf" d="
  M 628.71 0.00
  L 646.55 0.00
  Q 645.22 0.56 645.24 1.82
  Q 645.40 12.63 645.02 23.46
  C 644.92 26.36 645.62 29.51 645.39 32.60
  Q 643.62 33.99 641.15 33.59
  C 637.39 32.97 634.54 33.16 631.06 32.88
  A 0.75 0.75 0.0 0 1 630.38 32.28
  L 629.16 26.51
  L 628.71 0.00
  Z"
/>
<path fill="#441672" d="
  M 646.55 0.00
  L 667.77 0.00
  Q 669.15 1.47 668.57 3.93
  C 666.91 11.05 668.06 19.96 668.76 28.75
  C 668.98 31.55 666.96 32.95 664.25 32.99
  Q 654.67 33.14 645.39 32.60
  C 645.62 29.51 644.92 26.36 645.02 23.46
  Q 645.40 12.63 645.24 1.82
  Q 645.22 0.56 646.55 0.00
  Z"
/>
<path fill="#9465cc" d="
  M 667.77 0.00
  L 675.70 0.00
  C 673.55 4.78 675.76 7.39 675.70 11.83
  Q 675.58 20.92 675.17 30.11
  A 2.34 2.34 0.0 0 0 677.43 32.55
  L 688.74 32.96
  Q 689.11 33.30 689.30 33.92
  Q 689.45 34.39 689.94 34.43
  C 695.67 34.98 709.93 36.64 714.33 32.72
  Q 714.71 32.38 714.73 31.87
  Q 714.90 25.97 714.34 20.09
  C 713.75 13.83 714.73 7.19 713.64 0.88
  Q 713.56 0.39 713.07 0.30
  L 711.54 0.00
  L 720.82 0.00
  Q 721.89 14.84 721.21 30.01
  A 1.94 1.94 0.0 0 0 722.60 31.95
  Q 727.92 33.50 728.00 29.71
  L 728.00 42.00
  L 681.39 42.00
  Q 684.60 41.34 686.18 39.39
  A 0.46 0.45 17.6 0 0 685.79 38.65
  C 677.07 39.25 667.09 38.47 659.85 38.50
  Q 653.43 38.52 647.02 38.49
  C 646.43 38.49 645.94 38.96 645.29 38.91
  Q 639.91 38.51 634.49 38.52
  Q 641.81 36.59 645.81 37.44
  Q 648.40 38.00 650.64 37.36
  A 0.81 0.80 40.4 0 0 650.51 35.79
  L 647.60 35.42
  Q 647.17 35.37 647.39 35.00
  Q 647.48 34.84 647.53 34.66
  Q 647.58 34.45 647.37 34.45
  Q 643.73 34.48 640.10 34.28
  Q 639.79 34.26 639.48 34.16
  L 638.79 33.93
  Q 638.66 33.89 638.54 33.91
  Q 634.22 34.70 629.87 34.16
  Q 629.32 34.09 629.31 33.54
  L 629.16 26.51
  L 630.38 32.28
  A 0.75 0.75 0.0 0 0 631.06 32.88
  C 634.54 33.16 637.39 32.97 641.15 33.59
  Q 643.62 33.99 645.39 32.60
  Q 654.67 33.14 664.25 32.99
  C 666.96 32.95 668.98 31.55 668.76 28.75
  C 668.06 19.96 666.91 11.05 668.57 3.93
  Q 669.15 1.47 667.77 0.00
  Z"
/>
<path fill="#7223cf" d="
  M 675.70 0.00
  L 690.95 0.00
  Q 689.66 6.09 689.27 13.00
  C 689.16 14.89 690.13 17.31 689.77 19.00
  Q 688.37 25.52 690.16 31.91
  Q 690.30 32.42 689.85 32.69
  Q 689.39 32.96 688.74 32.96
  L 677.43 32.55
  A 2.34 2.34 0.0 0 1 675.17 30.11
  Q 675.58 20.92 675.70 11.83
  C 675.76 7.39 673.55 4.78 675.70 0.00
  Z"
/>
<path fill="#441672" d="
  M 690.95 0.00
  L 711.54 0.00
  L 713.07 0.30
  Q 713.56 0.39 713.64 0.88
  C 714.73 7.19 713.75 13.83 714.34 20.09
  Q 714.90 25.97 714.73 31.87
  Q 714.71 32.38 714.33 32.72
  C 709.93 36.64 695.67 34.98 689.94 34.43
  Q 689.45 34.39 689.30 33.92
  Q 689.11 33.30 688.74 32.96
  Q 689.39 32.96 689.85 32.69
  Q 690.30 32.42 690.16 31.91
  Q 688.37 25.52 689.77 19.00
  C 690.13 17.31 689.16 14.89 689.27 13.00
  Q 689.66 6.09 690.95 0.00
  Z"
/>
<path fill="#7223cf" d="
  M 720.82 0.00
  L 728.00 0.00
  L 728.00 29.71
  Q 727.92 33.50 722.60 31.95
  A 1.94 1.94 0.0 0 1 721.21 30.01
  Q 721.89 14.84 720.82 0.00
  Z"
/>
<path fill="#602893" d="
  M 286.43 31.17
  C 283.92 27.85 285.78 18.67 285.78 14.98
  C 285.78 11.38 284.50 3.20 286.57 0.87
  Q 286.92 0.48 287.44 0.47
  L 307.56 0.38
  Q 308.17 0.38 308.34 0.96
  Q 309.51 4.98 309.16 8.89
  C 308.56 15.57 308.61 22.15 309.07 28.54
  A 3.49 3.49 0.0 0 1 305.54 32.28
  Q 300.35 32.22 294.00 32.92
  C 291.80 33.17 287.92 33.15 286.43 31.17
  Z"
/>
<path fill="#441672" d="
  M 617.46 33.15
  L 609.82 33.24
  Q 605.75 32.43 601.73 33.29
  Q 601.35 32.12 600.52 31.78
  Q 600.14 31.62 600.04 31.21
  Q 599.70 29.86 600.51 28.71
  Q 600.79 28.32 600.79 27.83
  L 600.77 1.61
  A 1.17 1.16 -89.3 0 1 601.96 0.44
  L 611.09 0.66
  Q 611.68 0.67 612.14 1.02
  Q 614.67 2.88 617.21 0.82
  Q 617.66 0.45 618.24 0.42
  L 622.33 0.20
  A 0.92 0.90 -13.1 0 1 623.21 0.74
  Q 623.81 2.07 623.84 4.07
  Q 624.02 18.00 624.00 31.60
  A 1.43 1.43 0.0 0 1 622.60 33.02
  L 617.46 33.15
  Z"
/>
<path fill="#441672" d="
  M 444.29 26.82
  Q 443.96 29.32 444.66 31.53
  Q 444.81 31.70 444.72 32.81
  L 425.98 33.07
  L 424.47 32.90
  Q 422.45 32.99 422.45 30.67
  A 2.33 2.33 0.0 0 1 424.32 28.37
  C 429.75 27.26 434.99 28.38 440.17 27.60
  A 0.97 0.96 -86.2 0 0 440.96 26.90
  Q 441.23 25.89 442.37 25.98
  A 1.56 1.54 -30.0 0 1 442.94 26.13
  L 444.29 26.82
  Z"
/>
<path fill="#6b31a0" d="
  M 444.46 26.00
  L 444.66 31.53
  Q 443.96 29.32 444.29 26.82
  Q 444.08 26.18 444.46 26.00
  Z"
/>
<path fill="#441672" d="
  M 219.19 29.79
  L 219.58 32.94
  L 196.96 33.28
  L 197.56 32.56
  Q 197.92 32.13 197.54 31.72
  L 196.64 30.73
  Q 197.08 27.73 200.57 27.91
  Q 208.26 28.29 214.25 27.49
  Q 216.81 27.15 218.47 27.25
  Q 218.95 27.28 218.99 27.76
  L 219.19 29.79
  Z"
/>
<path fill="#6b31a0" d="
  M 219.56 28.44
  L 219.58 32.94
  L 219.19 29.79
  Q 219.14 28.61 219.56 28.44
  Z"
/>
<path fill="#9465cc" d="
  M 444.72 32.81
  Q 445.01 33.77 443.30 33.92
  Q 442.16 34.01 441.00 34.20
  Q 440.94 33.09 439.50 33.25
  Q 436.53 33.57 425.98 33.07
  L 444.72 32.81
  Z"
/>
<path fill="#6b31a0" d="
  M 163.77 33.07
  L 155.94 33.06
  Q 159.92 32.29 163.77 33.07
  Z"
/>
<path fill="#b887ed" d="
  M 376.29 32.69
  Q 386.99 33.01 397.68 33.06
  Q 397.97 33.06 398.17 33.18
  Q 398.39 33.32 398.57 33.52
  L 388.57 34.30
  Q 388.11 34.34 387.86 33.95
  L 387.68 33.67
  Q 387.43 33.29 386.97 33.28
  L 377.02 33.10
  Q 376.18 33.02 376.29 32.69
  Z"
/>
<path fill="#6b31a0" d="
  M 609.82 33.24
  L 600.23 33.29
  L 601.73 33.29
  Q 605.75 32.43 609.82 33.24
  Z"
/>
<path fill="#b887ed" d="
  M 422.80 33.03
  L 424.47 32.90
  L 425.98 33.07
  Q 436.53 33.57 439.50 33.25
  Q 440.94 33.09 441.00 34.20
  Q 432.36 34.34 423.73 34.10
  C 422.63 34.07 421.88 33.31 420.47 34.23
  Q 420.08 34.49 419.60 34.45
  L 406.09 33.47
  L 422.80 33.03
  Z"
/>
<path fill="#883cdf" d="
  M 566.21 37.05
  Q 572.99 37.16 579.67 37.87
  C 581.25 38.03 583.87 37.41 585.83 37.94
  C 592.97 39.86 599.83 37.71 606.26 38.67
  C 604.19 38.81 602.68 39.31 600.59 39.06
  Q 592.24 38.09 584.00 39.68
  A 0.44 0.44 0.0 0 0 584.02 40.55
  L 593.19 42.00
  L 319.94 42.00
  L 302.18 42.00
  L 0.00 42.00
  L 0.00 41.57
  C 3.41 41.93 6.67 40.69 9.77 40.49
  Q 12.32 40.34 14.68 39.83
  Q 25.77 38.51 36.77 38.90
  C 40.42 39.03 44.42 38.47 47.68 38.60
  C 63.34 39.20 79.91 38.85 94.56 38.92
  C 105.44 38.97 116.21 38.87 127.08 38.25
  Q 132.69 37.93 140.00 38.40
  Q 154.00 39.29 171.44 38.31
  C 187.09 37.43 202.39 39.28 218.16 38.06
  Q 223.70 37.64 229.18 38.89
  Q 229.73 39.01 230.39 38.70
  Q 230.84 38.48 231.33 38.50
  Q 255.46 39.18 279.58 38.50
  C 283.17 38.40 288.85 38.96 293.50 38.24
  Q 298.45 37.47 300.97 37.50
  Q 304.77 37.54 308.58 37.64
  A 1.16 1.11 -19.8 0 1 309.35 37.98
  Q 309.63 38.27 309.93 38.44
  Q 310.21 38.60 310.60 38.58
  Q 316.08 38.32 321.55 38.14
  C 323.45 38.08 325.85 37.67 328.16 38.14
  Q 330.33 38.58 331.90 38.39
  C 338.58 37.55 346.53 38.18 351.70 38.03
  Q 374.58 37.37 397.46 36.81
  C 399.02 36.77 400.66 35.74 402.16 36.11
  Q 405.60 36.97 407.06 36.98
  Q 426.79 37.15 487.67 36.81
  C 490.18 36.80 492.98 35.53 495.97 36.34
  C 501.36 37.80 507.17 35.70 512.43 36.34
  Q 521.48 37.43 528.99 36.49
  Q 534.82 35.76 540.03 36.01
  C 549.08 36.46 557.46 36.09 566.21 37.05
  Z"
/>
<path fill="#533b6d" d="
  M 634.49 38.52
  Q 639.91 38.51 645.29 38.91
  C 645.94 38.96 646.43 38.49 647.02 38.49
  Q 653.43 38.52 659.85 38.50
  C 667.09 38.47 677.07 39.25 685.79 38.65
  A 0.46 0.45 17.6 0 1 686.18 39.39
  Q 684.60 41.34 681.39 42.00
  L 593.19 42.00
  L 584.02 40.55
  A 0.44 0.44 0.0 0 1 584.00 39.68
  Q 592.24 38.09 600.59 39.06
  C 602.68 39.31 604.19 38.81 606.26 38.67
  L 634.49 38.52
  Z"
/>
<path fill="#6b31a0" d="
  M 319.94 42.00
  L 302.18 42.00
  L 319.94 42.00
  Z"
/>
</svg>
