<svg version="1.2" xmlns="http://www.w3.org/2000/svg" viewBox="0 0 628 344" width="628" height="344"><style>.a{fill:none;stroke:#9549e8;stroke-width:2}.b{fill:none;stroke:#8142c2;stroke-width:2}.c{fill:none;stroke:#ba8def;stroke-width:2}.d{fill:none;stroke:#9045d9;stroke-width:2}.e{fill:none;stroke:#6b31ab;stroke-width:2}.f{fill:none;stroke:#b17eed;stroke-width:2}.g{fill:none;stroke:#a05cec;stroke-width:2}.h{fill:none;stroke:#9e6adb;stroke-width:2}.i{fill:none;stroke:#8c3de6;stroke-width:2}.j{fill:none;stroke:#7735bb;stroke-width:2}.k{fill:none;stroke:#ad78ec;stroke-width:2}.l{fill:none;stroke:#5f2999;stroke-width:2}.m{fill:none;stroke:#7e3cc1;stroke-width:2}.n{fill:none;stroke:#8235d1;stroke-width:2}.o{fill:none;stroke:#9a70c5;stroke-width:2}.p{fill:none;stroke:#7938b1;stroke-width:2}.q{fill:none;stroke:#875db3;stroke-width:2}.r{fill:none;stroke:#894ec4;stroke-width:2}.s{fill:none;stroke:#845fae;stroke-width:2}.t{fill:none;stroke:#9e69d5;stroke-width:2}.u{fill:none;stroke:#a874dc;stroke-width:2}.v{fill:none;stroke:#d2bbf3;stroke-width:2}.w{fill:none;stroke:#b799de;stroke-width:2}.x{fill:none;stroke:#b687ee;stroke-width:2}.y{fill:none;stroke:#b183df;stroke-width:2}.z{fill:none;stroke:#8d6eb1;stroke-width:2}.A{fill:none;stroke:#a778d8;stroke-width:2}.B{fill:none;stroke:#6e2daa;stroke-width:2}.C{fill:none;stroke:#542383;stroke-width:2}.D{fill:none;stroke:#7d31c1;stroke-width:2}.E{fill:none;stroke:#a37fc8;stroke-width:2}.F{fill:none;stroke:#a677dd;stroke-width:2}.G{fill:none;stroke:#524366;stroke-width:2}.H{fill:none;stroke:#682baa;stroke-width:2}.I{fill:none;stroke:#581c93;stroke-width:2}.J{fill:none;stroke:#5a2397;stroke-width:2}.K{fill:none;stroke:#7b5e9d;stroke-width:2}.L{fill:none;stroke:#9369c0;stroke-width:2}.M{fill:none;stroke:#a871ea;stroke-width:2}.N{fill:none;stroke:#c29fec;stroke-width:2}.O{fill:none;stroke:#ab94d0;stroke-width:2}.P{fill:none;stroke:#8a64b4;stroke-width:2}.Q{fill:none;stroke:#a46de7;stroke-width:2}.R{fill:none;stroke:#655678;stroke-width:2}.S{fill:none;stroke:#4c2272;stroke-width:2}.T{fill:none;stroke:#8332e1;stroke-width:2}.U{fill:none;stroke:#b180ed;stroke-width:2}.V{fill:none;stroke:#7d2ecf;stroke-width:2}.W{fill:none;stroke:#6929ae;stroke-width:2}.X{fill:none;stroke:#a164e6;stroke-width:2}.Y{fill:none;stroke:#8a59ca;stroke-width:2}.Z{fill:none;stroke:#722eba;stroke-width:2}.a0{fill:none;stroke:#6826a5;stroke-width:2}.a1{fill:none;stroke:#451b6d;stroke-width:2}.a2{fill:none;stroke:#4c2875;stroke-width:2}.a3{fill:none;stroke:#8c3fe4;stroke-width:2}.a4{fill:none;stroke:#501b82;stroke-width:2}.a5{fill:none;stroke:#40176f;stroke-width:2}.a6{fill:none;stroke:#792acc;stroke-width:2}.a7{fill:none;stroke:#925ad5;stroke-width:2}.a8{fill:none;stroke:#5e2199;stroke-width:2}.a9{fill:none;stroke:#3c1561;stroke-width:2}.aa{fill:none;stroke:#6b4b93;stroke-width:2}.ab{fill:none;stroke:#6e4e8f;stroke-width:2}.ac{fill:none;stroke:#b08cda;stroke-width:2}.ad{fill:none;stroke:#975cd1;stroke-width:2}.ae{fill:none;stroke:#5e4974;stroke-width:2}.af{fill:none;stroke:#9d60e3;stroke-width:2}.ag{fill:none;stroke:#745199;stroke-width:2}.ah{fill:none;stroke:#8a57c4;stroke-width:2}.ai{fill:none;stroke:#8357b0;stroke-width:2}.aj{fill:none;stroke:#9363c1;stroke-width:2}.ak{fill:none;stroke:#cbaeef;stroke-width:2}.al{fill:none;stroke:#8c5cbc;stroke-width:2}.am{fill:none;stroke:#5d457d;stroke-width:2}.an{fill:none;stroke:#6c25bf;stroke-width:2}.ao{fill:none;stroke:#5f20a5;stroke-width:2}.ap{fill:none;stroke:#501c8a;stroke-width:2}.aq{fill:none;stroke:#6525ab;stroke-width:2}.ar{fill:none;stroke:#ad7cea;stroke-width:2}.as{fill:none;stroke:#9373b6;stroke-width:2}.at{fill:none;stroke:#5a2889;stroke-width:2}.au{fill:none;stroke:#511c8b;stroke-width:2}.av{fill:none;stroke:#39135d;stroke-width:2}.aw{fill:none;stroke:#351357;stroke-width:2}.ax{fill:none;stroke:#431675;stroke-width:2}.ay{fill:none;stroke:#6521ad;stroke-width:2}.az{fill:none;stroke:#9880be;stroke-width:2}.aA{fill:none;stroke:#8b56c3;stroke-width:2}.aB{fill:none;stroke:#624881;stroke-width:2}.aC{fill:none;stroke:#4b1786;stroke-width:2}.aD{fill:none;stroke:#714c9c;stroke-width:2}.aE{fill:none;stroke:#2f0e51;stroke-width:2}.aF{fill:none;stroke:#491878;stroke-width:2}.aG{fill:none;stroke:#7f51b5;stroke-width:2}.aH{fill:none;stroke:#7e51b6;stroke-width:2}.aI{fill:none;stroke:#564373;stroke-width:2}.aJ{fill:none;stroke:#270d40;stroke-width:2}.aK{fill:none;stroke:#5e3191;stroke-width:2}.aL{fill:none;stroke:#724ca7;stroke-width:2}.aM{fill:none;stroke:#57317d;stroke-width:2}.aN{fill:none;stroke:#786199;stroke-width:2}.aO{fill:none;stroke:#441772;stroke-width:2}.aP{fill:none;stroke:#512c78;stroke-width:2}.aQ{fill:none;stroke:#36115b;stroke-width:2}.aR{fill:none;stroke:#482b67;stroke-width:2}.aS{fill:#984fe9}.aT{fill:#9143e7}.aU{fill:#8736e4}.aV{fill:#7f2ede}.aW{fill:#7226ba}.aX{fill:#581c9f}.aY{fill:#3e126c}.aZ{fill:#6a349a}.b0{fill:#4a1b77}.b1{fill:#2d0f4a}.b2{fill:#c9acf0}.b3{fill:#5d268f}.b4{fill:#bb92e8}.b5{fill:#634683}.b6{fill:#200a36}.b7{fill:#dbcaf5}.b8{fill:#a485cc}.b9{fill:#8c7baf}.ba{fill:#873bc8}.bb{fill:#a768ee}</style><path class="a" d="m156.5 8.8l11.3 0.4q0.1 0.1 0.2 0.1 0.1 0.1 0.1 0.2 0.1 0.1 0 0.2 0 0-0.1 0h-0.7q-0.1 0.1-0.1 0.1-0.1 0-0.1 0.1 0 0 0 0.1 0 0 0.1 0.1 0.2 0.1 0.3 0.2 0 0 0 0.5-0.4 3.4-2.1 4"/><path class="b" d="m165.4 14.8l-11.5 1.2q-0.5 0.1-0.7 0.6c-1.3 4.3-0.3 10-0.6 14q-0.8 9.2-0.5 18.4c0.1 3.2-0.6 6.5-0.6 9.3q0 41.3 0 82.5"/><path class="a" d="m151.5 140.8c-0.4 12.6-1.8 25-1.2 37.5q0.1 1.9-0.1 3.1-0.4 2.1-0.4-0.2l-0.1-1.9q0 0 0 0-0.1 0-0.1 0 0 0 0 0-0.1 0-0.1 0.1 0 0 0 0 0 0 0 0 0.1 1.9-0.6 5c-0.8 4.2-0.2 8.8-1.3 13.2-0.8 2.9-0.1 6.7-0.2 8.7q-0.2 6.7-0.2 13.3c-0.1 6.7-2.5 13.5-4.3 19.8q-0.1 0.7-1.3 1.1-0.4 0.1-0.4 0.6 0.3 1.9-1.1 3.1-0.3 0.3-0.3-0.1v-6q0-0.3-0.2 0-0.2 0.1-0.1 0.3 0 0.2 0 0.2 0.1 10.5-0.2 20.9"/><path class="c" d="m139.3 259.5c-0.2-16.3 0.1-33.6 0-48.8q-0.2-84.2 0.2-168.4 0.1-12.6 0.4-25.3 0-0.5-0.4-0.7-1.8-0.8-3.5 0.3"/><path class="d" d="m136 16.6q-0.5-0.2-1-0.1"/><path class="b" d="m135 16.5l-0.4-0.3q-0.1 0-0.2-0.1-0.1 0-0.2-0.1-0.1 0-0.2 0-0.1-0.1-0.2-0.1l-14.8 0.1q-0.2 0-0.3 0.1-0.1 0-0.2 0.1-0.1 0.1-0.2 0.3-0.1 0.1-0.1 0.3c0.1 17.5-0.4 35.4-0.4 52.4q-0.1 112.1 0 224.1 0 4.3 0.3 10.3 0.3 5.5 0.3 10.3"/><path class="e" d="m118.4 313.9q0 2.1 2.6 2.1 4 0 5.3 0.2"/><path class="c" d="m126.3 316.2l-19.1 0.5q-0.2 0-0.5-0.1-0.2-0.1-0.4-0.3-0.1-0.1-0.2-0.3-0.1-0.3-0.1-0.5l0.3-298.5q0-0.6-0.5-0.7-1.5-0.3-2.8 0.2"/><path class="d" d="m103 16.5l-1.3-0.1"/><path class="b" d="m101.7 16.4c-4.8-1.6-10.6-0.6-15.4-0.7q-0.2 0-0.4 0.1-0.2 0.1-0.4 0.2-0.1 0.2-0.2 0.4-0.1 0.2-0.1 0.4c-0.1 2.3-0.5 4.7-0.5 7q-0.4 121.8-0.1 243.6c0 13.9 0.5 29.9 0.4 44.9q0 0-0.3 1.9-0.3 1.2 0.5 2.8"/><path class="f" d="m85.2 317l-10.9-0.3q-0.2 0-0.4-0.1-0.2-0.1-0.4-0.3-0.2-0.2-0.3-0.4 0-0.2 0-0.5l0.2-298.7q0-0.2-0.1-0.4 0-0.1-0.2-0.3-0.1-0.1-0.3-0.2-0.2 0-0.3-0.1h-2.8q-0.4 0-0.5 0.5l-1 4"/><path class="b" d="m68.2 20.3l-0.5-3.7q0-0.5-0.5-0.7c-2.2-1.2-11.7-0.3-14.6 0.2q-0.2 0-0.5 0.1-0.2 0.1-0.4 0.3-0.1 0.2-0.2 0.4-0.1 0.3-0.1 0.5-0.5 20.1-0.5 40.8-0.2 111.9-0.1 223.9 0 10.3 0.7 31.2"/><path class="e" d="m51.5 313.3c0 3.6 4.1 2.7 6.5 2.9"/><path class="f" d="m58 316.2l-17.5 0.7q-1.3 0.1-1.4-1.3c-0.7-17.1-0.1-35.5-0.1-51.6q0-108.1 0-216.2c0-9.1 0.6-20.7 0.5-31q0-0.5-0.5-0.7-1.7-0.7-3.5-0.1"/><path class="b" d="m35.5 16q-5.4-1-11-1.7-3.7-0.5-4.6 2.6-0.1 0.4-0.3 0.7-0.2 0.3-0.6 0.5-0.3 0.3-0.7 0.4-0.4 0.1-0.8 0.1-2.6-0.2-4.5 1.3-0.2 0.1-0.2 0.3-0.1 0.1-0.1 0.3 0 0.2 0.1 0.3 0 0.2 0.2 0.3l2.9 2.4"/><path class="g" d="m15.9 23.5q-6.7-1.5-12.9-0.6"/><path class="h" d="m3 22.9q-1.5-1-3.1-0.9"/><path class="i" d="m290.5 8.7l0.1 0.3q0.1 0.3 0.4 0.3l12.7-0.1q0.1 0 0.2 0.1 0 0 0 0.1 0.1 0.1 0 0.2 0 0.1-0.1 0.1-3.2 1.4-6.7 0.8-0.5-0.1-0.7 0.5l-1.6 4.6"/><path class="j" d="m294.8 15.6l-8.1 0.1q-0.2 0-0.3 0.1-0.2 0.1-0.4 0.2-0.1 0.1-0.2 0.3 0 0.2 0 0.4c-0.1 15.1-0.8 30.8-0.8 45.3q0 58.9 0 117.8"/><path class="i" d="m285 179.8l-0.2-8.9q0-0.1-0.1-0.1 0 0-0.1 0 0 0 0 0 0 0-0.1 0 0 0.1 0 0.1 0 0 0 0c0.2 5 0.7 11.6-3.6 15.4q-0.2 0.1-0.4 0.2-0.2 0-0.5 0-0.2 0-0.4-0.1-0.2-0.2-0.3-0.3l-2.1-3.1q-0.1-0.2-0.3-0.2-0.1-0.1-0.3 0-0.2 0-0.3 0.2-0.1 0.2-0.1 0.3l0.4 5.8q0 0.1-0.1 0.2 0 0.2-0.1 0.3-0.1 0-0.2 0.1-0.1 0-0.3 0.1l-1.6-0.1q-0.6 0-0.6 0.6l-0.2 8.5"/><path class="k" d="m273.5 198.8c-0.1-60.7-0.3-121.4 0.5-182.1q0-0.5-0.5-0.7-1.6-0.7-3.5 0.2"/><path class="j" d="m270 16.2q-8.4-1-16.9-0.1-0.5 0-0.6 0.5-0.7 11.7-0.7 23.5-0.1 114.9 0 229.8c0 13.3 0.1 29 0.5 43.5"/><path class="l" d="m252.3 313.4q-0.8 3 4.2 2.8 4.8-0.2 9.5 0.3"/><path class="k" d="m266 316.5c-8.4-0.2-16.6 0.6-24.8 0q-0.7-0.1-0.8-0.8c-0.7-13.5-0.1-30.3-0.2-40.1 0-43.4 0.4-86.9 0.1-130.3q-0.4-64.3 0.4-128.6 0-0.2-0.1-0.4-0.1-0.2-0.2-0.3-0.2-0.2-0.4-0.3-0.2 0-0.4 0l-4.2 0.1"/><path class="m" d="m235.4 15.8l-15.8 0.4q-0.1 0.1-0.2 0.1-0.1 0-0.2 0.1-0.1 0.1-0.1 0.2-0.1 0.1-0.1 0.2-0.5 6.2-0.5 10.9 0 55.4 0 259c0 2.9 0.4 6.8 0.2 10.3"/><path class="l" d="m218.7 297l0.5 19.8"/><path class="k" d="m219.2 316.8l-11.1 0.1q-0.2 0-0.5-0.1-0.2-0.1-0.4-0.3-0.2-0.2-0.3-0.4-0.1-0.2-0.1-0.5l0.3-299.1q0-0.1 0-0.2-0.1-0.1-0.1-0.2-0.1-0.1-0.1-0.1-0.1-0.1-0.2-0.1-1.6-0.8-3.1 0.2"/><path class="n" d="m203.6 16.1l-1.8-0.6"/><path class="m" d="m201.8 15.5q-0.6-0.6-1.3-0.6-6.9 0.6-13.8 0.8-0.5 0.1-0.8 0.4-2.2 2.9-0.8 6.2c1.1 2.6 0.3 3.7 0.3 6.1-0.2 11.4-0.9 23.2-0.9 34.1 0 84-0.8 168.1 1 252q0 0.6 0.5 0.8l3.1 1.1"/><path class="k" d="m189.1 316.4l-14.6 0.2q-0.6 0-0.6-0.5-0.4-3.1-0.4-4.6c0-10.1 0.5-23.6 0.5-35.1q0.1-129.9-0.1-259.9 0-0.6-0.6-0.6l-3-0.1q-1.3 0-1.3 1.3l-0.2 8.7"/><path class="m" d="m168.8 25.8c0.2-2.4-0.7-4.1-0.8-6-0.1-2 0.7-5.3-2.6-5"/><path class="o" d="m35.5 16v8.9"/><path class="p" d="m35.5 24.9q-6.5-0.1-11.7 1.4-0.2 0.1-0.3 0.1-0.1 0.1-0.2 0.2-0.1 0.1-0.1 0.3-0.1 0.1-0.1 0.2c-0.3 3.8 0.2 7.8-0.3 11.3q-0.6 4.4-1.3 8.8c-0.6 3.3 0.1 6.4 0.1 9.4q-0.3 22.5 0.1 45.1c0.1 1.9-0.5 3.9-0.5 5.8q0.1 38 0.1 75.9c0.1 22.2 0.3 44.4 0.3 66.6q0 13.2 0.7 18c0.7 4.9 0.3 8.7 0.8 12.9 0.3 3.3-0.5 17.7 4.2 17.9q0.5 0 3.2-1.1 1.7-0.7 3.7-0.4 0.5 0.1 0.5 0.6 0 1.7 0.8 0.9"/><path class="o" d="m35.5 298.8q-0.5 7.5 0 16.4 0.1 1.5-1.2 1.2"/><path class="q" d="m34.3 316.4q-7-0.6-13.9-0.4c-1.1 0.1-2.1 0.7-3.2 0.9"/><path class="b" d="m17.2 316.9q-0.5 0.7-1 0.1-0.1-0.1-0.1-0.2-0.1 0-0.1-0.1 0-0.1 0-0.2-0.1 0-0.1-0.1l-0.2-37.7"/><path class="r" d="m15.7 278.7q0.5-37.3 0.2-74.7c-0.1-5.6 0.4-12.5 0.3-18.7q-0.4-13.9-0.4-14.1 0-61.8 0.1-123.5 0-0.6 0.2-3.2c0.2-2.6-0.4-5.5-0.3-7.8q0.4-6.4 0.1-13.2"/><path class="g" d="m15.7 278.7q-0.2 6.7-0.6 13.4c-0.1 2.2-4.3 4.8-5.9 6.3q-0.4 0.4-0.8-0.1l-1.6-2.2q-0.1-0.1-0.2-0.2-0.2 0-0.3 0-0.2 0-0.3 0.1-0.1 0-0.2 0.2l-1 1.8q-0.1 0.2-0.3 0l-0.2-0.4q-0.4-0.5-0.6 0.1l-0.7 1.8"/><path class="s" d="m58 316.2h9.8q0.6 0 0.6-0.6v-2.8"/><path class="t" d="m68.4 312.8l-0.2-285.6"/><path class="u" d="m68.3 27.2l0.2-4.7"/><path class="v" d="m88.1 316.9q-4.5 0.4-3.6 3.2"/><path class="f" d="m84.5 320.1c-22.4 0-45.4-1.3-67.7 0.6q-0.5 0-0.5-0.6 0.2-1.5 1-3"/><path class="w" d="m17.3 317.1c5.9-0.1 11.1 0 17-0.7"/><path class="u" d="m35.5 298.8v-273.9"/><path class="x" d="m139.3 259.5l0.4 55.9q0 0.3 0.1 0.5 0 0.2 0.2 0.4 0.2 0.2 0.4 0.3 0.2 0.1 0.5 0.1l13.3 0.2"/><path class="c" d="m165.7 320c-26.8 0.2-54.1-0.3-81.2 0.1"/><path class="y" d="m102.9 303.8c-0.3-93.8 0-187.5-0.2-281.2 0-1.8-0.6-3.8 0.3-6.1"/><path class="z" d="m126.3 316.2l8.8 0.2q0.5 0 0.7-0.5 0.2-0.8-0.1-1.9"/><path class="A" d="m136.1 293.3l0.2-257.6"/><path class="y" d="m136.3 35.8l-0.3-19.2"/><path class="o" d="m168.8 25.8v1.4"/><path class="B" d="m168.8 27.2q-3.5-1.1-5-0.3"/><path class="p" d="m163.8 26.9q-2.1-1.9-4.1-0.4c-3.5 2.8-1.9 13.4-1.9 17.1-0.2 84.1 0.1 168.1 0 252.2q0 7.6 0.8 15.1 0.1 0.4 0.4 0.7 1.1 0.9 1.9 1"/><path class="B" d="m160.9 312.6q0.1 0.1 0.2 0.2"/><path class="C" d="m161.1 312.8c-3.1-0.1-7.8-1.1-9.2 2.6"/><path class="m" d="m151.9 315.4l-0.4-174.6"/><path class="D" d="m136.3 35.8q-0.4-0.1-0.7-0.6 0 0-0.1-0.1 0 0-0.1 0-0.1 0.1-0.1 0.1 0 0.1 0 0.1 0 0.4-0.4 0.6-0.4 0.2-0.9 0.3c-2.7 0.5-3.7 5.9-3.7 7.8 0.1 82.1 0.1 164.3-0.3 246.4 0 1.6-0.8 3-2.1 3.5q-0.4 0.2-1 0.2-0.5-0.1-0.9-0.4-0.4-0.3-0.6-0.7-0.3-0.5-0.2-1 0.3-4.4-0.9-8.1"/><path class="p" d="m101.7 16.4l0.3 3.8q0 0.5-0.5 0.7c-2.7 1.3-4.5-0.2-6.6-0.1-7.2 0.6-5.6 10.1-5.1 15q0.5 5.4 0 11.7c-0.3 4.3 0.2 8.6 0.2 12q0.2 103.3 0.3 206.6c0 4.2 0.5 12.2-0.1 18.4q0 0.1 0 0.3 0 0.1 0.1 0.2 0 0.1 0 0.2 0.1 0.1 0.1 0.2c1.9 4.3-0.3 8.4 2.4 13.5q0 0.1 0.1 0.1 0.1 0.1 0.2 0.2 0.1 0.1 0.2 0.1 0.1 0.1 0.2 0.1 2.2 0.4 3.3-1.6 0.3-0.6 0.9-0.6l3.5-0.4q0.5 0 0.6 0.5l1.1 6.5"/><path class="E" d="m102.9 303.8l-0.2 11.8q0 0.2-0.1 0.4-0.1 0.2-0.2 0.3-0.1 0.1-0.3 0.2-0.2 0.1-0.4 0.1l-13.6 0.3"/><path class="o" d="m88.1 316.9l-2.9 0.1"/><path class="o" d="m68.2 20.3l0.3 2.2"/><path class="p" d="m68.5 22.5q-7.9-2.8-11 0.5c-2.4 2.7-1.6 6.5-1 10q0.8 3.9 0 12.5c-0.3 3.5 0.6 6.4 0.5 9.2-0.4 7 0 15.9 0 20.7q0 106.5 0 212.8"/><path class="B" d="m57 288.2q-0.9 12.3 0.6 24.6"/><path class="C" d="m57.6 312.8l-6.1 0.5"/><path class="F" d="m3 22.9q-0.8 13.2-0.7 16.8c0.1 3-0.1 12.2-0.1 12.2q0.3 0.4 0.4 0.9c0.3 35.8 0.4 71.6 0.2 107.5-0.2 31.2 0.4 60.1 0.5 104.1 0.1 11.2-0.2 23.4-0.3 35.1"/><path class="h" d="m3 299.5q-0.2 14.4-0.3 28.8 0 3.3 1.9 4.6"/><path class="G" d="m4.6 332.9l-0.2 3.3"/><path class="h" d="m4.4 336.2q-0.1 4.6-3.7 8"/><path class="H" d="m151.9 315.4l15.1 1"/><path class="p" d="m135 16.5c-0.5 1.6 0.6 4.4-2 4.9q-0.4 0.1-0.6-0.3c-0.3-0.8-0.6-1.1-1.5-1.2q-2.2-0.3-4.3-0.8-0.5-0.1-1.1 0-0.5 0.1-0.9 0.4-0.4 0.4-0.7 0.8-0.2 0.5-0.2 1.1 0 1.2-0.9 2-0.1 0.1-0.1 0.2-0.1 0-0.1 0.1-0.1 0.1-0.1 0.2 0 0.1 0 0.2c0.3 6 1.3 12.1 1.3 18 0 11 0.4 22.7 0.4 32.9q0 104.5 0.1 208.9"/><path class="B" d="m124.3 283.9l0.8 11.5q0 0.3 0.2 0.5 0.1 0.2 0.4 0.3 0.2 0.1 0.5 0.1 0.2 0 0.5-0.1 1.6-0.9 3.4-1.4 0.1 0 0.1 0.1l0.1 0.3q0 0.3 0.2 0.1 1.7-1.2 2.5-3 0.2-0.4 0.5-0.6 0.4-0.2 0.8-0.1 0.4 0.1 0.7 0.4 0.3 0.3 0.3 0.7 0 0.5 0.8 0.6"/><path class="E" d="m136.1 293.3l-0.4 20.7"/><path class="C" d="m135.7 314q-0.6-0.9-0.8-2.1-0.1-0.5-0.6-0.6-1.1-0.3-1.7 0.7-0.3 0.5-0.8 0.5l-13.4 1.4"/><path class="I" d="m68.4 312.8l-0.2-1.8q0-0.7-0.7-0.3l-2 1.2q-0.4 0.3-0.9 0.3l-7 0.6"/><path class="J" d="m286 315.4l5 1.1"/><path class="K" d="m219.2 316.8l16.4-0.2q0.8 0 0.8-0.8l0.3-18.8"/><path class="t" d="m236.7 297c-0.9-63.5-0.5-131.7-0.4-226.3 0-5.5 0.5-12.3 0.3-17.6q-0.3-13.2-0.4-26.3"/><path class="o" d="m236.2 26.8l-0.8-11"/><path class="K" d="m266 316.5l3.3-0.1q0.6 0 0.7-0.6l0.2-3.4"/><path class="L" d="m270.2 312.4l0.3-17.6"/><path class="t" d="m270.5 294.8l-0.4-273.1"/><path class="L" d="m270.1 21.7l-0.1-5.5"/><path class="M" d="m273.5 198.8c0 49-0.9 79.6 0.3 117.1q0.1 0.6 0.6 0.7 8.3 1.1 16.6-0.2"/><path class="K" d="m291 316.4l11.1 0.4q0.2 0 0.5-0.1 0.3-0.2 0.5-0.4 0.2-0.2 0.3-0.4 0.1-0.3 0.1-0.6l-0.1-4.8"/><path class="L" d="m303.4 310.5l0.3-20.5"/><path class="t" d="m303.7 290v-273.3"/><path class="K" d="m331.1 316.3h5q0.4 0 0.5-0.4l0.3-1.3"/><path class="t" d="m336.9 314.6q0.4-1.4 0.1-2.4"/><path class="N" d="m337 312.2q1.6 0.5 1.7 2.5 0 0.5 0.5 0.7l2 0.8"/><path class="K" d="m367.6 316.2h2.4q0.6 0 0.7-0.6l0.2-1.1"/><path class="L" d="m370.9 314.5l0.1-21.2"/><path class="t" d="m371 293.3v-271.7"/><path class="L" d="m371 21.6v-5.3"/><path class="O" d="m385.3 317.2l11.7-0.8"/><path class="K" d="m397 316.4l6.3-0.2q0.6 0 0.6-0.6l0.1-2.8"/><path class="P" d="m404 312.8l0.3-16.3"/><path class="t" d="m404.3 296.5c-0.1-81.9-0.8-164 0.2-245.9 0.1-11.4-0.5-22.7 0-34.1"/><path class="N" d="m419.2 317.1l15-0.2q0.1 0 0.2 0 0.1 0 0.2 0.1 0.1 0 0.2 0.1 0.1 0 0.2 0.1 1.3 1.5-0.1 2.5"/><path class="Q" d="m434.9 319.7c-23.4 0.3-47.5-0.4-71.2 0q-24.6 0.4-49.2 0c-20.6-0.3-41.2 0.3-61.7 0.3q-1.2 0-3.6 1.3"/><path class="R" d="m249.2 321.3l-69.4 0.4"/><path class="f" d="m179.8 321.7q-6.3-2.5-14.2-1.7"/><path class="v" d="m165.7 320q1.1-0.5 1.2-1 0.1-0.4 0-0.7-0.1-0.4-0.3-0.7-0.3-0.3-0.6-0.5-0.3-0.2-0.7-0.2h-11.1"/><path class="k" d="m154.2 316.9l12.8-0.5"/><path class="s" d="m167 316.4l1.9-0.3"/><path class="t" d="m168.9 316.1l-0.1-288.9"/><path class="B" d="m236.2 26.8l-1.8-0.2q-0.5 0-0.5-0.5c0.7-5-5-7.4-8.2-4.3-3 2.8-1.1 13.1-1.3 16.9-0.6 11.3 0.3 25.7 0.4 33.7 0.3 38.4 0 76.7 0.1 115q0.2 46 0.1 92c-0.1 6.5-0.6 12.9 0.7 19.7q0.1 0.6 0.6 0.9l4.9 2.6q0.3 0.1 0.6 0.1 0.4-0.1 0.6-0.3 0.3-0.2 0.4-0.5 0.1-0.3 0-0.7-0.6-2.2 1.4-4"/><path class="S" d="m234.2 297.3c0.1 4.9 1 10.8-1.7 15.1q-0.3 0.6-1 0.6l-9.4-0.2q-1.4 0-1.5-1.4l-0.7-14.2q0-0.5-0.5-0.5-0.4 0.1-0.7 0.3"/><path class="T" d="m508 8.5q-0.4 0.3-1 0.3-1.2 0 0 0.1 0.1 0 0.3 0.1 0.6 0.2 0 0.4-1.9 0.6-3.9 0.3-0.1 0-0.1 0.1 0 0 0 0.1 0 0 0.2 0l1.2 0.3q0.7 0.2 0.6 0.9-0.1 0.9-0.9 1.4-0.4 0.3-0.3 0.8l0.2 0.9q0.1 0.6-0.5 0.6c-4.8 0.6-15.9 2.4-17.1-1.6q-0.1-0.1-0.1-0.2-0.1 0-0.2-0.1 0-0.1-0.1-0.2-0.1 0-0.2 0-3.3-1.1-5.6 1.2-0.2 0.2 0 0.3l0.3 0.3q0.1 0 0.1 0.1 0 0 0 0.1 0 0 0 0.1 0 0-0.1 0.1-2.4 1-3.8 3.3 0 0.1 0 0l-0.4-0.2q-0.3-0.1-0.4 0.3l-1.2 9.8"/><path class="U" d="m475 28.1l0.2-11.5q0-0.5-0.5-0.7-3-1-3.1 2.4"/><path class="V" d="m471.6 18.3q0-1.7-0.8-1.8"/><path class="W" d="m470.8 16.5q-0.6-0.7-1.3-0.7-6.6-0.4-14.3 0.1-1.4 0-1.4 1.4l-0.3 148.7"/><path class="T" d="m453.5 166q-0.8 7.5-0.9 12.1 0 0.7-0.2 1.1 0 0 0 0.1 0 0-0.1 0 0-0.1 0-0.1 0 0 0 0 0.1-0.3-0.1-0.5-0.2-0.2-0.2 0.1c-0.1 2.9-1.6 7.5-5.4 6.9q-0.6-0.1-0.7 0.4-1.1 3.5-1.9 7c-0.7 2.6-0.4 5.8-1.1 8.8q-0.3-0.1-0.1-0.9 0 0 0-0.1-0.1-0.1-0.1-0.1-0.1 0-0.2 0 0 0.1 0 0.1c-1.1 1.9-0.2 5.3-0.8 7.6"/><path class="X" d="m441.7 208.5l0.3-191.9q0-0.6-0.6-0.7-1.8-0.5-4.6 0.3"/><path class="W" d="m436.8 16.2l-15.6-0.1q-0.2 0-0.4 0.1-0.2 0.1-0.4 0.2-0.1 0.1-0.2 0.3-0.1 0.2-0.1 0.4c-0.3 90.6-0.4 181.2-0.3 271.8 0 7.9 0.3 16.1 0.5 24.2"/><path class="J" d="m420.3 313.1q-0.8 2.6 2 3.1"/><path class="X" d="m422.3 316.2q-1 0.8-3.1 0.9"/><path class="M" d="m419.2 317.1l-10-0.3q-0.3 0-0.5-0.1-0.3-0.1-0.5-0.3-0.2-0.2-0.3-0.4-0.1-0.3-0.1-0.5c-0.2-15.7-0.5-31-0.3-47.2 0.7-59.1 0.1-118.2 0.4-177.3 0.2-24.6-0.5-49 0.4-73.5q0.1-2.8-2.4-1.6l-1.4 0.6"/><path class="V" d="m404.5 16.5h-1.3"/><path class="W" d="m403.2 16.5q-0.6-0.5-1.2-0.5-7.3 0-14.5 0-0.2 0-0.4 0.1-0.2 0.1-0.3 0.2-0.1 0.1-0.2 0.3-0.1 0.2-0.1 0.4l0.2 300"/><path class="Y" d="m386.7 317q-0.8-0.1-1.4 0.2"/><path class="M" d="m385.3 317.2l-10.2-0.5q-0.1 0-0.3-0.1-0.2-0.1-0.3-0.2-0.2-0.1-0.2-0.3-0.1-0.2-0.1-0.4l0.2-299.1q0-0.5-0.5-0.6-1.4-0.2-2.9 0.3"/><path class="Z" d="m371 16.3q-7.8-0.9-16.9-0.1-0.2 0-0.3 0.1-0.2 0.1-0.3 0.2-0.2 0.1-0.2 0.3-0.1 0.2-0.1 0.4c-0.4 15.7-0.4 31.6-0.4 47.6q-0.1 73.2 0.2 121.5c-400-193.3-400-193.3-400-193.3 0 0 399.8 194.5 399.8 194.8 0.4 25.9-0.2 53.7 0.1 81.5q0.1 22.2 0.4 43.8"/><path class="J" d="m353.3 313.1v1.9q0 0.1 0 0.3 0.1 0.1 0.2 0.2 0.1 0.1 0.2 0.1 0.1 0.1 0.2 0.1l13.7 0.5"/><path class="M" d="m367.6 316.2c-2.9 0.2-5.8 1.2-8.5 1.1q-8.5-0.3-16.9-0.7-0.3 0-0.5-0.1-0.2-0.2-0.5-0.3"/><path class="X" d="m341.2 316.2l0.5-299.4q0-0.6-0.6-0.9-2.1-0.8-3.9 0.4-0.5 0.3-0.5 0.8v5.2"/><path class="Z" d="m336.7 22.3q-1-2.5-0.2-5 0.1-0.3 0.1-0.6-0.1-0.3-0.2-0.6-0.2-0.2-0.5-0.3-0.3-0.2-0.6-0.2l-14.4 0.5q-0.3 0-0.6 0.1-0.2 0.1-0.4 0.3-0.2 0.2-0.3 0.5-0.1 0.2-0.1 0.5c-0.4 88-0.2 175.9-0.2 263.9 0 10.8 0.3 22.1 0.5 33.4"/><path class="J" d="m319.8 314.8q4.5 1.6 11.3 1.5"/><path class="M" d="m331.1 316.3c-5-0.3-9.8 0.7-14.5 0.6q-3.3-0.1-6.7 0.1-1.2 0.1-1.8-0.2c-1.6-0.8-0.8-2.6-0.9-3.7-0.7-17.1 0.1-35 0.1-50.8-0.1-81.8-0.6-163.6 0.4-245.3q0-0.5-0.4-0.7-2.5-1.5-3.6 0.4"/><path class="V" d="m303.7 16.7q-0.8 0.2-1.4 0.1"/><path class="Z" d="m302.3 16.8c-0.7-2.1-5.7-1.3-7.5-1.2"/><path class="t" d="m203.6 16.1c-1 6.3-0.7 14.1-0.8 18.7q-0.2 7.2 0.2 14.4c0.1 2-0.5 4-0.5 5.7 0.3 72.8 0.6 145.5 0.2 218.2 0 7 0.5 16.5 0.2 24.7"/><path class="D" d="m197.9 294.5q-0.4-16.1-0.4-31.5-0.1-107.6 0.3-215.2 0-10.9 0.3-21.4"/><path class="B" d="m201.8 15.5c-0.4 3.6 1.3 7.4 0.6 10.2q-0.2 0-0.1-1.8 0 0-0.1-0.1 0 0 0 0-0.1 0-0.1 0 0 0-0.1 0-1.6 2.5-4 2.6"/><path class="p" d="m198.1 26.4q1-3.9-1.9-5.3-0.5-0.2-1-0.2-0.4 0-0.9 0.2-0.4 0.2-0.8 0.5-0.3 0.4-0.5 0.8-0.5 1.1-1.5 1.8-0.1 0.1-0.2 0.2-0.1 0-0.1 0.1-0.1 0.1-0.1 0.3 0 0.1 0 0.2c0 9.6 0.7 20 0.7 28.7q-0.1 115.9-0.1 231.7 0 5.7 1.5 9.4c0.9 2.2 3.5 1.3 4.7-0.3"/><path class="B" d="m197.9 294.5q1.9-0.4 3.6 0 0.1 0.1 0.2 0.1 0.1 0.1 0.2 0.2 0.1 0 0.2 0.1 0 0.2 0.1 0.3l0.7 2.6"/><path class="o" d="m202.9 297.8l0.1 17.1q0 0.3-0.1 0.6-0.1 0.3-0.3 0.5-0.2 0.2-0.5 0.4-0.3 0.1-0.6 0.1l-12.4-0.1"/><path class="a0" d="m270.1 21.7c-2.7 1.2-7.5-0.2-10.4-0.8q-0.2 0-0.4 0-0.2 0-0.4 0.1-0.2 0.1-0.4 0.3-0.1 0.2-0.2 0.4c-1.3 3.3-1.4 5.8-1 9.7 0.4 4.1-0.1 8.7 0 12.1 0.3 12.9 0.6 25.6 0.7 38.8q0.1 82.2-0.2 164.4c-0.1 11 0.5 28.3-0.2 42.5-0.1 2.9 1.9 9 6.1 7q0.4-0.2 0.5-0.6l0.2-1.4q0.2-0.7 0.9-0.4 2.4 1.1 5.2 0.9"/><path class="a1" d="m270.2 312.4l-17.9 1"/><path class="a0" d="m302.3 16.8l-0.1 7.8q0 0.3-0.2 0.5-0.2 0.2-0.5 0.3-0.3 0-0.5-0.1-0.3-0.2-0.4-0.5c-1.5-4.9-10.2-5.8-10-0.8 1.4 34.7 1.2 58.5 1 95.5-0.3 41.5-0.3 105.6 0.3 176.3q0 0.5 0.3 1 0.2 0.5 0.6 0.9 0.5 0.4 1 0.5 0.6 0.2 1.1 0.1 2.1-0.4 3-2.1 0.1-0.2 0.1 0v0.5q0.1 0 0.1 0 0 0 0 0 0 0 0.1 0 0 0 0 0l0.4-2.1q0.1-0.1 0.1-0.2 0-0.1 0.1-0.2 0.1 0 0.2-0.1 0-0.1 0.1-0.1l4-1.2q0.1-0.1 0.1-0.1 0.1-0.1 0.2-0.1 0-0.1 0.1-0.2 0-0.1 0-0.2l0.2-2.2"/><path class="a1" d="m303.4 310.5l-1.3-4.9q0-0.2-0.2-0.4-0.1-0.1-0.3-0.1-0.2 0-0.4 0.1-0.1 0.1-0.2 0.3-1.3 3.1-0.8 6.6 0 0.1 0 0.2 0 0.1-0.1 0.2-0.1 0.1-0.2 0.1-0.1 0.1-0.2 0.1l-11.9 0.5q-0.5 0-0.8 0.4l-1 1.8"/><path class="Z" d="m286 315.4c-1.5-35.3-1-76.3-1-135.6"/><path class="h" d="m17.2 316.9q0.1 0.1 0.1 0.2"/><path class="a2" d="m179.8 321.7q-2.3 0.7-2.8-0.1-0.1-0.1-0.3-0.1-0.2-0.1-0.3 0-0.2 0-0.3 0.2-0.1 0.1-0.1 0.3l0.3 17.9q0 0.5 0.5 0.6 0.3 0.1 0.7 0"/><path class="a3" d="m177.5 340.5l-0.5 3q-0.1 0.5-0.6 0.5l-3.9 0.3"/><path class="a2" d="m4.4 336.2q1 4.7 5.7 4 0.3 0 0.6-0.2 0.2-0.1 0.4-0.2 0.3-0.2 0.4-0.4 0.2-0.2 0.3-0.5 1.6-3.8-0.6-7.2-0.2-0.5-0.7-0.6-4.5-1.5-5.9 1.8"/><path class="D" d="m68.3 27.2q-1.8-0.2-2.9-1.1-0.2-0.2-0.5-0.2-0.3 0-0.5 0.2-0.2 0.2-0.2 0.5 0 0.3 0.1 0.5c1 1.3 0.1 3.5 0 4.6-1 10.6-0.5 23.5-0.5 31.6-0.6 77.2-0.4 153.8-0.2 230.6q0 2.2-2 1.7l-2.9-0.7q-0.5-0.1-0.6-0.6l-1.1-6.1"/><path class="I" d="m168.9 316.1q0.1-2.6-1-4.2-0.3-0.5-0.9-0.4l-5.9 1.3"/><path class="D" d="m163.8 26.9q-0.5 19.7-0.5 39.1c-0.1 81.4-0.2 162.8 0.5 244.2q0 0.5-0.3 0.9-0.9 1-2.6 1.5"/><path class="a4" d="m236.7 297q-0.6-1.6-0.4-3.4 0-0.6-0.5-0.5-1.3 0.1-1.2 1.6 0 1.3-0.4 2.5"/><path class="a5" d="m441.2 321.4v19.1"/><path class="a6" d="m441.2 340.5q0.5 1.3-0.1 2.5-0.3 0.5-0.8 0.4-12-0.8-23.9 0.8"/><path class="a5" d="m177.5 340.5q34.8 0 69.5 0c1.3 0 2.1 0.7 3.5-0.4"/><path class="a7" d="m250.5 340.1q3.9-7.8 0-18.1"/><path class="a5" d="m250.5 322l-1.3-0.7"/><path class="a8" d="m403.2 16.5q0.4 3.7-2.1 5.4-0.3 0.2-0.6 0-4.9-3.4-9.6 0.1-0.1 0.1-0.1 0.2-0.1 0.1-0.2 0.2 0 0.1-0.1 0.2 0 0.2 0 0.3c0 4.9 0.4 9.1 0.2 14.6-0.2 11.3 0.5 26.9 0.2 40.5-0.9 55.9-0.4 118.5-0.4 177.9 0 12.6 0.8 25 1.6 37.4 0.1 2.3 0.8 4.5 1 6.8 0.3 2.2 1.5 3.7 3.9 2.6q0.2-0.1 0.4-0.2 0.2-0.1 0.3-0.3 0.2-0.1 0.3-0.3 0.2-0.2 0.2-0.4c1-2.4 2.5-6.3 6.1-5"/><path class="a9" d="m404 312.8l-0.6-1.5q-0.1-0.1-0.2-0.2 0-0.1-0.1-0.2-0.1 0-0.2-0.1-0.1-0.1-0.2-0.1-1.5-0.4-2.7 0.9 0 0-0.1 0.1 0 0-0.1 0-0.1 0.1-0.1 0.1-0.1 0-0.2 0l-10.4 1q-0.3 0-0.6 0.1-0.2 0.1-0.5 0.3-0.2 0.1-0.4 0.4-0.2 0.2-0.3 0.4-0.6 1.5 0.9 1.9c1.5 0.4 3.3-0.3 5.1 0"/><path class="aa" d="m393.3 315.9l-6.6 1.1"/><path class="G" d="m250.5 322v18.1"/><path class="a0" d="m371 21.6q-5.3-1.5-8.7-0.8c-5.3 1-4.3 11-4.2 16.8q0 1 0.5 1.6 0.3 0.4 0.2 0.9c-0.4 4.9-0.1 11.1-0.1 14.6q0.1 111.4 0 222.8 0 4 0.9 14.1 0 0.4 0.2 0.7l0.8 1.5q0.2 0.4 0.6 0.6c2.7 1.6 4.5-1.1 4.7-3.6q0-0.1 0.1-0.2 0-0.1 0.1-0.2 0.1-0.1 0.2-0.1 0.1-0.1 0.2-0.1h1q0.1 0 0.2 0 0.2 0 0.3 0 0.1-0.1 0.2-0.1 0.1-0.1 0.2-0.2 0.9-0.6 1.8-0.1 0.1 0.1 0.2 0.2 0 0 0.1 0.2 0.1 0.1 0.1 0.2 0 0.1 0 0.3-0.4 1.7 0.4 2.6"/><path class="a1" d="m370.9 314.5q-1-0.6-1.4-1.8-0.1-0.2-0.2-0.2 0-0.1-0.1-0.2-0.1-0.1-0.2-0.1-0.2 0-0.3 0c-1.5 0.2-2.7-0.3-4-0.2q-5.8 0.6-11.4 1.1"/><path class="ab" d="m536 316.6q0.2-0.1 0.4-0.1"/><path class="ac" d="m536.4 316.5q1.2 0.7 0.8 3.1"/><path class="ad" d="m537.2 319.6c-7.6 0.5-16.5-0.3-23.8 1.7"/><path class="ae" d="m513.5 321.3l-72.3 0.1"/><path class="af" d="m441.2 321.4q0-2.1-6.3-1.7"/><path class="ag" d="m422.3 316.2l9.9 0.1"/><path class="ah" d="m432.2 316.3l5 0.1q0.1 0 0.2 0 0.1-0.1 0.2-0.2 0.1 0 0.1-0.2 0-0.1 0-0.2c-0.2-4.4-0.4-9-0.4-13.4q0-126.3-0.1-252.6c0-6.6-0.4-16-0.2-24.1"/><path class="ai" d="m437 25.8l-0.2-9.6"/><path class="af" d="m441.7 208.5q0.3 53.3-0.5 93.8-0.2 7.8 0.4 13.7 0 0.5 0.5 0.6 7.7 1.2 14.9-0.4"/><path class="aj" d="m471.4 309.8q0.8-3.1 0.3-6.7"/><path class="ak" d="m472.1 303l0.2 4.8q0 0.5 0.6 0.5 1.1 0.1 1.7-0.8"/><path class="ab" d="m491.8 316.3l12.2 0.2q0.6 0 0.6-0.6l0.4-4.1"/><path class="ai" d="m505 311.8l0.1-13.5"/><path class="ah" d="m505.1 298.3l-0.4-249.3"/><path class="ad" d="m504.7 49q0.4-7.5 0.2-15c-0.1-6.3 0.3-11.9 0.7-17.9"/><path class="a4" d="m336.9 314.6q-1.2-1.5-1.1-3.6 0.1-0.5-0.4-0.5-1.3 0-1.7 1.2-0.2 0.5-0.8 0.5l-5.4 0.2"/><path class="ad" d="m337 312.2c-1.1-95.8-0.5-191.7-0.4-287.5"/><path class="al" d="m336.6 24.7l0.1-2.4"/><path class="am" d="m397 316.4l-3.7-0.5"/><path class="A" d="m472 296.1q-0.1-178.3 0.1-244.5 0-20.9-0.5-33.3"/><path class="a6" d="m555.5 8.5q0.2 0.3 0.5 0.3 0 0 0.1 0.1 0 0 0 0 0 0.1 0 0.1-0.1 0-0.1 0h-14.7q0 0 0 0.1 0 0 0 0 0 0.1 0 0.1 0 0.1 0.1 0.1 0 0 0 0 0.1 0 0.1 0 1.7-0.4 3.2 0.4 0.1 0 0.2 0.1 0.1 0.1 0.1 0.2 0.1 0.1 0.1 0.2 0 0.1 0 0.2-0.3 3.3-2.8 5.5"/><path class="a7" d="m542.3 15.9q-1.7-0.3-3.3 0-0.4 0.1-0.5 0.6l-0.3 3.3"/><path class="an" d="m538.2 19.8q-0.3-3.5-1.1-4"/><path class="ao" d="m537.1 15.8l-15.3 0.3q-0.5 0-0.7 0.4-0.9 1.9-1 2.9c-0.7 13.1 0 30.3 0 39.1q-0.1 111.4 0.2 222.7c0 3-0.5 7.4-0.2 11.2 0.3 2.9-0.5 5.4 0 8.8q0.5 3.1 0.4 13.1"/><path class="ap" d="m520.5 314.3l-0.2 0.3q-0.1 0.2-0.1 0.4 0 0.2 0.1 0.4 0.1 0.2 0.3 0.3 0.1 0.1 0.4 0.1l15 0.8"/><path class="af" d="m536 316.6q-13.4 1.1-26.9 0.3-0.5 0-0.7-0.5-0.4-1.2-0.4-2.7 0.4-124.1 0.2-297.1 0-0.5-0.4-0.8-1-0.6-2.2 0.3"/><path class="a6" d="m505.6 16.1q-0.9-0.6-1.8-0.2"/><path class="aq" d="m503.9 15.9q-8.3-0.6-15.3 0.3-1.3 0.2-1.3 1.5c0 26.6-0.6 52.7-0.5 78.8q0 103.3 0.3 206.6c0 3.8 0.4 8.1 0.5 12.2"/><path class="ap" d="m487.6 315.3q1.7 1.2 4.2 0.9"/><path class="af" d="m491.8 316.3q-8 1.6-16.1 0.4-0.5 0-0.6-0.6l-0.5-8.6"/><path class="ar" d="m474.6 307.5l0.4-279.4"/><path class="a8" d="m470.8 16.5q-0.6 1.1 0 2.2 0.2 0.5-0.1 0.9l-1.6 1.8q-0.1 0.1-0.3 0.2-0.1 0.1-0.3 0.1-0.2 0.1-0.3 0.1-0.2 0-0.4-0.1-4-1.4-7.9 0.2-0.1 0.1-0.2 0.1-0.1 0.1-0.2 0.2-0.1 0.1-0.1 0.2-0.1 0.2-0.1 0.3-0.1 0.7-0.1 1.7c-0.4 16.1 0.3 32.8 0.3 46.6 0 73.6-1.1 147.4 0.4 221 0.1 2.8 1.2 5.2 2.3 7.7q0.2 0.4 0.6 0.6 0.4 0.2 0.8 0.1 0.5 0 0.8-0.3 0.4-0.3 0.5-0.7 1.6-6.8 7.1-3.3"/><path class="as" d="m472 296.1l0.1 6.9"/><path class="ai" d="m472.1 303q-0.2 0-0.4 0.1"/><path class="at" d="m471.7 303.1q-1.3 3.4-0.3 6.7"/><path class="ai" d="m471.4 309.8l0.1 5.9q0 0.6-0.6 0.6l-13.9-0.1"/><path class="aq" d="m457 316.2q-3.3-0.1-3.1-3.5c0.7-9.8-0.4-20.8-0.4-30q0-58.3 0-116.7"/><path class="au" d="m437 25.8q-0.7-0.2-0.5 0.7 0 0.7-0.5 0.3l-0.7-0.7q-0.4-0.4-0.3-1.1 0.2-0.8-0.1-1.6-0.1-0.1-0.2-0.1 0-0.1-0.1-0.2-0.1-0.1-0.1-0.1-0.1-0.1-0.2-0.1c-1.6-0.7-2.9-2-4.5-1.9q-4.4 0-3.8 4.9"/><path class="a8" d="m426 25.9q0.1 0.7-0.2 1.3-0.3 0.4-0.3 0.9c1.6 88.3 0.6 176.7 0.5 265q0 3 0.2 6.6"/><path class="au" d="m426.2 299.7l0.2 10.6q0 0.5 0.3 0.8 1.4 1.4 4.1 1.3"/><path class="a9" d="m430.8 312.4l-10.5 0.7"/><path class="a0" d="m336.6 24.7q-0.9 0.6-1.6 0.5-0.1 0-0.2-0.1-0.1 0-0.2-0.1-0.1-0.1-0.1-0.2 0-0.2 0-0.3c0.4-2.9-2.8-3.2-5.1-3.4-6-0.5-4 5.9-4 9.2q0.5 39.5 0.3 79 0 0 0 0.1 0 0 0 0.1 0 0 0 0.1 0 0-0.1 0.1-0.1 0.2-0.1 0.6 0 95.6 0 191.3c0 2.5-1.9 10.6 2 10.8"/><path class="a1" d="m327.5 312.4c-3 1.2-5.3-1.2-7.7 2.4"/><path class="av" d="m441.2 340.5h73.4q0.1 0 0.2-0.1 0.1 0 0.2-0.1 0.1-0.1 0.1-0.2 0.1-0.1 0.1-0.3l0.2-17.7q0-0.4-0.4-0.5-0.7-0.3-1.5-0.3"/><path class="a8" d="m503.9 15.9l0.4 11.9q0 0.6-0.4 0.2c-4.4-3.8-12.5-3-11.4 4.5q0.1 0.3-0.1 0.5-0.3 0.1-0.3 0.5 1.4 15.9 1.3 31.9-0.1 45.8-0.1 91.6"/><path class="au" d="m493.3 157l-0.2 135.4q0 0.5 0.3 0.8 1.3 1.3 1.1 3.3-0.1 0.5 0.5 0.7 1.3 0.4 2 1.5c0.3 0.3 0.6 0.6 1 0.7 0.5 0.2 0.9 0.2 1.3 0.1 0.4-0.1 0.7-0.3 0.8-0.6 0.2-0.3 0.2-0.7 0-1q-0.3-0.8 0.1-1.2 0.6-0.6 0.8-0.7l2.2-0.9q0.5-0.2 0.7 0.2l0.2 0.4q0 0 0 0.1 0.1 0 0.1 0 0 0 0 0 0.1 0 0.1-0.1l0.2-0.2q0 0 0.1 0 0 0 0 0 0.1 0 0.1 0.1 0 0 0 0-0.1 1.5 0.4 2.7"/><path class="aw" d="m505 311.8q-0.9-1-1-1.7 0-0.2-0.2-0.4-0.1-0.2-0.3-0.3-0.3 0-0.5 0-0.2 0.1-0.4 0.3-1.4 1.5-3.1 2.4c-3.2 1.7-11.8-1.8-11.9 3.2"/><path class="ax" d="m432.2 316.3q2.6 0.3 4.5-0.3 0.2-0.1 0.3-0.2 0.1-0.1 0.2-0.2 0-0.1 0.1-0.3 0-0.1 0-0.2l-0.4-2.9q0-0.4-0.3-0.7-0.2-0.3-0.6-0.5-0.4-0.1-0.7 0-0.4 0.1-0.7 0.3-1.5 1.5-3.8 1.1"/><path class="ay" d="m426.2 299.7q1.7 1.2 4.6 1 0.2 0 0.4-0.1 0.3-0.1 0.4-0.3 0.2-0.2 0.3-0.4 0.1-0.2 0.1-0.5c0.5-12.1-0.2-26.5-0.2-36.3q0-67.3-0.1-134.6c0-17.1-0.3-35.4-0.1-53.2 0.1-14.4-0.2-32.1 0.8-48.2q0-0.5-0.4-0.8-2.1-1.9-6-0.4"/><path class="az" d="m556.7 317.3l4 0.2q0.5 0 0.6 0.5 0.2 0.7-0.3 1.8"/><path class="aA" d="m561 319.8l-23.8-0.3"/><path class="aB" d="m536.4 316.5q2.6 1.3 1.8-5.4"/><path class="ay" d="m504.7 49c-0.4-3.5-4.6-3-4.5 0.3q0.1 1.3 0.1 1.4-0.3 10.7-0.2 21.4 0.1 26.7 0.2 53.4c0 8.1 0.5 19-0.4 28.8q0 0.3-0.2 0.7-0.1 0.4-0.4 0.6-0.3 0.3-0.7 0.4-0.3 0.2-0.7 0.2l-3.6 0.1q-0.3 0-0.3-0.2 0-0.3 0-0.5 0.1-0.1 0-0.1 0 0 0-0.1-0.1 0-0.1 0.1 0 0 0 0l-0.6 1.5"/><path class="aC" d="m537.1 15.8q1 2.3-0.5 5.8-0.1 0.2-0.3 0.3-0.2 0.2-0.4 0.2-0.2 0.1-0.5 0.1-0.2-0.1-0.4-0.2c-3.7-2.4-7-0.4-9.8 2.8q-0.3 0.4-0.3 0.9c-0.2 7.3 0.9 15.4 0.9 21.8q0.6 49.7 0 99.5c-0.4 41.1 0.3 82.2 0.1 123.3 0 5.6 0.2 12.9 0.1 19.4q0 0.6 0.2 1 1.9 3 2.3 6.6 0.1 0.7 0.8 0.8l3.2 0.1q0.7 0.1 0.7-0.7v-3.1q0-0.2 0.1-0.3 0.1-0.2 0.3-0.3 0.2-0.1 0.4-0.1 0.1 0 0.3 0.1l3.1 1.6q0.4 0.2 0.6-0.2 0.2-0.4 0.5-0.4"/><path class="aD" d="m538.5 294.8l-0.3 16.3"/><path class="aE" d="m538.2 311.1q-5.6 1.6-12.9 1.4-2.2 0-4.8 1.7"/><path class="ay" d="m567.5 8.5q6.4 1 2.5 6.6"/><path class="a8" d="m570 15.1q-2.1-0.3-4.2 0.5"/><path class="a4" d="m565.8 15.6l-11 0.3q-1 0-1 1l0.4 297.5"/><path class="aF" d="m554.2 314.4q0.4 1.8 3.5 1.7 4.2-0.2 8.3 0.3"/><path class="aG" d="m566 316.4q-4.5 1.2-9.3 0.9"/><path class="aA" d="m556.7 317.3l-13.7-0.4q-0.3 0-0.6-0.2-0.3-0.1-0.5-0.4-0.3-0.2-0.3-0.6-0.1-0.3-0.1-0.6 0.2-1.1 0.1-2.8c-0.8-16.7-0.1-35.1-0.1-49.8q0.1-74.3 0.7-148.6c0.2-25.3-0.8-65.1 0.1-98"/><path class="aH" d="m538.2 19.8l0.3 275"/><path class="aa" d="m593.5 320l-24.9-0.6"/><path class="aG" d="m568.6 319.4l-7.6 0.4"/><path class="aI" d="m566 316.4l4.9 0.2q0.2 0 0.4-0.1 0.3-0.1 0.4-0.3 0.2-0.1 0.3-0.4 0-0.2 0-0.4l-0.3-2.4"/><path class="a8" d="m566.3 343.9l-3.7-0.2q-0.5 0-0.2-0.2c0.3-0.1 1.8 0 2.7 0q0.5 0 0.9-0.4l1.9-2.3q0-0.1 0.1-0.2 0.1-0.1 0.1-0.2 0.1-0.1 0.1-0.3 0.1-0.1 0.1-0.2c0.7-3.6-0.2-6.8 0.4-10.3q0.7-5-0.1-10.2"/><path class="aa" d="m572.4 17.8c-0.4 9.2 0.1 20.7 0.1 27.6q-0.1 165.3 0.1 219.8c0 15.7-0.3 31.5-0.8 47.2"/><path class="a9" d="m571.8 312.4q-1.7-7.8-0.3-15.1c0-0.4 0-0.8-0.3-1.2-0.2-0.3-0.5-0.6-0.9-0.7-0.4-0.2-0.8-0.2-1.2 0-0.4 0.2-0.7 0.4-0.9 0.8l-2.1 4.2q-0.1 0.1-0.2 0.1 0 0.1-0.2 0.2-0.1 0.1-0.2 0.1-0.1 0-0.2 0c-5.1-0.5-6-8.4-5.9-12.2 0.3-11.4-0.7-23-0.6-34.3q0.6-113.8 0.2-227.6 0-2.7 1.2-4c2.9-3.1 7.3-2.2 8.4 2.1q0.1 0.4 0.5 0.2l0.3-0.2q0.3-0.2 0.3-0.7c-0.1-1.5 0.9-2.1 1-3.4q0.3-1.9-0.2-3.9-0.2-0.5-0.7-0.6l-4-0.5"/><path class="am" d="m571.8 312.4l-0.1 0.6"/><path class="aJ" d="m571.7 313l-0.9-1.8q-0.4-0.7-1.1-0.3l-2.7 1.4q-0.5 0.2-1 0.1-7-1.2-11.8 2"/><path class="aC" d="m602.3 8.6q4.6 2.7 0.9 5.7-0.4 0.3-0.9 0.3-3.6-0.3-7.2 0.9"/><path class="ax" d="m595.1 15.5l-6.8 0.6q-0.2 0-0.3 0-0.1 0.1-0.2 0.2-0.1 0.1-0.1 0.2-0.1 0.1-0.1 0.3l-0.2 273.5q0 0 0 0.1 0.1 0 0.1 0.1 0 0.1 0 0.1 0 0 0.1 0.1 0.1 0.2 0.3 0.5 0.1 0.3 0.1 0.6-0.3 11.3 0.1 23 0.1 1.1 1.2 1.1l15.6 0.4"/><path class="aK" d="m604.9 316.3q-2.8 1.2-5.1 0.6-0.4-0.2-0.8 0.1-0.7 0.4-1.7 0.3-3.7-0.4-8.6 0.2"/><path class="aL" d="m588.7 317.5l-12.7-0.7q-0.6-0.1-0.6-0.7c-0.2-10-0.5-19.9-0.4-30.2 0.7-79.4 0.4-158.8 0.2-238.2 0-11.3 1.4-20.7 0.5-30.8 0-0.3-0.2-0.6-0.4-0.9-0.3-0.2-0.6-0.3-1-0.3-0.3 0-0.7 0.1-0.9 0.3-0.3 0.2-0.5 0.6-0.5 0.9q0 0.2-0.5 0.9"/><path class="au" d="m572.4 17.8q-0.1-0.5 0-1.2 0.1-0.4-0.3-0.4-1.3 0-2.1-1.1"/><path class="aM" d="m610 320h-16.5"/><path class="aN" d="m593.5 320q0.5-1.1 0.2-2-0.2-0.5-0.7-0.5h-4.3"/><path class="aE" d="m627.5 15.7c-3.6-0.3-5.1 0.5-5.1 4.2q0.2 42.3-0.2 84.6c0 7.2 0.5 16 0.4 24-1.1 56.6-0.3 113.2-0.9 169.8 0 3.6-0.8 9.1-0.3 13.7 0.1 0.7-0.2 1.2-0.4 1.8q-0.2 0.4 0.2 0.6l6.4 2.1"/><path class="aO" d="m597.2 343.9l10.5-0.1q0.1 0 0.2 0 0-0.1 0.1-0.1 0-0.1 0-0.1 0-0.1-0.1-0.1h-0.9q-0.8-0.1 0-0.2c3.7-0.8 5.3-3.2 4.9-7-0.5-4.7-1.7-10.5-0.8-14.8q0.1-0.5-0.4-0.5-0.2 0-0.4 0-0.5 0-0.5-0.3 0-0.2 0.2-0.7"/><path class="aP" d="m610 320c5 0 9.8 0.5 14.7-0.2q0.2-0.1 0.4-0.3 0.2-0.2 0.2-0.5 0-0.3-0.2-0.5-0.2-0.2-0.5-0.3c-4.7-0.3-6.9-1.8-12.5-0.7q-0.1 0-0.2 0-0.1 0-0.2 0-0.1 0-0.3-0.1-0.1-0.1-0.1-0.1c-2.5-2.1-1.5-3.8-1.5-6.5q0-146.7-0.1-293.8 0-1.3-1.2-1.5-1.9-0.3-3.2 0.8-0.4 0.3-0.4 0.8l-0.1 17.2"/><path class="aQ" d="m604.8 34.3c-1-6.9 0.8-13-0.7-18.5q-0.2-0.5-0.7-0.5l-8.3 0.2"/><path class="aR" d="m604.8 34.3l0.1 282"/><path fill-rule="evenodd" class="a2" d="m9.9 16.6q0.8-0.2 1.4-0.7 0.6-0.6 0.9-1.4 0.4-0.8 0.4-1.8 0.1-0.9-0.2-1.8-0.3-0.9-0.8-1.7-0.6-0.7-1.3-1.2-0.7-0.5-1.5-0.6-0.9-0.2-1.6 0.1-0.8 0.2-1.4 0.7-0.6 0.6-0.9 1.4-0.4 0.8-0.4 1.8-0.1 0.9 0.2 1.8 0.3 0.9 0.8 1.7 0.6 0.7 1.3 1.2 0.7 0.5 1.5 0.6 0.9 0.2 1.6-0.1z"/><path fill-rule="evenodd" class="aQ" d="m592.9 50.3c1 79-0.5 156.3 0.4 237 0.1 2.7 1.4 4.7 1.5 7.5q0 0.2 0.1 0.3 0 0.1 0.1 0.2 0.1 0.1 0.2 0.1 0.1 0.1 0.2 0.1l3.9 0.6q0.4 0.1 0.9-0.1 0.4-0.1 0.7-0.4 0.4-0.3 0.6-0.7 0.2-0.4 0.2-0.8-0.4-100.9-0.1-201c0.1-23.5 0-46.9 0.4-70.4q0-0.1-0.1-0.2 0-0.1-0.1-0.2 0-0.1-0.1-0.2-0.1 0-0.2-0.1-3-1.6-6.2-0.9-1.6 0.4-1.3 1.9 0.1 0.5-0.1 1-1.4 4.1-0.8 10.2c0.4 4.4-0.3 11-0.2 16.1z"/><path fill-rule="evenodd" class="C" d="m102.1 315.5v-2.1q0-0.1-0.1-0.2-0.1-0.2-0.2-0.3-0.1-0.1-0.2-0.2-0.1 0-0.3 0h-8.2q-1.6 0-3 0.1-1.4 0.1-2.5 0.3-1.1 0.2-1.7 0.4-0.6 0.3-0.6 0.6v0.8q0 0.2 0.6 0.5 0.6 0.2 1.7 0.4 1.1 0.2 2.5 0.3 1.4 0.1 3 0.1h8.2q0.2 0 0.3 0 0.1-0.1 0.2-0.2 0.1-0.1 0.2-0.2 0.1-0.2 0.1-0.3z"/><path fill-rule="evenodd" class="aS" d="m156.5 8.8l11.3 0.4q0.1 0.1 0.2 0.1 0.1 0.1 0.1 0.2 0.1 0.1 0 0.2 0 0-0.1 0h-0.7q-0.1 0.1-0.1 0.1-0.1 0-0.1 0.1 0 0 0 0.1 0 0 0.1 0.1 0.2 0.1 0.3 0.2 0 0 0 0.5-0.4 3.4-2.1 4l-11.5 1.2q-0.5 0.1-0.7 0.6c-1.3 4.3-0.3 10-0.6 14q-0.8 9.2-0.5 18.4c0.1 3.2-0.6 6.5-0.6 9.3q0 41.3 0 82.5c-0.4 12.6-1.8 25-1.2 37.5q0.1 1.9-0.1 3.1-0.4 2.1-0.4-0.2l-0.1-1.9q0 0 0 0-0.1 0-0.1 0 0 0 0 0-0.1 0-0.1 0.1 0 0 0 0 0 0 0 0 0.1 1.9-0.6 5c-0.8 4.2-0.2 8.8-1.3 13.2-0.8 2.9-0.1 6.7-0.2 8.7q-0.2 6.7-0.2 13.4c-0.1 6.6-2.5 13.4-4.3 19.7q-0.1 0.7-1.3 1.1-0.4 0.1-0.4 0.6 0.3 1.9-1.1 3.1-0.4 0.3-0.4-0.1v-5.9q0-0.4-0.1-0.1-0.2 0.2-0.1 0.3 0 0.2 0 0.2 0.1 10.5-0.2 20.9c-0.2-16.3 0.1-33.6 0-48.8q-0.1-84.2 0.2-168.4 0.1-12.6 0.4-25.3 0-0.5-0.4-0.7-1.8-0.8-3.5 0.3-0.5-0.2-1-0.1l-0.4-0.3q-0.1 0-0.2-0.1-0.1 0-0.2-0.1-0.1 0-0.2 0-0.1-0.1-0.2-0.1l-14.8 0.1q-0.2 0-0.3 0.1-0.1 0-0.2 0.1-0.1 0.1-0.2 0.3-0.1 0.1-0.1 0.3c0.1 17.5-0.4 35.4-0.4 52.5q-0.1 112 0 224 0 4.3 0.3 10.3 0.3 5.5 0.3 10.3 0 2.1 2.6 2.1 4 0 5.3 0.2l-19.1 0.5q-0.2 0-0.5-0.1-0.2-0.1-0.4-0.3-0.1-0.1-0.2-0.3-0.1-0.3-0.1-0.5l0.3-298.5q0-0.6-0.5-0.7-1.5-0.3-2.8 0.2l-1.3-0.1c-4.8-1.6-10.6-0.6-15.4-0.7q-0.2 0-0.4 0.1-0.2 0.1-0.4 0.2-0.1 0.2-0.2 0.4-0.1 0.2-0.1 0.4c-0.1 2.3-0.5 4.7-0.5 6.9q-0.4 121.9-0.1 243.7c0 13.9 0.5 29.9 0.4 44.9q0 0-0.3 1.9-0.3 1.2 0.5 2.8l-10.9-0.3q-0.2 0-0.4-0.1-0.2-0.1-0.4-0.3-0.2-0.2-0.3-0.4 0-0.2 0-0.5l0.2-298.7q0-0.2-0.1-0.4 0-0.1-0.2-0.3-0.1-0.1-0.3-0.2-0.2 0-0.3-0.1h-2.8q-0.4 0-0.5 0.5l-1 4-0.5-3.6q0-0.5-0.5-0.8c-2.2-1.1-11.7-0.2-14.6 0.2q-0.2 0.1-0.5 0.2-0.2 0.1-0.4 0.3-0.1 0.2-0.2 0.4-0.1 0.3-0.1 0.5-0.5 20.1-0.5 40.8-0.2 111.9-0.1 223.9 0 10.3 0.7 31.2c0 3.5 4.1 2.7 6.5 2.9l-17.5 0.7q-1.3 0.1-1.4-1.3c-0.7-17.1-0.1-35.6-0.1-51.6q0-108.1 0-216.2c0-9.1 0.6-20.7 0.5-31q0-0.5-0.5-0.7-1.7-0.7-3.5-0.1-5.4-1-11-1.7-3.7-0.5-4.6 2.6-0.1 0.4-0.3 0.7-0.2 0.3-0.6 0.5-0.3 0.3-0.7 0.4-0.4 0.1-0.8 0.1-2.6-0.2-4.5 1.3-0.2 0.1-0.2 0.3-0.1 0.1-0.1 0.3 0 0.2 0.1 0.3 0 0.2 0.2 0.3l2.9 2.4q-6.7-1.5-12.9-0.6-1.5-1-3.1-0.9l-0.2-19.2q0-0.5 0.5-0.6c4.2-1.1 15.1-3.2 19.1-0.1q0 0.1 0.1 0.2 0.1 0 0.1 0.1 0.1 0.1 0.1 0.2 0.1 0.1 0.1 0.2l0.9 4.7q0.1 0.5 0.5 0.8 1.3 0.7 2.5 0.7 11.4-0.4 40.4-0.3 46.3 0.1 92.5 0.1zm-146.6 7.8q0.8-0.2 1.4-0.7 0.6-0.6 0.9-1.4 0.4-0.8 0.4-1.8 0.1-0.9-0.2-1.8-0.3-0.9-0.8-1.7-0.6-0.7-1.3-1.2-0.7-0.5-1.5-0.6-0.9-0.2-1.6 0.1-0.8 0.2-1.4 0.7-0.6 0.6-0.9 1.4-0.4 0.8-0.4 1.8-0.1 0.9 0.2 1.8 0.3 0.9 0.8 1.7 0.6 0.7 1.3 1.2 0.7 0.5 1.5 0.6 0.9 0.2 1.6-0.1z"/><path  d="m4.7 13.2c-0.8-2.5 0.4-5.1 2.5-5.7 2.1-0.7 4.4 0.9 5.2 3.4 0.8 2.5-0.4 5.1-2.5 5.7-2.1 0.7-4.4-0.9-5.2-3.4z"/><path class="aT" d="m290.5 8.7l0.1 0.3q0.1 0.3 0.4 0.3l12.7-0.1q0.1 0 0.2 0.1 0 0 0 0.1 0.1 0.1 0 0.2 0 0.1-0.1 0.1-3.2 1.4-6.7 0.8-0.5-0.1-0.7 0.5l-1.6 4.6-8.1 0.1q-0.2 0-0.3 0.1-0.2 0.1-0.4 0.2-0.1 0.1-0.2 0.3 0 0.2 0 0.4c-0.1 15.1-0.8 30.8-0.8 45.3q0 58.9 0 117.8l-0.2-8.9q0-0.1-0.1-0.1 0 0-0.1 0 0 0 0 0 0 0-0.1 0 0 0.1 0 0.1 0 0 0 0c0.2 5 0.7 11.6-3.6 15.4q-0.2 0.1-0.4 0.2-0.2 0-0.5 0-0.2 0-0.4-0.1-0.2-0.2-0.3-0.3l-2.1-3.1q-0.1-0.2-0.3-0.2-0.1-0.1-0.3 0-0.2 0-0.3 0.2-0.1 0.2-0.1 0.4l0.4 5.7q0 0.1-0.1 0.2 0 0.2-0.1 0.3-0.1 0-0.2 0.1-0.1 0-0.3 0.1h-1.6q-0.6 0-0.6 0.5l-0.2 8.5c-0.1-60.7-0.3-121.4 0.5-182.1q0-0.5-0.5-0.7-1.6-0.7-3.5 0.2-8.4-1-16.9-0.1-0.5 0-0.6 0.5-0.7 11.7-0.7 23.5-0.1 114.9 0 229.8c0 13.3 0.1 29 0.5 43.5q-0.8 3 4.2 2.8 4.8-0.2 9.5 0.3c-8.4-0.2-16.6 0.5-24.8 0q-0.7-0.1-0.8-0.8c-0.7-13.5-0.2-30.3-0.2-40.1 0-43.4 0.4-86.9 0.1-130.3q-0.4-64.3 0.4-128.6 0-0.2-0.1-0.4-0.1-0.2-0.2-0.3-0.2-0.2-0.4-0.3-0.2 0-0.4 0l-4.2 0.1-15.8 0.4q-0.1 0.1-0.2 0.1-0.1 0-0.2 0.1-0.1 0.1-0.1 0.2-0.1 0.1-0.1 0.2-0.5 6.2-0.5 10.9 0 55.4 0 259c0 2.9 0.4 6.8 0.2 10.3l0.5 19.8-11.1 0.1q-0.2 0-0.5-0.1-0.2-0.1-0.4-0.3-0.2-0.2-0.3-0.4-0.1-0.2-0.1-0.5l0.3-299.1q0-0.1 0-0.2-0.1-0.1-0.1-0.2-0.1-0.1-0.1-0.1-0.1-0.1-0.2-0.1-1.6-0.8-3.1 0.2l-1.8-0.6q-0.6-0.6-1.3-0.5-6.9 0.5-13.8 0.7-0.5 0.1-0.8 0.5-2.2 2.8-0.8 6.1c1.1 2.6 0.3 3.7 0.3 6.1-0.2 11.4-0.9 23.2-0.9 34.2 0 83.9-0.8 168 1 251.9q0 0.6 0.5 0.8l3.1 1.1-14.6 0.2q-0.6 0-0.6-0.5-0.4-3.1-0.4-4.6c0-10.1 0.5-23.6 0.5-35.1q0.1-130-0.1-259.9 0-0.6-0.6-0.6l-3-0.1q-1.3 0-1.3 1.3l-0.2 8.7c0.2-2.4-0.7-4.1-0.8-6-0.1-2 0.7-5.3-2.6-5q1.7-0.6 2.1-4 0-0.5 0-0.5-0.1-0.1-0.3-0.2-0.1-0.1-0.1-0.1 0-0.1 0-0.1 0-0.1 0.1-0.1 0 0 0.1-0.1h0.7q0.1 0 0.1 0 0.1-0.1 0-0.2 0-0.1-0.1-0.2-0.1 0-0.2-0.1l-11.3-0.4z"/><path class="aU" d="m508 8.5q-0.4 0.3-1 0.3-1.2 0 0 0.1 0.1 0 0.3 0.1 0.6 0.2 0 0.4-1.9 0.6-3.9 0.3-0.1 0-0.1 0.1 0 0 0 0.1 0 0 0.2 0l1.2 0.3q0.7 0.2 0.6 0.9-0.1 0.9-0.9 1.4-0.4 0.3-0.3 0.8l0.2 0.9q0.1 0.6-0.5 0.6c-4.8 0.6-15.9 2.4-17.1-1.6q-0.1-0.1-0.1-0.2-0.1 0-0.2-0.1 0-0.1-0.1-0.2-0.1 0-0.2 0-3.3-1.1-5.6 1.2-0.2 0.2 0 0.3l0.3 0.3q0.1 0 0.1 0.1 0 0 0 0.1 0 0 0 0.1 0 0-0.1 0.1-2.4 1-3.8 3.3 0 0.1 0 0l-0.4-0.2q-0.3-0.1-0.4 0.3l-1.2 9.8 0.2-11.5q0-0.5-0.5-0.7-3-1-3.1 2.4 0-1.7-0.8-1.8-0.6-0.7-1.3-0.7-6.6-0.4-14.3 0.1-1.4 0-1.4 1.4l-0.3 148.7q-0.8 7.5-0.9 12.1 0 0.7-0.2 1.1 0 0 0 0.1 0 0-0.1 0 0-0.1 0-0.1 0 0 0 0 0.1-0.3-0.1-0.5-0.2-0.2-0.2 0.1c-0.1 2.9-1.6 7.5-5.4 6.9q-0.6-0.1-0.7 0.4-1.1 3.5-1.9 7c-0.7 2.7-0.4 5.8-1.1 8.8q-0.3-0.1-0.1-0.9 0 0 0-0.1-0.1-0.1-0.1-0.1-0.1 0-0.2 0 0 0.1 0 0.1c-1.1 2-0.2 5.3-0.8 7.6l0.3-191.9q0-0.6-0.6-0.7-1.8-0.5-4.6 0.3l-15.6-0.1q-0.2 0-0.4 0.1-0.2 0.1-0.4 0.2-0.1 0.1-0.2 0.3-0.1 0.2-0.1 0.4c-0.3 90.6-0.4 181.2-0.3 271.8 0 7.9 0.3 16.1 0.5 24.2q-0.8 2.6 2 3.1-1 0.8-3.1 0.9l-10-0.2q-0.3-0.1-0.5-0.2-0.3-0.1-0.5-0.3-0.2-0.2-0.3-0.4-0.1-0.3-0.1-0.5c-0.2-15.7-0.5-31-0.3-47.2 0.7-59.1 0.1-118.2 0.4-177.3 0.2-24.6-0.5-49 0.4-73.5q0.1-2.8-2.4-1.6l-1.4 0.6h-1.3q-0.6-0.5-1.2-0.5-7.3 0-14.5 0-0.2 0-0.4 0.1-0.2 0.1-0.3 0.2-0.1 0.1-0.2 0.3-0.1 0.2-0.1 0.4l0.2 300q-0.8-0.1-1.4 0.2l-10.2-0.5q-0.1 0-0.3-0.1-0.2-0.1-0.3-0.2-0.2-0.1-0.2-0.3-0.1-0.2-0.1-0.4l0.2-299.1q0-0.5-0.5-0.6-1.4-0.2-2.9 0.3-7.8-0.9-16.9-0.1-0.2 0-0.3 0.1-0.2 0.1-0.3 0.2-0.2 0.1-0.2 0.3-0.1 0.2-0.1 0.4c-0.4 15.7-0.4 31.6-0.4 47.6q-0.1 73.2 0.2 121.5c-400-193.3-400-193.3-400-193.3 0 0 399.8 194.5 399.8 194.8 0.4 25.9-0.2 53.7 0.1 81.5q0.1 22.2 0.4 43.8v1.9q0 0.1 0 0.3 0.1 0.1 0.2 0.2 0.1 0.1 0.2 0.1 0.1 0.1 0.2 0.1l13.7 0.5c-2.9 0.2-5.8 1.2-8.5 1.1q-8.5-0.3-16.9-0.7-0.3 0-0.5-0.1-0.2-0.2-0.5-0.3l0.5-299.4q0-0.6-0.6-0.8-2.1-0.9-3.9 0.3-0.5 0.3-0.5 0.8v5.2q-1-2.5-0.2-5 0.1-0.3 0.1-0.6-0.1-0.3-0.2-0.6-0.2-0.2-0.5-0.3-0.3-0.2-0.6-0.2l-14.4 0.5q-0.3 0-0.6 0.1-0.2 0.1-0.4 0.3-0.2 0.2-0.3 0.5-0.1 0.2-0.1 0.5c-0.5 88-0.3 176-0.2 263.9 0 10.8 0.3 22.1 0.5 33.4q4.5 1.7 11.3 1.5c-5-0.3-9.8 0.7-14.5 0.6q-3.3-0.1-6.7 0.1-1.2 0.1-1.8-0.2c-1.6-0.8-0.8-2.6-0.9-3.7-0.7-17 0.1-35 0.1-50.8-0.1-81.8-0.6-163.5 0.4-245.3q0-0.4-0.4-0.7-2.5-1.5-3.6 0.4-0.8 0.2-1.4 0.1c-0.7-2.1-5.7-1.3-7.5-1.2l1.6-4.6q0.2-0.6 0.7-0.5 3.5 0.6 6.7-0.8 0.1 0 0.1-0.1 0.1-0.1 0-0.2 0-0.1 0-0.1-0.1-0.1-0.2-0.1l-12.7 0.1q-0.3 0-0.4-0.3l-0.1-0.3z"/><path class="aV" d="m508 8.5h47.5q0.2 0.3 0.5 0.3 0 0 0.1 0.1 0 0 0 0 0 0.1 0 0.1-0.1 0-0.1 0h-14.7q0 0 0 0.1 0 0 0 0 0 0.1 0 0.1 0 0.1 0.1 0.1 0 0 0 0 0.1 0 0.1 0 1.7-0.4 3.2 0.4 0.1 0 0.2 0.1 0.1 0.1 0.1 0.2 0.1 0.1 0.1 0.2 0 0.1 0 0.2-0.3 3.3-2.8 5.5-1.7-0.3-3.3 0-0.4 0.1-0.5 0.6l-0.3 3.3q-0.3-3.5-1.1-4l-15.3 0.3q-0.5 0-0.7 0.4-0.9 1.9-1 2.9c-0.7 13.1 0 30.4 0 39.1q-0.1 111.4 0.2 222.7c0 3-0.5 7.4-0.2 11.2 0.3 2.9-0.5 5.4 0 8.8q0.5 3.1 0.4 13.1l-0.2 0.3q-0.1 0.2-0.1 0.4 0 0.2 0.1 0.4 0.1 0.2 0.3 0.3 0.1 0.1 0.4 0.1l15 0.8q-13.4 1.1-26.9 0.3-0.5 0-0.7-0.5-0.4-1.2-0.4-2.7 0.4-124.1 0.2-297.1 0-0.5-0.4-0.8-1-0.6-2.2 0.3-0.9-0.6-1.7-0.2-8.3-0.6-15.3 0.3-1.3 0.2-1.3 1.5c0 26.6-0.6 52.7-0.6 78.8q0.1 103.3 0.4 206.6c0 3.8 0.4 8.1 0.5 12.2q1.7 1.2 4.2 1-8 1.6-16.1 0.4-0.5 0-0.6-0.6l-0.5-8.6 0.4-279.4 1.2-9.8q0.1-0.4 0.4-0.3l0.4 0.2q0 0.1 0 0 1.4-2.3 3.8-3.3 0.1-0.1 0.1-0.1 0-0.1 0-0.1 0-0.1 0-0.1 0-0.1-0.1-0.1l-0.3-0.3q-0.2-0.1 0-0.3 2.3-2.3 5.6-1.2 0.1 0 0.2 0 0.1 0.1 0.1 0.2 0.1 0.1 0.2 0.1 0 0.1 0.1 0.2c1.2 4 12.3 2.2 17.1 1.6q0.6 0 0.5-0.6l-0.2-0.9q-0.1-0.5 0.3-0.8 0.8-0.5 0.9-1.4 0.1-0.7-0.6-0.8l-1.2-0.3q-0.2-0.1-0.2-0.1 0-0.1 0-0.1 0-0.1 0.1-0.1 2 0.3 3.9-0.3 0.6-0.2 0-0.4-0.2-0.1-0.3-0.1-1.2-0.1 0-0.1 0.6 0 1-0.3z"/><path class="aW" d="m555.5 8.5h12q6.4 1 2.5 6.6-2.1-0.3-4.2 0.5l-11 0.3q-1 0-1 1l0.4 297.5q0.4 1.8 3.6 1.7 4.1-0.2 8.2 0.3-4.5 1.2-9.3 0.9l-13.7-0.4q-0.3 0-0.6-0.2-0.3-0.1-0.5-0.4-0.3-0.2-0.3-0.6-0.1-0.3-0.1-0.6 0.2-1.1 0.1-2.8c-0.7-16.7-0.1-35.1-0.1-49.8q0.1-74.3 0.7-148.6c0.2-25.3-0.8-65.1 0.1-98q2.5-2.2 2.8-5.6 0 0 0-0.1 0-0.1-0.1-0.2 0-0.1-0.1-0.2-0.1-0.1-0.2-0.1-1.4-0.8-3.2-0.4 0 0-0.1 0 0 0 0 0-0.1 0-0.1-0.1 0 0 0-0.1 0 0 0 0 0-0.1 0-0.1h14.7q0 0 0.1 0 0 0 0-0.1 0 0 0 0-0.1-0.1-0.1-0.1-0.3 0-0.5-0.3z"/><path class="aX" d="m567.5 8.5l34.8 0.1q4.6 2.7 0.9 5.7-0.4 0.3-0.9 0.3-3.6-0.3-7.2 0.9l-6.8 0.6q-0.2 0-0.3 0-0.1 0.1-0.2 0.2-0.1 0.1-0.1 0.2-0.1 0.1-0.1 0.2l-0.2 273.6q0 0 0 0.1 0.1 0 0.1 0.1 0 0.1 0 0.1 0 0 0.1 0.1 0.1 0.2 0.3 0.5 0.1 0.3 0.1 0.6-0.3 11.3 0.1 23 0.1 1.1 1.2 1.1l15.6 0.4q-2.8 1.2-5.1 0.6-0.4-0.2-0.8 0.1-0.7 0.4-1.7 0.3-3.7-0.4-8.6 0.2l-12.7-0.7q-0.5-0.1-0.6-0.7c-0.2-10.1-0.5-19.9-0.4-30.2 0.7-79.4 0.4-158.8 0.2-238.2 0-11.3 1.4-20.7 0.6-30.8-0.1-0.3-0.3-0.6-0.5-0.9-0.3-0.2-0.6-0.3-1-0.3-0.3 0-0.7 0.1-0.9 0.3-0.3 0.2-0.5 0.6-0.5 0.9q0 0.2-0.5 0.9-0.1-0.5 0-1.2 0.1-0.4-0.3-0.4-1.3 0-2.1-1.1 3.9-5.6-2.5-6.6z"/><path class="aY" d="m602.3 8.6l23.1 0.2q0.2 0 0.3 0 0.1 0 0.2 0.1 0.2 0 0.3 0.1 0.1 0.1 0.2 0.2 2.1 2.1 1.1 6.5c-3.6-0.3-5.1 0.5-5.1 4.2q0.2 42.3-0.2 84.6c0 7.2 0.5 16 0.4 24-1.1 56.6-0.3 113.2-0.8 169.8-0.1 3.6-0.9 9.1-0.4 13.7 0.1 0.7-0.2 1.2-0.4 1.8q-0.2 0.4 0.2 0.6l6.4 2.1 0.1 25.2q0 0.4-0.1 0.9-0.2 0.4-0.5 0.7-0.4 0.3-0.8 0.5-0.4 0.2-0.8 0.2l-28.3-0.1 10.5-0.1q0.1 0 0.2 0 0-0.1 0.1-0.1 0-0.1 0-0.1 0-0.1-0.1-0.1h-0.9q-0.8-0.1 0-0.2c3.7-0.8 5.3-3.2 4.9-7-0.5-4.7-1.7-10.5-0.8-14.8q0.1-0.5-0.3-0.5-0.3 0-0.5 0-0.5 0-0.5-0.3 0-0.2 0.2-0.7c5 0 9.8 0.5 14.7-0.2q0.2-0.1 0.4-0.3 0.2-0.2 0.2-0.5 0-0.3-0.2-0.5-0.2-0.2-0.5-0.3c-4.7-0.3-6.9-1.8-12.5-0.7q-0.1 0-0.2 0-0.1 0-0.2 0-0.1 0-0.3-0.1-0.1-0.1-0.1-0.1c-2.5-2.1-1.5-3.8-1.5-6.5q0-146.7-0.1-293.8 0-1.3-1.2-1.5-1.9-0.3-3.2 0.8-0.4 0.3-0.4 0.8l-0.1 17.2c-1-7 0.7-13-0.7-18.5q-0.2-0.5-0.7-0.5l-8.3 0.2q3.6-1.2 7.2-1 0.5 0.1 0.9-0.2 3.7-3-0.9-5.7z"/><path class="aZ" d="m35.5 16v8.9q-6.5-0.1-11.7 1.4-0.2 0.1-0.3 0.1-0.1 0.1-0.2 0.2-0.1 0.1-0.1 0.3-0.1 0.1-0.1 0.2c-0.3 3.8 0.2 7.8-0.3 11.3q-0.6 4.4-1.3 8.8c-0.6 3.3 0.1 6.4 0.1 9.4q-0.3 22.5 0.1 45.1c0.1 1.9-0.5 3.9-0.5 5.8q0.1 38 0.1 75.9c0.1 22.2 0.3 44.4 0.3 66.6q0 13.2 0.7 18c0.7 4.9 0.3 8.7 0.8 12.9 0.3 3.3-0.5 17.7 4.2 17.9q0.5 0 3.2-1.1 1.7-0.7 3.7-0.4 0.5 0.1 0.5 0.6 0 1.7 0.8 0.9-0.5 7.5 0 16.4 0.1 1.5-1.2 1.2-7-0.6-13.9-0.4c-1.1 0.1-2.1 0.7-3.2 0.9q-0.5 0.7-1 0.1-0.1-0.1-0.1-0.2-0.1 0-0.1-0.1 0-0.1 0-0.2-0.1 0-0.1-0.1l-0.2-37.7q0.5-37.3 0.2-74.7c-0.1-5.6 0.4-12.5 0.3-18.7q-0.4-13.9-0.4-14.1 0-61.8 0.1-123.5 0-0.6 0.2-3.2c0.2-2.6-0.4-5.5-0.3-7.8q0.4-6.4 0.1-13.2l-2.9-2.4q-0.2-0.1-0.2-0.3-0.1-0.1-0.1-0.3 0-0.2 0.1-0.3 0-0.2 0.2-0.3 1.9-1.5 4.5-1.3 0.4 0 0.8-0.1 0.4-0.1 0.7-0.4 0.4-0.2 0.6-0.5 0.2-0.3 0.3-0.7 0.9-3.1 4.6-2.6 5.6 0.7 11 1.7z"/><path class="aZ" d="m165.4 14.8c3.3-0.3 2.5 3 2.6 5 0.1 1.9 1 3.6 0.8 6v1.4q-3.5-1.1-5-0.3-2.1-1.9-4.1-0.4c-3.5 2.8-1.9 13.4-1.9 17.1-0.2 84.1 0.1 168.1 0 252.1q0 7.7 0.8 15.2 0.1 0.4 0.4 0.7 1.1 0.9 1.9 1 0.1 0.1 0.2 0.2c-3.1-0.1-7.8-1.1-9.2 2.6l-0.4-174.7q0-41.2 0-82.4c0-2.8 0.7-6.1 0.6-9.3q-0.3-9.2 0.5-18.4c0.3-4-0.7-9.8 0.6-14q0.2-0.5 0.7-0.6z"/><path class="aZ" d="m201.8 15.5c-0.4 3.6 1.3 7.4 0.6 10.2q-0.2 0-0.1-1.8 0 0-0.1-0.1 0 0 0 0-0.1 0-0.1 0 0 0-0.1 0-1.6 2.5-4 2.6 1.1-3.9-1.8-5.3-0.5-0.2-1-0.2-0.4 0-0.9 0.2-0.4 0.2-0.8 0.5-0.3 0.4-0.5 0.8-0.5 1.1-1.5 1.8-0.1 0.1-0.2 0.2-0.1 0-0.1 0.1-0.1 0.1-0.1 0.3 0 0.1 0 0.2c0 9.6 0.7 20 0.7 28.7q-0.1 115.9-0.1 231.7 0 5.7 1.5 9.4c0.9 2.2 3.5 1.3 4.7-0.3q1.9-0.4 3.6 0 0.1 0.1 0.2 0.1 0.1 0.1 0.2 0.2 0.1 0 0.2 0.1 0 0.2 0.1 0.3l0.7 2.6 0.1 17.1q0 0.3-0.1 0.6-0.1 0.3-0.3 0.5-0.2 0.2-0.5 0.4-0.3 0.1-0.6 0.1l-12.4-0.1-3.1-1.1q-0.5-0.2-0.5-0.8c-1.8-83.9-1-168-1-251.9 0-11 0.7-22.8 0.9-34.2 0-2.4 0.8-3.5-0.3-6.1q-1.4-3.3 0.8-6.1 0.3-0.4 0.8-0.5 6.9-0.2 13.8-0.7 0.7-0.1 1.3 0.5z"/><path class="b0" d="m570 15.1q0.8 1.1 2.1 1.1 0.4 0 0.3 0.4-0.1 0.7 0 1.2c-0.4 9.2 0.1 20.7 0.1 27.6q-0.1 165.3 0.1 219.8c0 15.7-0.3 31.5-0.8 47.2q-1.7-7.8-0.3-15.1c0-0.4 0-0.8-0.3-1.2-0.2-0.3-0.5-0.6-0.9-0.7-0.4-0.2-0.8-0.2-1.2 0-0.4 0.2-0.7 0.4-0.9 0.8l-2.1 4.2q-0.1 0.1-0.2 0.1 0 0.1-0.2 0.2-0.1 0.1-0.2 0.1-0.1 0-0.2 0c-5.1-0.5-6-8.4-5.9-12.2 0.3-11.4-0.7-23-0.6-34.3q0.6-113.8 0.2-227.6 0-2.7 1.2-4c2.9-3.1 7.3-2.2 8.4 2.1q0.1 0.4 0.5 0.2l0.3-0.2q0.3-0.2 0.3-0.7c-0.1-1.5 0.8-2.1 1-3.4q0.3-2-0.2-3.9-0.2-0.5-0.7-0.6l-4-0.6q2.1-0.8 4.2-0.5z"/><path fill-rule="evenodd" class="b1" d="m604.8 34.3l0.1 282-15.6-0.4q-1.1 0-1.2-1.1-0.4-11.7-0.1-23 0-0.3-0.1-0.6-0.2-0.3-0.3-0.5-0.1-0.1-0.1-0.1 0 0 0-0.1 0-0.1-0.1-0.1 0-0.1 0-0.1l0.3-273.6q-0.1-0.1 0-0.2 0-0.1 0.1-0.2 0.1-0.1 0.2-0.2 0.1 0 0.3 0l6.8-0.6 8.3-0.2q0.5 0 0.7 0.5c1.4 5.5-0.3 11.6 0.7 18.5zm-11.9 16c1 79-0.5 156.3 0.4 237 0.1 2.7 1.4 4.7 1.5 7.5q0 0.2 0.1 0.3 0 0.1 0.1 0.2 0.1 0.1 0.2 0.1 0.1 0.1 0.2 0.1l3.9 0.6q0.4 0.1 0.9-0.1 0.4-0.1 0.7-0.4 0.4-0.3 0.6-0.7 0.2-0.4 0.2-0.8-0.4-100.9-0.1-201c0.1-23.5 0-46.9 0.4-70.4q0-0.1-0.1-0.2 0-0.1-0.1-0.2 0-0.1-0.1-0.2-0.1 0-0.2-0.1-3-1.6-6.2-0.9-1.6 0.4-1.3 1.9 0.1 0.5-0.1 1-1.4 4.1-0.8 10.2c0.4 4.4-0.3 11-0.2 16.1z"/><path class="aZ" d="m68.2 20.3l0.3 2.2q-7.9-2.8-11 0.5c-2.4 2.7-1.6 6.5-1 10q0.8 3.9 0 12.5c-0.3 3.5 0.6 6.4 0.5 9.2-0.4 7 0 15.9 0 20.7q0 106.5 0 212.8-0.9 12.3 0.6 24.6l-6.1 0.5q-0.7-20.9-0.7-31.2-0.1-112 0.1-223.9 0-20.7 0.5-40.8 0-0.2 0.1-0.5 0.1-0.2 0.2-0.4 0.2-0.2 0.4-0.3 0.3-0.1 0.5-0.2c2.9-0.4 12.4-1.3 14.6-0.2q0.5 0.3 0.5 0.8z"/><path fill-rule="evenodd" class="aZ" d="m101.7 16.4l0.3 3.8q0 0.5-0.5 0.7c-2.7 1.3-4.5-0.2-6.6-0.1-7.2 0.6-5.6 10.1-5.1 15q0.5 5.4 0 11.7c-0.3 4.3 0.2 8.6 0.2 12q0.2 103.3 0.3 206.6c0 4.2 0.5 12.2-0.1 18.4q0 0.1 0 0.3 0 0.1 0.1 0.2 0 0.1 0 0.2 0.1 0.1 0.1 0.2c1.9 4.3-0.3 8.4 2.4 13.5q0 0.1 0.1 0.1 0.1 0.1 0.2 0.2 0.1 0.1 0.2 0.1 0.1 0.1 0.2 0.1 2.2 0.4 3.3-1.6 0.3-0.6 0.9-0.6l3.5-0.4q0.5 0 0.6 0.5l1.1 6.5-0.2 11.8q0 0.2-0.1 0.4-0.1 0.2-0.2 0.3-0.1 0.1-0.3 0.2-0.2 0.1-0.4 0.1l-13.6 0.3-2.9 0.1q-0.8-1.6-0.5-2.8 0.3-1.9 0.3-1.9c0.1-15-0.4-31-0.4-44.9q-0.3-121.8 0.1-243.7c0-2.2 0.4-4.6 0.5-6.9q0-0.2 0.1-0.4 0.1-0.2 0.2-0.4 0.2-0.1 0.4-0.2 0.2-0.1 0.4-0.1c4.8 0.1 10.6-0.9 15.4 0.7zm0.4 299.1v-2.1q0-0.1-0.1-0.2-0.1-0.2-0.2-0.3-0.1-0.1-0.2-0.2-0.1 0-0.3 0h-8.2q-1.6 0-3 0.1-1.4 0.1-2.5 0.3-1.1 0.2-1.7 0.4-0.6 0.3-0.6 0.6v0.8q0 0.2 0.6 0.5 0.6 0.2 1.7 0.4 1.1 0.2 2.5 0.3 1.4 0.1 3 0.1h8.2q0.2 0 0.3 0 0.1-0.1 0.2-0.2 0.1-0.1 0.2-0.2 0.1-0.2 0.1-0.3z"/><path class="aW" d="m201.8 15.5l1.8 0.6c-1 6.3-0.7 14.1-0.8 18.7q-0.2 7.2 0.2 14.5c0.1 1.9-0.5 3.9-0.5 5.6 0.3 72.8 0.6 145.5 0.2 218.2 0 7 0.5 16.5 0.2 24.7l-0.7-2.6q-0.1-0.1-0.1-0.3-0.1-0.1-0.2-0.1-0.1-0.1-0.2-0.2-0.1 0-0.2-0.1-1.7-0.4-3.6 0-0.4-16.1-0.4-31.5-0.1-107.6 0.3-215.2 0-10.9 0.3-21.4 2.3-0.1 3.9-2.6 0.1 0 0.1 0 0 0 0.1 0 0 0 0 0 0.1 0.1 0.1 0.1-0.1 1.8 0.1 1.8c0.7-2.8-1-6.6-0.6-10.2z"/><path class="b2" d="m219.2 316.8l16.4-0.2q0.8 0 0.8-0.8l0.3-18.8c-0.9-63.5-0.5-131.7-0.4-226.3 0-5.5 0.5-12.3 0.3-17.6q-0.3-13.2-0.4-26.3l-0.8-11 4.2-0.1q0.2 0 0.4 0 0.2 0.1 0.4 0.3 0.1 0.1 0.2 0.3 0.1 0.2 0.1 0.4-0.8 64.3-0.4 128.6c0.3 43.4-0.1 86.9-0.1 130.3 0.1 9.8-0.5 26.6 0.2 40.1q0.1 0.7 0.8 0.8c8.2 0.6 16.4-0.2 24.8 0l3.3-0.1q0.6 0 0.7-0.6l0.2-3.4 0.3-17.7-0.4-273-0.1-5.5q1.9-0.9 3.5-0.2 0.5 0.2 0.5 0.7c-0.8 60.7-0.6 121.4-0.5 182.1 0 49-0.9 79.6 0.3 117.2q0.1 0.5 0.6 0.6 8.3 1.2 16.6-0.1l11.1 0.3q0.2 0 0.5-0.1 0.3-0.2 0.5-0.4 0.2-0.2 0.3-0.4 0.1-0.3 0.1-0.6l-0.1-4.8 0.3-20.5v-273.3q1.1-1.9 3.6-0.4 0.4 0.3 0.4 0.7c-1 81.8-0.5 163.5-0.4 245.3 0 15.8-0.8 33.8-0.1 50.8 0.1 1.1-0.7 2.9 0.9 3.7q0.6 0.3 1.8 0.2 3.4-0.2 6.7-0.1c4.7 0.1 9.5-0.9 14.5-0.6h5q0.4 0 0.5-0.4l0.3-1.3q0.4-1.4 0.1-2.4 1.6 0.5 1.7 2.5 0 0.5 0.5 0.7l2 0.8q0.3 0.1 0.5 0.3 0.2 0.1 0.5 0.1 8.4 0.4 16.9 0.7c2.7 0.1 5.6-0.9 8.5-1.1h2.4q0.6 0 0.7-0.6l0.2-1.1 0.1-21.2v-271.7-5.3q1.5-0.5 2.9-0.3 0.5 0.1 0.5 0.6l-0.2 299.1q0 0.2 0.1 0.4 0 0.2 0.2 0.3 0.1 0.1 0.3 0.2 0.2 0.1 0.3 0.1l10.2 0.5 11.7-0.8 6.3-0.2q0.6-0.1 0.6-0.6l0.1-2.8 0.3-16.3c-0.1-81.9-0.8-164 0.2-245.9 0.1-11.4-0.5-22.7 0-34.1l1.4-0.6q2.5-1.2 2.4 1.6c-0.9 24.5-0.2 48.9-0.4 73.5-0.3 59.1 0.3 118.2-0.4 177.3-0.2 16.2 0.1 31.5 0.3 47.2q0 0.2 0.1 0.5 0.1 0.2 0.3 0.4 0.2 0.2 0.5 0.3 0.2 0.1 0.5 0.2l10 0.2 15-0.2q0.1 0 0.2 0 0.1 0 0.2 0.1 0.1 0 0.2 0.1 0.1 0 0.2 0.1 1.3 1.5-0.1 2.5c-23.4 0.3-47.5-0.4-71.2 0q-24.6 0.4-49.2 0c-20.6-0.3-41.2 0.3-61.7 0.3q-1.2 0-3.6 1.3l-69.4 0.4q-6.3-2.5-14.1-1.7 1.1-0.5 1.2-1 0.1-0.4 0-0.7-0.1-0.4-0.3-0.7-0.3-0.3-0.6-0.5-0.3-0.2-0.7-0.2h-11.1l12.8-0.5 1.9-0.3-0.1-288.9v-1.4l0.2-8.7q0-1.3 1.3-1.3h3q0.6 0.1 0.6 0.7 0.2 129.9 0.1 259.9c0 11.5-0.5 25-0.5 35.1q0 1.5 0.4 4.6 0 0.5 0.6 0.5l14.6-0.2 12.4 0.1q0.3 0 0.6-0.1 0.3-0.2 0.5-0.4 0.2-0.2 0.3-0.5 0.1-0.3 0.1-0.6l-0.1-17.1c0.3-8.3-0.2-17.7-0.2-24.7 0.4-72.7 0.1-145.5-0.2-218.2 0-1.7 0.6-3.7 0.5-5.7q-0.4-7.2-0.2-14.4c0.1-4.6-0.2-12.4 0.8-18.7q1.6-1 3.1-0.2 0.1 0 0.2 0.1 0 0 0.1 0.1 0 0.1 0.1 0.2 0 0.1 0 0.2l-0.3 299.1q0 0.3 0.1 0.5 0.1 0.2 0.3 0.4 0.2 0.2 0.4 0.3 0.3 0.1 0.5 0.1z"/><path class="b3" d="m294.8 15.6c1.8-0.1 6.8-0.9 7.5 1.2l-0.1 7.8q0 0.3-0.2 0.5-0.2 0.2-0.5 0.3-0.3 0-0.5-0.1-0.3-0.2-0.4-0.5c-1.5-4.9-10.2-5.8-10-0.8 1.4 34.7 1.2 58.5 1 95.5-0.3 41.5-0.3 105.6 0.3 176.3q0 0.5 0.3 1 0.2 0.5 0.6 0.9 0.5 0.4 1 0.5 0.6 0.2 1.1 0.1 2.1-0.4 3-2.1 0.1-0.2 0.1 0v0.5q0.1 0 0.1 0 0 0 0 0 0 0 0.1 0 0 0 0 0l0.4-2.1q0.1-0.1 0.1-0.2 0-0.1 0.1-0.2 0.1 0 0.2-0.1 0-0.1 0.1-0.1l4-1.2q0.1-0.1 0.1-0.1 0.1-0.1 0.2-0.1 0-0.1 0.1-0.2 0-0.1 0-0.2l0.2-2.2-0.3 20.5-1.3-4.9q0-0.2-0.2-0.4-0.1-0.1-0.3-0.1-0.2 0-0.4 0.1-0.1 0.1-0.2 0.3-1.3 3.1-0.8 6.6 0 0.1 0 0.2 0 0.1-0.1 0.2-0.1 0.1-0.2 0.1-0.1 0.1-0.2 0.1l-11.9 0.5q-0.5 0-0.8 0.4l-1 1.8c-1.5-35.3-1-76.3-1-135.7q0-58.8 0-117.7c0-14.5 0.7-30.3 0.8-45.3q0-0.2 0-0.4 0.1-0.2 0.2-0.3 0.2-0.1 0.4-0.2 0.1-0.1 0.3-0.1z"/><path class="b4" d="m341.2 316.2l-2-0.8q-0.5-0.2-0.5-0.7-0.1-2-1.7-2.5c-1.1-95.8-0.5-191.7-0.4-287.5l0.1-2.4v-5.2q0-0.5 0.5-0.8 1.8-1.2 3.9-0.3 0.6 0.2 0.6 0.8z"/><path class="b0" d="m470.8 16.5q-0.6 1.1 0 2.2 0.2 0.5-0.1 0.9l-1.6 1.8q-0.1 0.1-0.3 0.2-0.1 0.1-0.3 0.1-0.2 0.1-0.3 0.1-0.2 0-0.4-0.1-4-1.4-7.9 0.2-0.1 0.1-0.2 0.1-0.1 0.1-0.2 0.2-0.1 0.1-0.1 0.2-0.1 0.2-0.1 0.3-0.1 0.7-0.1 1.7c-0.4 16.1 0.3 32.8 0.3 46.6 0 73.6-1.1 147.4 0.4 221 0.1 2.8 1.2 5.2 2.3 7.7q0.2 0.4 0.6 0.6 0.4 0.2 0.8 0.1 0.5 0 0.8-0.3 0.4-0.3 0.5-0.7 1.6-6.8 7.1-3.3l0.1 6.9q-0.2 0-0.4 0.1-1.3 3.4-0.3 6.7l0.1 5.9q0 0.6-0.6 0.6l-13.9-0.1q-3.3-0.1-3.1-3.5c0.7-9.8-0.4-20.8-0.4-30q0-58.3 0-116.7l0.3-148.7q0-1.4 1.4-1.5 7.7-0.4 14.3 0 0.7 0 1.3 0.7z"/><path class="b4" d="m536 316.6q0.2-0.1 0.4-0.1 1.2 0.7 0.8 3c-7.6 0.6-16.5-0.2-23.7 1.8l-72.3 0.1q0-2.1-6.3-1.7 1.4-1 0.1-2.5-0.1-0.1-0.2-0.1-0.1-0.1-0.2-0.1-0.1-0.1-0.2-0.1-0.1 0-0.2 0l-15 0.2q2.1-0.1 3.1-0.9h9.9l5 0.2q0.1 0 0.2 0 0.1-0.1 0.2-0.2 0.1 0 0.1-0.2 0-0.1 0-0.2c-0.2-4.4-0.5-9-0.5-13.4q0.1-126.3 0-252.6c0-6.6-0.4-16-0.2-24.1l-0.2-9.5q2.8-0.8 4.6-0.3 0.6 0.1 0.6 0.7l-0.3 191.9q0.3 53.3-0.5 93.7-0.2 7.9 0.4 13.8 0 0.5 0.5 0.6 7.6 1.2 14.9-0.4l13.9 0.1q0.6 0 0.6-0.6l-0.1-5.9q0.8-3.1 0.3-6.7 0.2-0.1 0.4-0.1l0.2 4.8q0 0.5 0.6 0.5 1.1 0 1.7-0.8l0.5 8.6q0.1 0.6 0.6 0.6 8.1 1.2 16.1-0.5l12.2 0.3q0.6 0 0.6-0.6l0.4-4.1 0.1-13.5-0.4-249.3q0.4-7.5 0.2-15c-0.1-6.3 0.3-11.9 0.7-17.9q1.2-0.9 2.2-0.3 0.4 0.3 0.4 0.8 0.2 173-0.2 297.1 0 1.5 0.4 2.7 0.2 0.5 0.7 0.5 13.5 0.8 26.9-0.3z"/><path class="b5" d="m610 320h-16.5q0.5-1.1 0.2-2-0.2-0.5-0.7-0.5h-4.3q4.9-0.6 8.6-0.2 1 0.1 1.7-0.3 0.4-0.3 0.8-0.1 2.3 0.6 5.1-0.6l-0.1-282 0.1-17.2q0-0.5 0.4-0.8 1.3-1.1 3.2-0.8 1.2 0.2 1.2 1.5 0.1 147.1 0.1 293.8c0 2.7-1 4.4 1.5 6.5q0 0 0.1 0.1 0.2 0.1 0.3 0.1 0.1 0 0.2 0 0.1 0 0.2 0c5.6-1.1 7.8 0.4 12.5 0.7q0.3 0.1 0.5 0.3 0.2 0.2 0.2 0.5 0 0.3-0.2 0.5-0.2 0.2-0.4 0.3c-4.9 0.7-9.7 0.2-14.7 0.2z"/><path class="b6" d="m627.5 15.7q0.3 16.9 0.4 34.4 0.7 130.2-0.2 260.4c0 1.6-0.4 4-0.1 6l-6.4-2.1q-0.4-0.2-0.2-0.6c0.2-0.6 0.5-1.1 0.4-1.8-0.5-4.6 0.3-10.1 0.4-13.7 0.5-56.6-0.3-113.2 0.8-169.8 0.1-8-0.4-16.8-0.4-24q0.4-42.3 0.2-84.6c0-3.7 1.5-4.5 5.1-4.2z"/><path class="b2" d="m58 316.2h9.8q0.6 0 0.6-0.6v-2.8l-0.2-285.6 0.3-4.7-0.3-2.2 1-4.1q0.1-0.4 0.5-0.4h2.8q0.1 0 0.3 0 0.2 0.1 0.3 0.2 0.2 0.2 0.2 0.3 0.1 0.2 0.1 0.4l-0.2 298.8q0 0.2 0 0.4 0.1 0.2 0.3 0.4 0.2 0.2 0.4 0.3 0.2 0.1 0.4 0.1l10.9 0.3 2.9-0.1q-4.5 0.4-3.6 3.2c-22.4 0-45.4-1.3-67.7 0.6q-0.5 0-0.5-0.5 0.2-1.6 1-3.1c5.9-0.1 11.1 0 17-0.7q1.3 0.3 1.2-1.1-0.5-9 0-16.5v-273.9-8.9q1.8-0.6 3.5 0.1 0.5 0.2 0.5 0.7c0.1 10.3-0.5 21.9-0.5 31q0 108.1 0 216.2c0 16.1-0.6 34.5 0.1 51.6q0.1 1.4 1.4 1.3z"/><path class="aZ" d="m135 16.5c-0.5 1.6 0.6 4.4-2 4.9q-0.4 0.1-0.6-0.3c-0.3-0.8-0.6-1.1-1.5-1.2q-2.2-0.3-4.3-0.8-0.5-0.1-1.1 0-0.5 0.1-0.9 0.4-0.4 0.4-0.7 0.8-0.2 0.5-0.2 1.1 0 1.2-0.9 2-0.1 0.1-0.1 0.2-0.1 0-0.1 0.1-0.1 0.1-0.1 0.2 0 0.1 0 0.2c0.3 6 1.3 12.1 1.3 18 0 11 0.4 22.7 0.4 32.9q0 104.5 0.1 208.9l0.8 11.5q0 0.3 0.2 0.5 0.1 0.2 0.4 0.3 0.2 0.1 0.5 0.1 0.2 0 0.5-0.1 1.6-0.9 3.4-1.4 0.1 0 0.1 0.1v0.3q0.1 0.3 0.3 0.1 1.7-1.2 2.5-3 0.2-0.4 0.5-0.6 0.4-0.2 0.8-0.1 0.4 0.1 0.7 0.4 0.3 0.3 0.3 0.7 0 0.5 0.8 0.6l-0.4 20.7q-0.6-0.9-0.8-2.1-0.1-0.5-0.7-0.6-1-0.3-1.6 0.7-0.3 0.5-0.9 0.5l-13.3 1.4q0-4.8-0.3-10.3-0.3-6-0.3-10.3-0.1-112 0-224.1c0-17 0.5-34.9 0.4-52.4q0-0.2 0.1-0.3 0.1-0.2 0.2-0.3 0.1-0.1 0.2-0.1 0.1-0.1 0.3-0.1l14.8-0.1q0.1 0 0.2 0.1 0.1 0 0.2 0 0.1 0.1 0.2 0.1 0.1 0.1 0.2 0.1z"/><path class="aZ" d="m235.4 15.8l0.8 11-1.8-0.2q-0.5 0-0.5-0.5c0.7-5-5-7.4-8.2-4.3-3 2.8-1.1 13.1-1.3 16.9-0.6 11.3 0.3 25.7 0.4 33.7 0.3 38.4-0.1 76.7 0.1 115q0.2 46 0.1 92c-0.1 6.5-0.6 12.9 0.7 19.7q0.1 0.6 0.6 0.9l4.9 2.6q0.3 0.1 0.6 0.1 0.4-0.1 0.6-0.3 0.3-0.2 0.4-0.5 0.1-0.3 0-0.7-0.6-2.2 1.4-4c0.1 5 1 10.9-1.7 15.2q-0.3 0.6-1 0.6l-9.4-0.2q-1.4 0-1.5-1.4l-0.7-14.2q0-0.5-0.5-0.5-0.4 0.1-0.7 0.3c0.2-3.5-0.2-7.4-0.2-10.3q0-203.6 0-258.9 0-4.8 0.5-11 0-0.1 0.1-0.2 0-0.1 0.1-0.2 0.1-0.1 0.2-0.1 0.1 0 0.2-0.1z"/><path class="b3" d="m270 16.2l0.1 5.5c-2.7 1.2-7.5-0.2-10.4-0.8q-0.2 0-0.4 0-0.2 0-0.4 0.1-0.2 0.1-0.4 0.3-0.1 0.2-0.2 0.4c-1.3 3.3-1.4 5.8-1 9.7 0.4 4.1-0.1 8.7 0 12.1 0.3 12.9 0.6 25.6 0.7 38.8q0.1 82.2-0.2 164.4c-0.1 11 0.5 28.3-0.2 42.5-0.1 2.9 1.9 9 6.1 7q0.4-0.2 0.5-0.6l0.2-1.4q0.2-0.7 0.9-0.4 2.5 1.1 5.2 0.9l-0.3 17.7-17.9 1c-0.4-14.5-0.5-30.2-0.5-43.5q-0.1-114.9 0-229.8 0-11.8 0.7-23.5 0.1-0.5 0.6-0.5 8.5-0.9 16.9 0.1z"/><path class="b3" d="m336.7 22.3l-0.1 2.4q-0.9 0.6-1.6 0.5-0.1 0-0.2-0.1-0.1 0-0.2-0.1-0.1-0.1-0.1-0.2 0-0.2 0-0.3c0.4-2.9-2.8-3.3-5.1-3.4-6-0.5-4 5.9-4 9.1q0.5 39.6 0.3 79.1 0 0 0 0.1 0 0 0 0.1 0 0 0 0.1 0 0-0.1 0.1-0.1 0.2-0.1 0.6 0 95.6 0 191.3c0 2.5-1.9 10.6 2 10.8-3 1.2-5.3-1.2-7.7 2.4-0.2-11.3-0.5-22.6-0.5-33.4 0-88-0.2-175.9 0.2-263.9q0-0.3 0.1-0.5 0.1-0.3 0.3-0.5 0.2-0.2 0.4-0.3 0.3-0.1 0.6-0.1l14.4-0.5q0.3 0 0.6 0.2 0.3 0.1 0.5 0.3 0.1 0.3 0.2 0.6 0 0.3-0.1 0.6-0.8 2.5 0.2 5z"/><path class="b3" d="m371 16.3v5.3q-5.3-1.5-8.7-0.8c-5.3 1-4.3 11-4.2 16.8q0 1 0.5 1.6 0.3 0.4 0.2 0.9c-0.4 4.9-0.1 11.1-0.1 14.6q0.1 111.4 0 222.8 0 4 0.9 14.1 0 0.4 0.2 0.7l0.8 1.5q0.2 0.4 0.6 0.6c2.7 1.6 4.5-1.1 4.7-3.6q0-0.1 0.1-0.2 0-0.1 0.1-0.2 0.1-0.1 0.2-0.1 0.1-0.1 0.2-0.1h1q0.1 0 0.2 0 0.2 0 0.3 0 0.1-0.1 0.2-0.1 0.1-0.1 0.2-0.2 0.9-0.6 1.8-0.1 0.1 0.1 0.2 0.2 0 0 0.1 0.2 0.1 0.1 0.1 0.2 0 0.1 0 0.3-0.4 1.7 0.4 2.6l-0.1 21.2q-1-0.6-1.4-1.8-0.1-0.2-0.2-0.2 0-0.1-0.1-0.2-0.1-0.1-0.2-0.1-0.2 0-0.3 0c-1.5 0.2-2.7-0.3-4-0.2q-5.8 0.6-11.4 1.1-0.3-21.6-0.4-43.9c-0.3-27.7 0.3-55.5-0.1-81.5q0-0.3 0-0.5c-399.8-194.2-399.8-194.2-399.8-194.2 0 0 399.7 120.6 399.8 71.7 0-15.9 0-31.8 0.4-47.5q0-0.2 0.1-0.4 0-0.2 0.2-0.3 0.1-0.1 0.3-0.2 0.1-0.1 0.3-0.1 9.1-0.8 16.9 0.1z"/><path class="b0" d="m436.8 16.2l0.2 9.6q-0.7-0.2-0.5 0.7 0 0.7-0.5 0.3l-0.7-0.7q-0.4-0.4-0.3-1.1 0.2-0.7-0.1-1.6-0.1-0.1-0.2-0.1 0-0.1-0.1-0.2-0.1-0.1-0.1-0.1-0.1-0.1-0.2-0.1c-1.6-0.7-2.9-1.9-4.5-1.9q-4.4 0-3.8 4.9 0.1 0.7-0.2 1.3-0.3 0.4-0.3 0.9c1.6 88.3 0.6 176.7 0.5 265q0 3 0.2 6.6l0.2 10.6q0 0.5 0.3 0.8 1.4 1.4 4.1 1.3l-10.5 0.7c-0.2-8.1-0.5-16.3-0.5-24.2-0.1-90.6 0-181.2 0.3-271.8q0-0.2 0.1-0.4 0.1-0.2 0.2-0.3 0.2-0.1 0.4-0.2 0.2-0.1 0.4-0.1z"/><path class="b7" d="m475 28.1l-0.4 279.4q-0.6 0.9-1.7 0.8-0.6 0-0.6-0.5l-0.2-4.8-0.1-6.9q-0.1-178.3 0.1-244.5 0-20.9-0.5-33.3 0.1-3.4 3.1-2.4 0.5 0.2 0.5 0.7z"/><path class="b0" d="m503.9 15.9l0.4 11.9q0 0.6-0.4 0.2c-4.4-3.8-12.5-3-11.4 4.5q0.1 0.3-0.1 0.5-0.3 0.1-0.3 0.5 1.4 15.9 1.3 31.9-0.1 45.8-0.1 91.6l-0.2 135.4q0 0.5 0.3 0.8 1.3 1.3 1.1 3.3-0.1 0.5 0.5 0.7 1.3 0.4 2 1.5c0.3 0.3 0.6 0.6 1 0.7 0.5 0.2 0.9 0.2 1.3 0.1 0.4-0.1 0.7-0.3 0.8-0.6 0.2-0.3 0.2-0.7 0-1q-0.3-0.8 0.1-1.2 0.6-0.6 0.8-0.7l2.2-0.9q0.5-0.2 0.7 0.2l0.2 0.4q0 0 0 0.1 0.1 0 0.1 0 0 0 0 0 0.1 0 0.1-0.1l0.2-0.2q0 0 0.1 0 0 0 0 0 0.1 0 0.1 0.1 0 0 0 0-0.1 1.5 0.4 2.7l-0.1 13.5q-0.9-1-1-1.7 0-0.2-0.2-0.4-0.1-0.2-0.3-0.3-0.3 0-0.5 0-0.2 0.1-0.4 0.3-1.4 1.6-3.1 2.4c-3.2 1.7-11.8-1.8-11.9 3.2-0.1-4.1-0.5-8.4-0.5-12.2q-0.3-103.3-0.3-206.6c-0.1-26.1 0.5-52.2 0.5-78.8q0-1.3 1.3-1.5 7-0.9 15.3-0.3z"/><path class="aW" d="m503.9 15.9q0.8-0.4 1.7 0.2c-0.4 6-0.8 11.6-0.7 17.9q0.2 7.5-0.2 15c-0.4-3.5-4.6-3-4.5 0.3q0.1 1.3 0.1 1.4-0.3 10.7-0.2 21.4 0.1 26.7 0.2 53.4c0 8.1 0.5 19-0.4 28.8q0 0.3-0.2 0.7-0.1 0.4-0.4 0.6-0.3 0.3-0.7 0.4-0.3 0.2-0.7 0.2l-3.6 0.1q-0.3 0-0.3-0.2 0-0.3 0-0.5 0.1-0.1 0-0.1 0 0 0-0.1-0.1 0-0.1 0.1 0 0 0 0l-0.6 1.5q0-45.8 0.1-91.6 0.1-16-1.3-31.9 0-0.4 0.3-0.5 0.2-0.2 0.1-0.5c-1.1-7.5 7-8.3 11.4-4.5q0.4 0.4 0.4-0.2z"/><path class="aY" d="m537.1 15.8q1 2.3-0.5 5.8-0.1 0.2-0.3 0.3-0.2 0.2-0.4 0.2-0.2 0.1-0.5 0.1-0.2-0.1-0.4-0.2c-3.7-2.4-7-0.4-9.8 2.8q-0.3 0.4-0.3 0.9c-0.2 7.3 0.9 15.4 0.9 21.8q0.6 49.7 0 99.5c-0.4 41.1 0.3 82.2 0.1 123.3 0 5.6 0.2 12.9 0.1 19.4q0 0.6 0.2 1 1.9 3 2.3 6.6 0.1 0.7 0.8 0.8l3.2 0.1q0.7 0.1 0.7-0.7v-3.1q0-0.2 0.1-0.3 0.1-0.2 0.3-0.3 0.2-0.1 0.4-0.1 0.1 0 0.3 0.1l3.1 1.6q0.4 0.2 0.6-0.2 0.2-0.4 0.5-0.4l-0.3 16.3q-5.6 1.6-12.9 1.4-2.2 0-4.8 1.8 0.1-10-0.4-13.1c-0.5-3.4 0.3-5.9 0-8.8-0.3-3.8 0.2-8.2 0.2-11.2q-0.3-111.3-0.2-222.7c0-8.8-0.7-26 0-39.1q0.1-1 1-2.9 0.2-0.5 0.7-0.5z"/><path class="aX" d="m537.1 15.8q0.8 0.5 1.1 4l0.3 275q-0.3 0-0.5 0.4-0.2 0.4-0.6 0.2l-3.1-1.6q-0.2-0.1-0.3-0.1-0.2 0-0.4 0.1-0.2 0.1-0.3 0.3-0.1 0.1-0.1 0.3v3.1q0 0.8-0.7 0.7l-3.2-0.1q-0.7-0.1-0.8-0.8-0.4-3.6-2.3-6.6-0.2-0.4-0.2-1c0.1-6.5-0.1-13.8-0.1-19.4 0.2-41.1-0.5-82.2-0.1-123.3q0.6-49.8 0-99.5c0-6.4-1.1-14.5-0.9-21.8q0-0.5 0.3-0.9c2.8-3.2 6.1-5.2 9.8-2.8q0.2 0.1 0.4 0.2 0.3 0 0.5-0.1 0.2 0 0.4-0.2 0.2-0.1 0.3-0.3 1.5-3.5 0.5-5.8z"/><path class="b8" d="m542.3 15.9c-0.9 32.9 0.1 72.7-0.1 98q-0.6 74.3-0.7 148.6c0 14.7-0.6 33.1 0.2 49.8q0 1.7-0.2 2.8 0 0.3 0.1 0.6 0 0.4 0.3 0.6 0.2 0.3 0.5 0.4 0.3 0.2 0.6 0.2l13.7 0.4 4 0.2q0.5 0 0.6 0.5 0.2 0.8-0.3 1.8l-23.8-0.2q0.4-2.4-0.8-3.1 2.6 1.3 1.8-5.4l0.3-16.3-0.3-275 0.3-3.3q0.1-0.5 0.6-0.6 1.5-0.3 3.2 0z"/><path class="b1" d="m565.8 15.6l4 0.6q0.5 0.1 0.7 0.6 0.5 2 0.2 3.9c-0.1 1.3-1.1 1.9-1 3.4q0 0.5-0.3 0.7l-0.3 0.2q-0.4 0.2-0.5-0.2c-1.1-4.3-5.5-5.2-8.4-2.1q-1.2 1.3-1.2 4 0.4 113.8-0.2 227.6c-0.1 11.3 0.9 22.9 0.6 34.3-0.1 3.8 0.8 11.7 5.9 12.2q0.1 0 0.2 0 0.1 0 0.2-0.1 0.2-0.1 0.2-0.2 0.1 0 0.2-0.1l2.1-4.2c0.2-0.4 0.5-0.6 0.9-0.8 0.4-0.2 0.8-0.2 1.2 0 0.4 0.1 0.7 0.4 0.9 0.7 0.3 0.4 0.3 0.8 0.3 1.2q-1.4 7.3 0.3 15.1l-0.1 0.6-0.9-1.8q-0.4-0.7-1-0.3l-2.8 1.4q-0.5 0.2-1 0.1-7-1.2-11.8 2l-0.4-297.5q0-1 1-1z"/><path class="b9" d="m588.7 317.5h4.3q0.5 0 0.7 0.5 0.3 0.9-0.2 2l-24.9-0.6-7.6 0.4q0.5-1.1 0.3-1.8-0.1-0.5-0.6-0.5l-4-0.2q4.8 0.3 9.3-0.9l4.9 0.2q0.2 0 0.4-0.1 0.3-0.1 0.4-0.3 0.2-0.1 0.3-0.4 0-0.2 0-0.4l-0.3-2.4 0.1-0.6c0.5-15.7 0.8-31.5 0.8-47.2q-0.2-54.5-0.1-219.8c0-6.9-0.5-18.4-0.1-27.6q0.5-0.7 0.5-0.9c0-0.3 0.2-0.7 0.5-0.9 0.2-0.2 0.6-0.3 0.9-0.3 0.4 0 0.7 0.1 1 0.3 0.2 0.3 0.4 0.6 0.4 0.9 0.9 10.1-0.5 19.5-0.5 30.8 0.2 79.4 0.5 158.8-0.2 238.2-0.1 10.3 0.2 20.2 0.4 30.2q0 0.6 0.6 0.7z"/><path class="b7" d="m139.3 259.5l0.4 55.9q0 0.3 0.1 0.5 0 0.2 0.2 0.4 0.2 0.2 0.4 0.3 0.2 0.1 0.5 0.1l13.3 0.2h11.1q0.4 0 0.7 0.2 0.3 0.2 0.6 0.5 0.2 0.3 0.3 0.7 0.1 0.3 0 0.7-0.1 0.5-1.3 1c-26.7 0.2-54-0.3-81.1 0.1q-0.9-2.8 3.6-3.2l13.6-0.3q0.2 0 0.4-0.1 0.2-0.1 0.3-0.2 0.1-0.1 0.2-0.3 0.1-0.2 0.1-0.4l0.2-11.8c-0.3-93.8 0-187.5-0.2-281.2 0-1.8-0.6-3.8 0.3-6.1q1.3-0.5 2.7-0.2 0.6 0.1 0.6 0.7l-0.3 298.5q0 0.2 0.1 0.5 0.1 0.2 0.2 0.3 0.2 0.2 0.4 0.3 0.3 0.1 0.5 0.1l19.1-0.5 8.8 0.2q0.5 0 0.7-0.5 0.2-0.8-0.1-1.9l0.3-20.7 0.2-257.6-0.2-19.1q1.7-1.1 3.5-0.3 0.4 0.2 0.4 0.7-0.3 12.7-0.4 25.3-0.4 84.2-0.2 168.4c0.1 15.2-0.2 32.5 0 48.8z"/><path class="b0" d="m403.2 16.5q0.4 3.7-2.1 5.4-0.3 0.2-0.6 0-4.9-3.4-9.6 0.1-0.1 0.1-0.1 0.2-0.1 0.1-0.2 0.2 0 0.1-0.1 0.2 0 0.2 0 0.3c0 4.9 0.4 9.1 0.2 14.6-0.2 11.3 0.5 26.9 0.2 40.5-0.9 55.9-0.4 118.5-0.4 177.9 0 12.6 0.8 25 1.6 37.4 0.1 2.3 0.8 4.5 1 6.8 0.3 2.2 1.5 3.7 3.9 2.6q0.2-0.1 0.4-0.2 0.2-0.1 0.3-0.3 0.2-0.1 0.3-0.3 0.2-0.2 0.2-0.4c1-2.4 2.5-6.3 6.1-5l-0.3 16.3-0.6-1.5q-0.1-0.1-0.2-0.2 0-0.1-0.1-0.2-0.1 0-0.2-0.1-0.1-0.1-0.2-0.1-1.5-0.4-2.7 0.9 0 0-0.1 0.1 0 0-0.1 0-0.1 0.1-0.1 0.1-0.1 0-0.2 0l-10.4 1q-0.3 0-0.6 0.1-0.2 0.1-0.5 0.3-0.2 0.1-0.4 0.4-0.2 0.2-0.3 0.5-0.6 1.4 0.9 1.8c1.5 0.4 3.3-0.3 5.1 0l-6.6 1.1-0.2-300q0-0.2 0.1-0.4 0.1-0.2 0.2-0.3 0.1-0.1 0.3-0.2 0.2-0.1 0.4-0.1 7.2 0 14.5 0 0.6 0 1.2 0.5z"/><path class="ba" d="m101.7 16.4l1.3 0.1c-0.9 2.3-0.3 4.3-0.3 6.1 0.2 93.7 0 187.4 0.2 281.1l-1.1-6.4q-0.1-0.5-0.6-0.5l-3.5 0.4q-0.6 0-0.9 0.6-1.1 2-3.3 1.6-0.1 0-0.2-0.1-0.1 0-0.2-0.1-0.1-0.1-0.2-0.2-0.1 0-0.1-0.1c-2.7-5.1-0.5-9.2-2.4-13.5q0-0.1-0.1-0.2 0-0.1 0-0.2-0.1-0.1-0.1-0.2 0-0.2 0-0.3c0.6-6.2 0.1-14.2 0.1-18.4q-0.1-103.3-0.3-206.6c0-3.4-0.5-7.8-0.2-12q0.5-6.3 0-11.8c-0.5-4.8-2.1-14.3 5.1-14.9 2.1-0.1 3.9 1.3 6.6 0.1q0.5-0.2 0.5-0.7z"/><path class="ba" d="m135 16.5q0.5-0.1 1 0.1l0.3 19.1q-0.4 0-0.7-0.5 0 0-0.1-0.1 0 0-0.1 0-0.1 0.1-0.1 0.1 0 0.1 0 0.1 0 0.4-0.4 0.6-0.4 0.2-0.9 0.3c-2.7 0.5-3.7 5.9-3.7 7.8 0.1 82.1 0.1 164.3-0.3 246.4 0 1.6-0.7 3-2.1 3.5q-0.4 0.2-1 0.2-0.5-0.1-0.9-0.4-0.4-0.3-0.6-0.7-0.3-0.5-0.2-1 0.3-4.4-0.9-8.1-0.1-104.4-0.1-208.9c0-10.2-0.4-21.9-0.4-32.9 0-5.9-1-12-1.3-18q0-0.1 0-0.2 0-0.1 0.1-0.2 0-0.1 0.1-0.1 0-0.1 0.1-0.2 0.9-0.8 0.9-2.1 0-0.5 0.2-1 0.3-0.4 0.7-0.8 0.4-0.3 0.9-0.4 0.6-0.1 1.1 0 2.1 0.5 4.3 0.8c0.9 0.1 1.2 0.4 1.5 1.2q0.2 0.4 0.6 0.3c2.6-0.5 1.5-3.3 2-4.9z"/><path class="aW" d="m403.2 16.5h1.3c-0.5 11.4 0.1 22.7 0 34.1-1 81.9-0.3 164-0.2 245.9-3.6-1.3-5.1 2.6-6.1 5q0 0.2-0.2 0.4-0.1 0.2-0.3 0.3-0.1 0.2-0.3 0.3-0.2 0.1-0.4 0.2c-2.4 1.1-3.6-0.4-3.9-2.6-0.2-2.3-0.9-4.5-1-6.8-0.8-12.4-1.6-24.8-1.6-37.4 0-59.4-0.5-122 0.4-177.9 0.3-13.6-0.4-29.2-0.2-40.5 0.2-5.5-0.2-9.7-0.2-14.6q0-0.1 0-0.3 0.1-0.1 0.1-0.2 0.1-0.1 0.2-0.2 0-0.1 0.1-0.2 4.7-3.5 9.6-0.1 0.3 0.2 0.6 0 2.5-1.7 2.1-5.4z"/><path class="aW" d="m470.8 16.5q0.8 0.1 0.8 1.8 0.5 12.4 0.5 33.3-0.2 66.2-0.1 244.5-5.5-3.5-7.1 3.3-0.1 0.4-0.5 0.7-0.3 0.3-0.8 0.3-0.4 0.1-0.8-0.1-0.4-0.2-0.6-0.6c-1.1-2.4-2.2-4.9-2.3-7.7-1.5-73.6-0.4-147.4-0.4-221 0-13.8-0.7-30.5-0.3-46.6q0-0.9 0.1-1.7 0-0.1 0.1-0.3 0-0.1 0.1-0.2 0.1-0.1 0.2-0.2 0.1 0 0.2-0.1 3.9-1.6 7.9-0.2 0.2 0.1 0.4 0.1 0.1 0 0.3-0.1 0.2 0 0.3-0.1 0.2-0.1 0.3-0.2l1.6-1.8q0.3-0.4 0.1-0.9-0.6-1.1 0-2.2z"/><path class="aW" d="m302.3 16.8q0.6 0.1 1.4-0.1v273.3l-0.2 2.2q0 0.1 0 0.2-0.1 0.1-0.1 0.2-0.1 0-0.2 0.1 0 0-0.1 0.1l-4 1.2q-0.1 0-0.1 0.1-0.1 0.1-0.2 0.1-0.1 0.1-0.1 0.2 0 0.1-0.1 0.2l-0.4 2.1q0 0 0 0-0.1 0-0.1 0 0 0 0 0 0 0 0 0l-0.1-0.5q0-0.2-0.1 0-0.9 1.7-3 2.1-0.5 0.1-1.1-0.1-0.5-0.1-1-0.5-0.4-0.4-0.6-0.9-0.3-0.5-0.3-1.1c-0.6-70.6-0.6-134.7-0.3-176.2 0.2-37 0.4-60.8-1-95.5-0.2-5 8.5-4.1 10 0.8q0.1 0.3 0.4 0.5 0.2 0.1 0.5 0.1 0.3-0.1 0.5-0.3 0.2-0.2 0.2-0.5z"/><path class="aW" d="m236.2 26.8q0.1 13.1 0.4 26.3c0.2 5.3-0.3 12.1-0.3 17.6-0.1 94.6-0.5 162.8 0.4 226.3q-0.6-1.6-0.4-3.4 0-0.6-0.5-0.5-1.3 0.1-1.2 1.6 0 1.3-0.4 2.5-2 1.8-1.4 4 0.1 0.4 0 0.7-0.1 0.3-0.4 0.5-0.2 0.2-0.6 0.3-0.3 0-0.6-0.1l-4.9-2.6q-0.5-0.3-0.6-0.9c-1.3-6.8-0.8-13.2-0.7-19.7q0.1-46-0.1-92c-0.1-38.3 0.2-76.6-0.1-115-0.1-8-1-22.4-0.4-33.7 0.2-3.8-1.7-14.1 1.3-16.9 3.2-3.1 8.9-0.8 8.2 4.3q0 0.5 0.5 0.5z"/><path class="aW" d="m371 21.6v271.7q-0.8-0.9-0.4-2.6 0-0.2 0-0.3 0-0.1-0.1-0.2-0.1-0.2-0.1-0.2-0.1-0.1-0.2-0.2-0.9-0.5-1.8 0.1-0.1 0.1-0.2 0.2-0.1 0-0.2 0.1-0.1 0-0.3 0-0.1 0-0.2 0.1h-1q-0.1-0.1-0.2 0-0.1 0-0.2 0.1-0.1 0.1-0.1 0.2-0.1 0.1-0.1 0.2c-0.2 2.5-2 5.2-4.7 3.6q-0.4-0.2-0.6-0.6l-0.8-1.5q-0.2-0.3-0.2-0.7-0.9-10.1-0.9-14.1 0.1-111.4 0-222.8c0-3.5-0.3-9.7 0.1-14.6q0.1-0.5-0.2-0.9-0.5-0.6-0.5-1.6c-0.1-5.8-1.1-15.8 4.2-16.8q3.4-0.6 8.7 0.8z"/><path class="aW" d="m270.1 21.7l0.4 273.1q-2.8 0-5.2-1-0.7-0.3-0.9 0.4l-0.2 1.3q-0.1 0.5-0.5 0.7c-4.2 2-6.2-4.1-6.1-7 0.7-14.2 0.1-31.5 0.2-42.5q0.3-82.2 0.2-164.5c-0.1-13.1-0.4-25.8-0.7-38.7-0.1-3.4 0.4-8 0-12.1-0.4-3.9-0.3-6.4 1-9.7q0.1-0.2 0.2-0.4 0.2-0.2 0.4-0.3 0.2-0.1 0.4-0.1 0.2 0 0.4 0c2.9 0.6 7.7 2 10.4 0.8z"/><path class="aW" d="m336.6 24.7c-0.1 95.8-0.7 191.7 0.4 287.5q0.3 1-0.1 2.4-1.2-1.5-1.1-3.6 0.1-0.5-0.4-0.5-1.3 0-1.7 1.2-0.2 0.5-0.8 0.5l-5.4 0.2c-3.9-0.2-2-8.3-2-10.8q0-95.7 0-191.4 0-0.3 0.1-0.6 0.1 0 0.1 0 0-0.1 0-0.1 0-0.1 0-0.1 0-0.1 0-0.1 0.2-39.5-0.3-79.1c0-3.2-2-9.6 4-9.1 2.3 0.1 5.5 0.5 5.1 3.4q0 0.1 0 0.3 0 0.1 0.1 0.2 0.1 0.1 0.2 0.1 0.1 0.1 0.2 0.1 0.7 0.1 1.6-0.5z"/><path class="aX" d="m437 25.8c-0.2 8 0.2 17.4 0.2 24q0.1 126.3 0 252.6c0 4.4 0.3 9 0.5 13.4q0 0.1 0 0.2 0 0.2-0.1 0.2-0.1 0.1-0.2 0.2-0.1 0-0.2 0l-5-0.1q2.6 0.3 4.5-0.3 0.2-0.1 0.3-0.2 0.1-0.1 0.2-0.2 0-0.1 0.1-0.3 0-0.1 0-0.2l-0.4-2.9q0-0.4-0.3-0.7-0.2-0.3-0.6-0.5-0.4-0.1-0.7 0-0.4 0.1-0.7 0.3-1.5 1.5-3.8 1.1-2.7 0.1-4.1-1.3-0.3-0.3-0.3-0.8l-0.2-10.6q1.7 1.2 4.6 1 0.2 0 0.4-0.1 0.3-0.1 0.4-0.3 0.2-0.2 0.3-0.4 0.1-0.2 0.1-0.5c0.4-12.1-0.2-26.5-0.2-36.3q-0.1-67.3-0.1-134.6c0-17.1-0.3-35.4-0.1-53.2 0.1-14.4-0.2-32.1 0.8-48.2q0-0.5-0.4-0.8-2.1-1.9-6-0.4-0.6-4.9 3.8-4.9c1.6 0 2.9 1.2 4.5 1.9q0.1 0 0.2 0.1 0 0 0.1 0.1 0.1 0.1 0.1 0.2 0.1 0 0.2 0.1 0.3 0.9 0.1 1.6-0.1 0.7 0.3 1.1l0.7 0.7q0.5 0.4 0.5-0.3-0.2-0.9 0.5-0.7z"/><path class="aY" d="m593.3 287.3c-0.9-80.7 0.6-158.1-0.4-237-0.1-5.1 0.6-11.7 0.2-16.1q-0.6-6.1 0.8-10.3 0.2-0.4 0.1-0.9-0.3-1.5 1.3-1.9 3.2-0.7 6.2 0.9 0.1 0.1 0.2 0.1 0.1 0.1 0.1 0.2 0.1 0.1 0.1 0.2 0.1 0.1 0.1 0.2c-0.4 23.5-0.3 46.9-0.4 70.4q-0.3 100.1 0.1 201 0 0.4-0.2 0.8-0.2 0.4-0.6 0.7-0.3 0.3-0.7 0.4-0.5 0.2-0.9 0.1l-3.9-0.6q-0.1 0-0.2-0.1-0.1 0-0.2-0.1-0.1-0.1-0.1-0.2-0.1-0.1-0.1-0.3c-0.1-2.8-1.4-4.8-1.5-7.5z"/><path class="ba" d="m68.5 22.5l-0.3 4.7q-1.7-0.2-2.8-1.1-0.2-0.2-0.5-0.2-0.3 0-0.5 0.2-0.2 0.2-0.2 0.5 0 0.3 0.1 0.5c1 1.3 0.1 3.5 0 4.6-1 10.6-0.5 23.5-0.6 31.6-0.5 77.2-0.3 153.8-0.1 230.6q0 2.2-2 1.7l-2.9-0.7q-0.5-0.1-0.6-0.6l-1.1-6.1q0-106.3 0-212.8c0-4.8-0.4-13.7 0-20.7 0.1-2.8-0.8-5.6-0.5-9.2q0.8-8.6 0-12.5c-0.6-3.5-1.4-7.3 1-10q3.1-3.3 11-0.5z"/><path class="ba" d="m198.1 26.4q-0.3 10.5-0.3 21.4-0.4 107.6-0.3 215.2 0 15.4 0.4 31.5c-1.2 1.6-3.8 2.5-4.7 0.3q-1.5-3.7-1.5-9.4 0-115.8 0.1-231.7c0-8.6-0.7-19.1-0.7-28.7q0-0.1 0-0.2 0-0.2 0.1-0.3 0-0.1 0.1-0.1 0.1-0.1 0.2-0.2 1-0.6 1.5-1.8 0.2-0.4 0.5-0.8 0.4-0.3 0.8-0.5 0.5-0.2 0.9-0.2 0.5 0 1 0.2 2.9 1.4 1.9 5.3z"/><path class="b8" d="m-0.1 22q1.6-0.1 3.1 0.9-0.8 13.2-0.7 16.8c0.1 3-0.1 12.2-0.1 12.2q0.3 0.4 0.4 0.9c0.3 35.8 0.4 71.6 0.2 107.5-0.2 31.2 0.4 60.1 0.5 104.1 0.1 11.2-0.2 23.4-0.3 35.1q-0.2 14.4-0.3 28.8 0 3.3 1.9 4.6l-0.2 3.3q-0.1 4.6-3.7 8-1.6-2.8-1.3-5.9 0.4-4.5 0.4-4.6-0.3-149.2-0.3-298.4c0-4.3 0.3-8.9 0.4-13.3z"/><path class="bb" d="m15.9 23.5q0.3 6.8-0.1 13.2c-0.1 2.3 0.5 5.2 0.3 7.8q-0.2 2.6-0.2 3.1-0.1 61.8-0.1 123.6 0 0.2 0.4 14.1c0.1 6.2-0.4 13.1-0.3 18.7q0.3 37.4-0.2 74.7-0.2 6.7-0.6 13.4c-0.1 2.2-4.3 4.8-5.9 6.3q-0.4 0.4-0.8-0.1l-1.6-2.2q-0.1-0.1-0.2-0.2-0.2 0-0.3 0-0.2 0-0.3 0.1-0.1 0-0.2 0.2l-1 1.8q-0.1 0.2-0.3 0l-0.2-0.4q-0.4-0.5-0.6 0.1l-0.7 1.8c0.1-11.7 0.4-23.9 0.3-35.1-0.1-44-0.7-72.9-0.5-104.2 0.2-35.8 0.1-71.6-0.2-107.4q-0.1-0.5-0.3-0.9c-0.1 0 0.1-9.2 0-12.2q-0.1-3.6 0.7-16.8 6.2-0.9 12.9 0.6z"/><path class="ba" d="m35.5 24.9v273.9q-0.8 0.8-0.8-0.9 0-0.5-0.5-0.6-2-0.3-3.7 0.4-2.7 1.1-3.2 1.1c-4.7-0.2-3.9-14.6-4.2-17.9-0.5-4.2-0.1-8-0.8-12.9q-0.7-4.7-0.7-18c0-22.2-0.2-44.4-0.3-66.5q0-38-0.1-76c0-1.9 0.6-3.9 0.5-5.8q-0.4-22.6-0.1-45.1c0-3-0.7-6.1-0.1-9.4q0.7-4.4 1.3-8.8c0.5-3.5 0-7.5 0.3-11.3q0-0.1 0.1-0.2 0-0.2 0.1-0.3 0.1-0.1 0.2-0.2 0.1 0 0.3-0.1 5.2-1.5 11.7-1.4z"/><path class="aW" d="m426.2 299.7q-0.2-3.6-0.2-6.6c0.1-88.3 1.1-176.7-0.5-265q0-0.5 0.3-0.9 0.3-0.6 0.2-1.3 3.9-1.5 6 0.4 0.4 0.3 0.4 0.8c-1 16.1-0.7 33.8-0.8 48.2-0.2 17.8 0.1 36.1 0.1 53.2q0.1 67.3 0.1 134.6c0 9.8 0.7 24.2 0.2 36.3q0 0.3-0.1 0.5-0.1 0.2-0.3 0.4-0.1 0.2-0.4 0.3-0.2 0.1-0.4 0.1-2.9 0.2-4.6-1z"/><path class="aW" d="m68.3 27.2l0.1 285.6-0.2-1.8q0-0.7-0.7-0.3l-2 1.2q-0.4 0.3-0.9 0.3l-7 0.6q-1.5-12.3-0.6-24.6l1.1 6.1q0.1 0.5 0.6 0.6l2.9 0.7q2 0.5 2-1.7c-0.2-76.8-0.4-153.4 0.2-230.7 0-8-0.5-20.9 0.5-31.5 0.1-1.1 1-3.3 0-4.6q-0.1-0.2-0.1-0.5 0-0.3 0.2-0.5 0.2-0.2 0.5-0.2 0.3 0 0.5 0.2 1.1 0.9 2.9 1.1z"/><path class="ba" d="m163.8 26.9q-0.5 19.7-0.5 39.1c-0.1 81.4-0.2 162.8 0.5 244.2q0 0.5-0.3 0.9-0.9 1-2.6 1.5-0.8-0.1-1.9-1-0.3-0.3-0.4-0.7-0.8-7.5-0.8-15.1c0.1-84.1-0.2-168.1 0-252.2 0-3.7-1.6-14.3 1.9-17q2-1.6 4.1 0.3z"/><path class="aW" d="m168.8 27.2l0.1 288.9q0.1-2.6-1-4.2-0.3-0.5-0.9-0.4l-5.9 1.3q-0.1-0.1-0.2-0.2 1.7-0.5 2.6-1.5 0.3-0.4 0.3-0.9c-0.7-81.4-0.6-162.8-0.5-244.2q0-19.4 0.5-39.1 1.5-0.8 5 0.3z"/><path class="aW" d="m136.3 35.8l-0.3 257.5q-0.7-0.1-0.7-0.6 0-0.4-0.3-0.7-0.3-0.3-0.7-0.4-0.4-0.1-0.8 0.1-0.3 0.2-0.5 0.6-0.8 1.8-2.5 3-0.2 0.2-0.3-0.1v-0.3q0-0.1-0.1-0.1-1.8 0.5-3.4 1.4-0.3 0.1-0.5 0.1-0.3 0-0.5-0.1-0.3-0.1-0.4-0.3-0.2-0.2-0.2-0.5l-0.8-11.5q1.2 3.7 0.9 8.1-0.1 0.5 0.2 1 0.2 0.4 0.6 0.7 0.4 0.3 0.9 0.4 0.6 0 1-0.2c1.3-0.5 2.1-1.9 2.1-3.5 0.4-82.1 0.4-164.3 0.3-246.4 0-1.9 1-7.3 3.7-7.8q0.5-0.1 0.9-0.3 0.4-0.2 0.4-0.6 0 0 0-0.1 0 0 0.1-0.1 0.1 0 0.1 0 0.1 0.1 0.1 0.1 0.3 0.5 0.6 0.6z"/><path class="aX" d="m504.7 49l0.4 249.3q-0.5-1.2-0.4-2.7 0 0 0 0 0-0.1-0.1-0.1 0 0 0 0-0.1 0-0.1 0l-0.2 0.2q0 0.1-0.1 0.1 0 0 0 0 0 0-0.1 0 0-0.1 0-0.1l-0.2-0.4q-0.2-0.4-0.7-0.2l-2.2 0.9q-0.2 0.1-0.8 0.7-0.4 0.4-0.1 1.1c0.2 0.4 0.2 0.8 0 1.1-0.1 0.3-0.4 0.5-0.8 0.6-0.4 0.1-0.8 0.1-1.3-0.1-0.4-0.1-0.7-0.4-1-0.7q-0.7-1.1-2-1.5-0.6-0.2-0.5-0.7 0.2-2-1.1-3.3-0.3-0.3-0.3-0.8l0.2-135.4 0.6-1.5q0 0 0 0 0-0.1 0.1-0.1 0 0.1 0 0.1 0.1 0 0 0.1 0 0.2 0 0.4 0 0.3 0.3 0.3l3.6-0.1q0.4 0 0.7-0.2 0.4-0.1 0.7-0.4 0.3-0.2 0.4-0.6 0.2-0.4 0.2-0.7c0.9-9.8 0.4-20.7 0.4-28.8q-0.1-26.7-0.2-53.4-0.1-10.7 0.2-21.4 0-0.1-0.1-1.4c-0.1-3.3 4.1-3.9 4.5-0.3z"/><path class="aT" d="m151.5 140.8l0.4 174.6 15.1 1-12.8 0.5-13.3-0.2q-0.3 0-0.5-0.1-0.2-0.1-0.4-0.3-0.2-0.2-0.2-0.4-0.1-0.2-0.1-0.5l-0.4-55.9q0.3-10.4 0.2-20.9 0 0 0-0.2-0.1-0.2 0.1-0.3 0.2-0.3 0.2 0v6q0 0.4 0.3 0.1 1.4-1.2 1.1-3.1 0-0.5 0.4-0.6 1.2-0.4 1.3-1.1c1.8-6.3 4.2-13.1 4.3-19.8q0-6.6 0.2-13.3c0.1-2-0.6-5.8 0.2-8.7 1.1-4.4 0.5-9 1.3-13.2q0.7-3.1 0.6-5 0 0 0 0 0 0 0 0 0-0.1 0.1-0.1 0 0 0 0 0 0 0.1 0 0 0 0 0l0.1 1.9q0 2.3 0.4 0.2 0.2-1.2 0.1-3.1c-0.6-12.5 0.8-24.9 1.2-37.6z"/><path class="aV" d="m453.5 166q0 58.4 0 116.7c0 9.2 1.1 20.2 0.4 30q-0.2 3.4 3.1 3.5-7.3 1.6-14.9 0.4-0.5-0.1-0.5-0.6-0.6-5.9-0.4-13.8 0.8-40.4 0.5-93.7c0.6-2.3-0.3-5.7 0.7-7.6q0.1 0 0.1-0.1 0.1 0 0.2 0 0 0 0.1 0.1 0 0.1 0 0.1-0.2 0.8 0.1 0.9c0.7-3 0.4-6.1 1.1-8.8q0.8-3.5 1.9-7 0.1-0.5 0.7-0.4c3.8 0.6 5.3-4 5.4-6.9q0-0.3 0.2-0.1 0.2 0.2 0.1 0.5 0 0 0 0 0 0 0 0.1 0.1 0 0.1 0 0-0.1 0-0.1 0.2-0.4 0.2-1.1 0.1-4.6 0.9-12.1z"/><path class="aU" d="m285 179.8c0 59.3-0.5 100.3 1 135.6l5 1q-8.3 1.3-16.6 0.2-0.5-0.1-0.6-0.7c-1.2-37.5-0.3-68.1-0.3-117.1l0.2-8.5q0-0.6 0.6-0.6h1.6q0.2 0 0.3 0 0.1-0.1 0.2-0.1 0.1-0.1 0.1-0.3 0.1-0.1 0.1-0.2l-0.4-5.8q0-0.1 0.1-0.3 0.1-0.2 0.3-0.2 0.2-0.1 0.3 0 0.2 0 0.3 0.2l2.1 3q0.1 0.2 0.3 0.4 0.2 0.1 0.4 0.1 0.3 0 0.5 0 0.2-0.1 0.4-0.2c4.3-3.8 3.8-10.4 3.6-15.4q0 0 0 0 0 0 0-0.1 0.1 0 0.1 0 0 0 0 0 0.1 0 0.1 0 0.1 0 0.1 0.1z"/><path class="aS" d="m15.7 278.7l0.2 37.7q0 0.1 0.1 0.1 0 0.1 0 0.2 0 0.1 0.1 0.1 0 0.1 0.1 0.2 0.5 0.6 1-0.1 0.1 0.1 0.1 0.2-0.8 1.5-1 3 0 0.6 0.5 0.6c22.3-1.9 45.3-0.6 67.7-0.6 27.1-0.4 54.4 0.1 81.2-0.1q7.8-0.8 14.1 1.7-2.3 0.7-2.8-0.1-0.1-0.1-0.3-0.1-0.2-0.1-0.3 0-0.2 0-0.3 0.2-0.1 0.1-0.1 0.3l0.3 17.9q0 0.5 0.5 0.6 0.3 0.1 0.7 0l-0.5 3q-0.1 0.5-0.6 0.5l-3.9 0.3q-72.7 0.1-145.4-0.5c-8.3-0.1-17.5 0.4-26.4 0.4q3.6-3.4 3.7-8 1 4.7 5.7 4 0.3 0 0.6-0.2 0.2-0.1 0.4-0.2 0.3-0.2 0.4-0.4 0.2-0.2 0.3-0.5 1.6-3.8-0.6-7.2-0.2-0.5-0.7-0.6-4.5-1.5-5.8 1.8-2-1.3-1.9-4.6 0-14.4 0.2-28.8l0.7-1.8q0.2-0.6 0.6-0.1l0.3 0.4q0.1 0.2 0.2 0l1-1.8q0.1-0.2 0.2-0.2 0.1-0.1 0.3-0.1 0.1 0 0.3 0 0.1 0.1 0.2 0.2l1.6 2.2q0.4 0.5 0.8 0.1c1.6-1.5 5.8-4.1 5.9-6.3q0.4-6.7 0.6-13.4z"/><path class="b1" d="m236.7 297l-0.3 18.8q0 0.8-0.8 0.8l-16.4 0.2-0.5-19.8q0.3-0.2 0.7-0.3 0.5 0 0.5 0.5l0.7 14.2q0.1 1.4 1.5 1.4l9.4 0.2q0.7 0 1-0.6c2.7-4.3 1.8-10.2 1.7-15.1q0.4-1.3 0.4-2.5-0.1-1.6 1.2-1.7 0.5-0.1 0.5 0.5-0.2 1.8 0.4 3.4z"/><path class="aZ" d="m471.7 303.1q0.5 3.6-0.3 6.7-1-3.3 0.3-6.7z"/><path class="b1" d="m303.4 310.5l0.1 4.8q0 0.3-0.1 0.6-0.1 0.2-0.3 0.4-0.2 0.2-0.5 0.4-0.3 0.1-0.5 0.1l-11.1-0.4-5-1 1-1.8q0.3-0.4 0.8-0.4l11.9-0.5q0.1 0 0.2-0.1 0.1 0 0.2-0.1 0.1-0.1 0.1-0.2 0-0.1 0-0.2-0.5-3.5 0.8-6.6 0.1-0.2 0.2-0.3 0.2-0.1 0.4-0.1 0.2 0 0.3 0.1 0.2 0.2 0.2 0.4z"/><path class="b6" d="m505 311.8l-0.4 4.1q0 0.6-0.6 0.6l-12.2-0.3q-2.5 0.3-4.2-0.9c0.1-5 8.7-1.5 11.9-3.2q1.7-0.9 3.1-2.4 0.2-0.2 0.4-0.3 0.2 0 0.5 0 0.2 0.1 0.3 0.3 0.2 0.2 0.2 0.4 0.1 0.7 1 1.7z"/><path class="b1" d="m336.9 314.6l-0.3 1.3q-0.1 0.4-0.5 0.4h-5q-6.8 0.1-11.3-1.5c2.4-3.6 4.7-1.3 7.7-2.4l5.4-0.2q0.6 0 0.8-0.5 0.4-1.2 1.7-1.2 0.5 0 0.4 0.5-0.1 2.1 1.1 3.6z"/><path class="b1" d="m404 312.8l-0.1 2.8q0 0.5-0.6 0.6l-6.3 0.2-3.7-0.5c-1.8-0.3-3.6 0.4-5.1 0q-1.5-0.4-0.9-1.8 0.1-0.3 0.3-0.5 0.2-0.3 0.4-0.4 0.3-0.2 0.5-0.3 0.3-0.1 0.6-0.1l10.4-1q0.1 0 0.2 0 0 0 0.1-0.1 0.1 0 0.1 0 0.1-0.1 0.1-0.1 1.2-1.3 2.7-0.9 0.1 0 0.2 0.1 0.1 0.1 0.2 0.1 0.1 0.1 0.1 0.2 0.1 0.1 0.2 0.2z"/><path class="aY" d="m68.4 312.8v2.8q0 0.6-0.6 0.6h-9.8c-2.4-0.2-6.5 0.7-6.5-2.9l6.1-0.5 7-0.6q0.5 0 0.9-0.3l2-1.2q0.7-0.4 0.7 0.3z"/><path class="b6" d="m571.7 313l0.3 2.4q0 0.2 0 0.4-0.1 0.3-0.3 0.4-0.1 0.2-0.4 0.3-0.2 0.1-0.4 0.1l-4.9-0.2q-4.1-0.5-8.3-0.3-3.1 0.1-3.5-1.7 4.8-3.2 11.8-2 0.5 0.1 1-0.1l2.7-1.4q0.7-0.4 1.1 0.3z"/><path class="aY" d="m135.7 314q0.3 1.1 0.1 1.9-0.2 0.5-0.7 0.5l-8.8-0.2q-1.3-0.2-5.3-0.2-2.6 0-2.6-2.1l13.4-1.4q0.5 0 0.8-0.5 0.6-1 1.7-0.7 0.5 0.1 0.6 0.6 0.2 1.2 0.8 2.1z"/><path class="b1" d="m432.2 316.3l-9.9-0.1q-2.8-0.5-2-3.1l10.5-0.7q2.3 0.4 3.8-1.1 0.3-0.2 0.7-0.3 0.3-0.1 0.7 0 0.4 0.2 0.6 0.5 0.3 0.3 0.3 0.7l0.4 2.9q0 0.1 0 0.2-0.1 0.2-0.1 0.3-0.1 0.1-0.2 0.2-0.1 0.1-0.3 0.2-1.9 0.6-4.5 0.2z"/><path class="b6" d="m538.2 311.1q0.8 6.7-1.9 5.4-0.1 0-0.3 0.1l-15-0.8q-0.3 0-0.4-0.1-0.2-0.1-0.3-0.3-0.1-0.2-0.1-0.4 0-0.2 0.1-0.4l0.2-0.4q2.6-1.7 4.8-1.7 7.3 0.2 12.9-1.4z"/><path class="aY" d="m168.9 316.1l-1.9 0.3-15.1-1c1.4-3.7 6.1-2.7 9.2-2.6l5.9-1.3q0.6-0.1 0.9 0.4 1.1 1.6 1 4.2z"/><path class="b1" d="m370.9 314.5l-0.2 1.1q-0.1 0.6-0.7 0.6h-2.4l-13.6-0.5q-0.2 0-0.3-0.1-0.1 0-0.2-0.1-0.1-0.1-0.2-0.2 0-0.2 0-0.3v-1.9q5.6-0.5 11.4-1.1c1.3-0.1 2.5 0.4 4 0.2q0.1 0 0.3 0 0.1 0 0.2 0.1 0.1 0.1 0.1 0.2 0.1 0 0.2 0.2 0.4 1.2 1.4 1.8z"/><path class="b1" d="m270.2 312.4l-0.2 3.4q-0.1 0.6-0.7 0.6l-3.3 0.1q-4.7-0.5-9.5-0.3-5 0.2-4.2-2.8z"/><path class="aY" d="m102.1 315.5q0 0.1-0.1 0.3-0.1 0.1-0.2 0.2-0.1 0.1-0.2 0.2-0.1 0-0.3 0h-8.2q-1.6 0-3-0.1-1.4-0.1-2.5-0.3-1.1-0.2-1.7-0.4-0.6-0.3-0.6-0.5v-0.8q0-0.3 0.6-0.6 0.6-0.2 1.7-0.4 1.1-0.2 2.5-0.3 1.4-0.1 3-0.1h8.2q0.2 0 0.3 0 0.1 0.1 0.2 0.2 0.1 0.1 0.2 0.3 0.1 0.1 0.1 0.2z"/><path class="b8" d="m34.3 316.4c-5.9 0.7-11.1 0.6-17 0.7q0-0.1-0.1-0.2c1.1-0.2 2.1-0.8 3.2-0.9q6.9-0.2 13.9 0.4z"/><path class="b9" d="m393.3 315.9l3.7 0.5-11.8 0.8q0.7-0.3 1.5-0.2z"/><path class="b0" d="m593.5 320h16.5q-0.2 0.5-0.2 0.7 0 0.3 0.5 0.3 0.2 0 0.5 0 0.4 0 0.3 0.5c-0.9 4.3 0.3 10.1 0.8 14.8 0.4 3.8-1.2 6.2-4.9 7q-0.8 0.1 0 0.2h0.9q0.1 0 0.1 0.1 0 0 0 0.1-0.1 0-0.1 0.1-0.1 0-0.2 0l-10.5 0.1h-30.9l-3.7-0.2q-0.5 0-0.2-0.2c0.3-0.1 1.8 0 2.6 0q0.6 0 1-0.4l1.9-2.3q0-0.1 0.1-0.2 0.1-0.1 0.1-0.2 0.1-0.1 0.1-0.3 0.1-0.1 0.1-0.2c0.7-3.6-0.2-6.8 0.3-10.3q0.8-5 0-10.2z"/><path class="aV" d="m434.9 319.7q6.3-0.4 6.3 1.7v19.1q0.5 1.3-0.1 2.5-0.3 0.5-0.8 0.4-12-0.8-23.8 0.8l-244 0.1 3.9-0.3q0.5 0 0.6-0.5l0.5-3q34.8 0 69.5 0c1.3 0 2.1 0.7 3.5-0.4q3.9-7.8 0-18.1l-1.3-0.7q2.4-1.3 3.6-1.3c20.5 0 41.1-0.6 61.7-0.3q24.6 0.4 49.2 0c23.7-0.4 47.8 0.3 71.2 0z"/><path class="aW" d="m537.2 319.6l23.8 0.2 7.6-0.4q0.8 5.2 0 10.2c-0.5 3.4 0.4 6.7-0.3 10.3q0 0.1-0.1 0.2 0 0.2-0.1 0.3 0 0.1-0.1 0.2-0.1 0.1-0.2 0.2l-1.8 2.3q-0.4 0.4-1 0.4c-0.8 0-2.3-0.1-2.6 0q-0.3 0.2 0.2 0.2l3.7 0.2c-39.4 1.4-83.4 0.6-125.1 0.8q-12.4 0-24.8-0.5 11.9-1.6 23.9-0.8 0.5 0.1 0.8-0.4 0.6-1.2 0.1-2.5h73.4q0.1 0 0.2-0.1 0.1 0 0.2-0.1 0.1-0.1 0.1-0.2 0.1-0.1 0.1-0.3l0.2-17.7q0-0.4-0.4-0.5-0.7-0.3-1.6-0.3c7.3-2 16.2-1.2 23.8-1.8z"/><path  d="m249.2 321.3l1.3 0.7v18.1c-1.4 1.1-2.2 0.4-3.5 0.4q-34.7 0-69.5 0-0.4 0.1-0.7 0-0.5-0.1-0.5-0.6l-0.3-17.9q0-0.2 0.1-0.3 0.1-0.2 0.3-0.2 0.1-0.1 0.3 0 0.2 0 0.3 0.1 0.5 0.8 2.8 0.1z"/><path  d="m513.5 321.3q0.8 0 1.5 0.3 0.4 0.1 0.4 0.5l-0.2 17.7q0 0.2-0.1 0.3 0 0.1-0.1 0.2-0.1 0.1-0.2 0.1-0.1 0.1-0.2 0.1h-73.4v-19.1z"/><path class="b8" d="m250.5 322q3.9 10.3 0 18.1z"/><path  d="m4.4 336.2l0.2-3.3q1.4-3.3 5.9-1.8 0.5 0.1 0.7 0.6 2.2 3.4 0.6 7.2-0.1 0.3-0.3 0.5-0.1 0.2-0.4 0.4-0.2 0.1-0.4 0.2-0.3 0.2-0.6 0.2-4.7 0.7-5.7-4z"/></svg>